StickNoBills-sinhala-1.ufo
<glyph name="quotesingle" format="1">
  <advance width="212"/>
  <unicode hex="0027"/>
  <outline>
    <contour>
      <point x="43" y="465" type="line"/>
      <point x="43" y="736" type="line"/>
      <point x="170" y="736" type="line"/>
      <point x="170" y="465" type="line"/>
    </contour>
  </outline>
</glyph>
<glyph name="parenright" format="1">
  <advance width="223"/>
  <unicode hex="0029"/>
  <outline>
    <contour>
      <point x="20" y="-37" type="curve"/>
      <point x="20" y="51" type="line"/>
      <point x="55" y="73"/>
      <point x="80" y="104"/>
      <point x="80" y="202" type="curve" smooth="yes"/>
      <point x="80" y="521" type="line"/>
      <point x="79" y="593"/>
      <point x="59" y="625"/>
      <point x="20" y="648" type="curve"/>
      <point x="21" y="735" type="line"/>
      <point x="120" y="696"/>
      <point x="183" y="652"/>
      <point x="183" y="510" type="curve"/>
      <point x="183" y="189" type="line"/>
      <point x="183" y="93"/>
      <point x="162" y="22"/>
    </contour>
  </outline>
</glyph>
<glyph name="comma" format="1">
  <advance width="265"/>
  <unicode hex="002C"/>
  <outline>
    <contour>
      <point x="51" y="-23" type="line"/>
      <point x="88" y="129" type="line"/>
      <point x="215" y="129" type="line"/>
      <point x="178" y="-23" type="line"/>
    </contour>
  </outline>
</glyph>
<glyph name="hyphen" format="1">
  <advance width="416"/>
  <unicode hex="002D"/>
  <outline>
    <contour>
      <point x="50" y="230" type="line"/>
      <point x="50" y="357" type="line"/>
      <point x="366" y="357" type="line"/>
      <point x="366" y="230" type="line"/>
    </contour>
  </outline>
</glyph>
<glyph name="period" format="1">
  <advance width="210"/>
  <unicode hex="002E"/>
  <outline>
    <contour>
      <point x="30" y="70" type="curve" smooth="yes"/>
      <point x="30" y="112"/>
      <point x="63" y="146"/>
      <point x="105" y="146" type="curve" smooth="yes"/>
      <point x="147" y="146"/>
      <point x="180" y="112"/>
      <point x="180" y="70" type="curve" smooth="yes"/>
      <point x="180" y="28"/>
      <point x="147" y="-5"/>
      <point x="105" y="-5" type="curve" smooth="yes"/>
      <point x="63" y="-5"/>
      <point x="30" y="28"/>
    </contour>
  </outline>
</glyph>
<glyph name="slash" format="1">
  <advance width="401"/>
  <unicode hex="002F"/>
  <outline>
    <contour>
      <point x="50" y="-23" type="line"/>
      <point x="225" y="716" type="line"/>
      <point x="351" y="716" type="line"/>
      <point x="177" y="-23" type="line"/>
    </contour>
  </outline>
</glyph>
<glyph name="two" format="1">
  <advance width="495"/>
  <unicode hex="0032"/>
  <outline>
    <contour>
      <point x="30" y="521" type="line"/>
      <point x="30" y="612"/>
      <point x="115" y="700"/>
      <point x="213" y="700" type="curve"/>
      <point x="213" y="570" type="line"/>
      <point x="196" y="570"/>
      <point x="151" y="555"/>
      <point x="151" y="498" type="curve"/>
    </contour>
    <contour>
      <point x="51" y="0" type="line"/>
      <point x="51" y="138" type="line"/>
      <point x="455" y="138" type="line"/>
      <point x="455" y="0" type="line"/>
    </contour>
    <contour>
      <point x="51" y="190" type="line"/>
      <point x="51" y="278"/>
      <point x="154" y="332"/>
      <point x="215" y="379" type="curve" smooth="yes"/>
      <point x="267" y="419"/>
      <point x="335" y="457"/>
      <point x="335" y="503" type="curve" smooth="yes"/>
      <point x="335" y="555"/>
      <point x="294" y="570"/>
      <point x="268" y="570" type="curve"/>
      <point x="268" y="700" type="line"/>
      <point x="406" y="700"/>
      <point x="465" y="605"/>
      <point x="465" y="504" type="curve" smooth="yes"/>
      <point x="465" y="423"/>
      <point x="432" y="377"/>
      <point x="343" y="313" type="curve" smooth="yes"/>
      <point x="275" y="264"/>
      <point x="209" y="235"/>
      <point x="209" y="190" type="curve"/>
    </contour>
  </outline>
</glyph>
<glyph name="eight" format="1">
  <advance width="492"/>
  <unicode hex="0038"/>
  <outline>
    <contour>
      <point x="217" y="-2" type="line"/>
      <point x="134" y="-2"/>
      <point x="30" y="80"/>
      <point x="30" y="200" type="curve" smooth="yes"/>
      <point x="30" y="284"/>
      <point x="67" y="331"/>
      <point x="94" y="349" type="curve"/>
      <point x="67" y="367"/>
      <point x="30" y="414"/>
      <point x="30" y="498" type="curve" smooth="yes"/>
      <point x="30" y="618"/>
      <point x="134" y="700"/>
      <point x="217" y="700" type="curve"/>
      <point x="217" y="571" type="line"/>
      <point x="178" y="565"/>
      <point x="159" y="529"/>
      <point x="159" y="492" type="curve" smooth="yes"/>
      <point x="159" y="456"/>
      <point x="178" y="420"/>
      <point x="216" y="413" type="curve"/>
      <point x="216" y="285" type="line"/>
      <point x="178" y="278"/>
      <point x="159" y="242"/>
      <point x="159" y="206" type="curve" smooth="yes"/>
      <point x="159" y="169"/>
      <point x="178" y="133"/>
      <point x="217" y="127" type="curve"/>
    </contour>
    <contour>
      <point x="275" y="-2" type="curve"/>
      <point x="275" y="127" type="line"/>
      <point x="314" y="133"/>
      <point x="333" y="169"/>
      <point x="333" y="206" type="curve" smooth="yes"/>
      <point x="333" y="242"/>
      <point x="314" y="278"/>
      <point x="276" y="285" type="curve"/>
      <point x="276" y="413" type="line"/>
      <point x="314" y="420"/>
      <point x="333" y="456"/>
      <point x="333" y="492" type="curve" smooth="yes"/>
      <point x="333" y="529"/>
      <point x="314" y="565"/>
      <point x="275" y="571" type="curve"/>
      <point x="275" y="700" type="line"/>
      <point x="358" y="700"/>
      <point x="462" y="618"/>
      <point x="462" y="498" type="curve" smooth="yes"/>
      <point x="462" y="414"/>
      <point x="425" y="367"/>
      <point x="398" y="349" type="curve"/>
      <point x="425" y="331"/>
      <point x="462" y="284"/>
      <point x="462" y="200" type="curve" smooth="yes"/>
      <point x="462" y="80"/>
      <point x="358" y="-2"/>
    </contour>
  </outline>
</glyph>
<glyph name="C" format="1">
  <advance width="494"/>
  <unicode hex="0043"/>
  <outline>
    <contour>
      <point x="38" y="181" type="curve"/>
      <point x="38" y="518" type="line"/>
      <point x="38" y="578"/>
      <point x="92" y="705"/>
      <point x="235" y="705" type="curve"/>
      <point x="235" y="564" type="line"/>
      <point x="189" y="563"/>
      <point x="179" y="523"/>
      <point x="179" y="518" type="curve"/>
      <point x="179" y="181" type="line"/>
      <point x="179" y="176"/>
      <point x="189" y="136"/>
      <point x="235" y="136" type="curve"/>
      <point x="235" y="-5" type="line"/>
      <point x="92" y="-5"/>
      <point x="38" y="121"/>
    </contour>
    <contour>
      <point x="289" y="-5" type="curve"/>
      <point x="289" y="136" type="line"/>
      <point x="289" y="136"/>
      <point x="321" y="143"/>
      <point x="331" y="166" type="curve" smooth="yes"/>
      <point x="336" y="178"/>
      <point x="336" y="189"/>
      <point x="336" y="203" type="curve" smooth="yes"/>
      <point x="336" y="215" type="line"/>
      <point x="474" y="182" type="line"/>
      <point x="474" y="76"/>
      <point x="381" y="-5"/>
    </contour>
    <contour>
      <point x="289" y="564" type="curve"/>
      <point x="289" y="705" type="line"/>
      <point x="381" y="705"/>
      <point x="474" y="612"/>
      <point x="474" y="516" type="curve"/>
      <point x="336" y="480" type="line"/>
      <point x="336" y="495" type="line" smooth="yes"/>
      <point x="336" y="509"/>
      <point x="336" y="520"/>
      <point x="331" y="532" type="curve" smooth="yes"/>
      <point x="321" y="555"/>
      <point x="289" y="564"/>
    </contour>
  </outline>
</glyph>
<glyph name="E" format="1">
  <advance width="444"/>
  <unicode hex="0045"/>
  <outline>
    <contour>
      <point x="42" y="0" type="line"/>
      <point x="42" y="700" type="line"/>
      <point x="406" y="700" type="line"/>
      <point x="406" y="560" type="line"/>
      <point x="183" y="560" type="line"/>
      <point x="183" y="418" type="line"/>
      <point x="312" y="418" type="line"/>
      <point x="312" y="277" type="line"/>
      <point x="183" y="277" type="line"/>
      <point x="183" y="141" type="line"/>
      <point x="406" y="141" type="line"/>
      <point x="406" y="0" type="line"/>
    </contour>
  </outline>
</glyph>
<glyph name="H" format="1">
  <advance width="495"/>
  <unicode hex="0048"/>
  <outline>
    <contour>
      <point x="40" y="0" type="line"/>
      <point x="40" y="700" type="line"/>
      <point x="181" y="700" type="line"/>
      <point x="181" y="421" type="line"/>
      <point x="220" y="421" type="line"/>
      <point x="220" y="283" type="line"/>
      <point x="181" y="283" type="line"/>
      <point x="181" y="0" type="line"/>
    </contour>
    <contour>
      <point x="275" y="283" type="line"/>
      <point x="275" y="421" type="line"/>
      <point x="314" y="421" type="line"/>
      <point x="314" y="700" type="line"/>
      <point x="455" y="700" type="line"/>
      <point x="455" y="0" type="line"/>
      <point x="314" y="0" type="line"/>
      <point x="314" y="283" type="line"/>
    </contour>
  </outline>
</glyph>
<glyph name="K" format="1">
  <advance width="488"/>
  <unicode hex="004B"/>
  <outline>
    <contour>
      <point x="42" y="0" type="line"/>
      <point x="42" y="700" type="line"/>
      <point x="183" y="700" type="line"/>
      <point x="183" y="0" type="line"/>
    </contour>
    <contour>
      <point x="223" y="341" type="line"/>
      <point x="330" y="700" type="line"/>
      <point x="469" y="700" type="line"/>
      <point x="363" y="341" type="line"/>
      <point x="473" y="0" type="line"/>
      <point x="335" y="0" type="line"/>
    </contour>
  </outline>
</glyph>
<glyph name="L" format="1">
  <advance width="433"/>
  <unicode hex="004C"/>
  <outline>
    <contour>
      <point x="42" y="0" type="line"/>
      <point x="42" y="700" type="line"/>
      <point x="183" y="700" type="line"/>
      <point x="183" y="140" type="line"/>
      <point x="418" y="140" type="line"/>
      <point x="418" y="0" type="line"/>
    </contour>
  </outline>
</glyph>
<glyph name="P" format="1">
  <advance width="479"/>
  <unicode hex="0050"/>
  <outline>
    <contour>
      <point x="42" y="0" type="line"/>
      <point x="42" y="700" type="line"/>
      <point x="183" y="700" type="line"/>
      <point x="183" y="0" type="line"/>
    </contour>
    <contour>
      <point x="237" y="319" type="curve"/>
      <point x="237" y="457" type="line"/>
      <point x="270" y="457" type="line" smooth="yes"/>
      <point x="277" y="457"/>
      <point x="321" y="458"/>
      <point x="321" y="508" type="curve" smooth="yes"/>
      <point x="321" y="559"/>
      <point x="279" y="561"/>
      <point x="270" y="561" type="curve" smooth="yes"/>
      <point x="237" y="561" type="line"/>
      <point x="237" y="700" type="line"/>
      <point x="250" y="700"/>
      <point x="262" y="701"/>
      <point x="274" y="700" type="curve"/>
      <point x="421" y="700"/>
      <point x="464" y="618"/>
      <point x="464" y="512" type="curve" smooth="yes"/>
      <point x="464" y="381"/>
      <point x="416" y="317"/>
      <point x="274" y="319" type="curve"/>
      <point x="262" y="318"/>
      <point x="250" y="319"/>
    </contour>
  </outline>
</glyph>
<glyph name="R" format="1">
  <advance width="505"/>
  <unicode hex="0052"/>
  <outline>
    <contour>
      <point x="42" y="0" type="line"/>
      <point x="42" y="700" type="line"/>
      <point x="183" y="700" type="line"/>
      <point x="183" y="0" type="line"/>
    </contour>
    <contour>
      <point x="237" y="286" type="line"/>
      <point x="237" y="411" type="line"/>
      <point x="250" y="411" type="line" smooth="yes"/>
      <point x="310" y="411"/>
      <point x="336" y="450"/>
      <point x="336" y="490" type="curve" smooth="yes"/>
      <point x="336" y="538"/>
      <point x="299" y="567"/>
      <point x="250" y="567" type="curve" smooth="yes"/>
      <point x="237" y="567" type="line"/>
      <point x="237" y="700" type="line"/>
      <point x="259" y="700" type="line"/>
      <point x="398" y="698"/>
      <point x="468" y="613"/>
      <point x="468" y="510" type="curve" smooth="yes"/>
      <point x="468" y="436"/>
      <point x="441" y="385"/>
      <point x="400" y="352" type="curve"/>
      <point x="441" y="326"/>
      <point x="462" y="266"/>
      <point x="466" y="217" type="curve" smooth="yes"/>
      <point x="483" y="0" type="line"/>
      <point x="353" y="0" type="line"/>
      <point x="338" y="178" type="line" smooth="yes"/>
      <point x="331" y="253"/>
      <point x="310" y="285"/>
      <point x="248" y="286" type="curve"/>
    </contour>
  </outline>
</glyph>
<glyph name="S" format="1">
  <advance width="481"/>
  <unicode hex="0053"/>
  <outline>
    <contour>
      <point x="20" y="158" type="curve"/>
      <point x="147" y="203" type="line"/>
      <point x="147" y="147"/>
      <point x="203" y="127"/>
      <point x="203" y="127" type="curve"/>
      <point x="203" y="-3" type="line"/>
      <point x="94" y="-3"/>
      <point x="20" y="103"/>
    </contour>
    <contour>
      <point x="28" y="508" type="curve" smooth="yes"/>
      <point x="28" y="647"/>
      <point x="152" y="699"/>
      <point x="203" y="700" type="curve"/>
      <point x="203" y="568" type="line"/>
      <point x="182" y="562"/>
      <point x="162" y="537"/>
      <point x="162" y="513" type="curve" smooth="yes"/>
      <point x="162" y="446"/>
      <point x="266" y="434"/>
      <point x="333" y="394" type="curve" smooth="yes"/>
      <point x="394" y="358"/>
      <point x="461" y="311"/>
      <point x="461" y="209" type="curve" smooth="yes"/>
      <point x="461" y="96"/>
      <point x="366" y="-3"/>
      <point x="258" y="-3" type="curve"/>
      <point x="258" y="127" type="line"/>
      <point x="282" y="130"/>
      <point x="320" y="150"/>
      <point x="320" y="203" type="curve" smooth="yes"/>
      <point x="320" y="278"/>
      <point x="211" y="294"/>
      <point x="151" y="323" type="curve" smooth="yes"/>
      <point x="80" y="357"/>
      <point x="28" y="403"/>
    </contour>
    <contour>
      <point x="258" y="568" type="curve"/>
      <point x="258" y="700" type="line"/>
      <point x="364" y="700"/>
      <point x="433" y="602"/>
      <point x="433" y="553" type="curve"/>
      <point x="303" y="510" type="line"/>
      <point x="303" y="557"/>
      <point x="258" y="568"/>
    </contour>
  </outline>
</glyph>
<glyph name="T" format="1">
  <advance width="463"/>
  <unicode hex="0054"/>
  <outline>
    <contour>
      <point x="15" y="562" type="line"/>
      <point x="15" y="700" type="line"/>
      <point x="448" y="700" type="line"/>
      <point x="448" y="562" type="line"/>
      <point x="302" y="562" type="line"/>
      <point x="302" y="0" type="line"/>
      <point x="161" y="0" type="line"/>
      <point x="161" y="562" type="line"/>
    </contour>
  </outline>
</glyph>
<glyph name="V" format="1">
  <advance width="472"/>
  <unicode hex="0056"/>
  <outline>
    <contour>
      <point x="8" y="700" type="line"/>
      <point x="152" y="700" type="line"/>
      <point x="311" y="158" type="line"/>
      <point x="258" y="0" type="line"/>
      <point x="211" y="0" type="line"/>
    </contour>
    <contour>
      <point x="265" y="514" type="line"/>
      <point x="320" y="700" type="line"/>
      <point x="464" y="700" type="line"/>
      <point x="424" y="569"/>
      <point x="383" y="430"/>
      <point x="341" y="290" type="curve"/>
      <point x="331" y="290" type="line"/>
    </contour>
  </outline>
</glyph>
<glyph name="backslash" format="1">
  <advance width="385"/>
  <unicode hex="005C"/>
  <outline>
    <contour>
      <point x="42" y="716" type="line"/>
      <point x="168" y="716" type="line"/>
      <point x="343" y="-23" type="line"/>
      <point x="216" y="-23" type="line"/>
    </contour>
  </outline>
</glyph>
<glyph name="asciicircum" format="1">
  <advance width="506"/>
  <unicode hex="005E"/>
  <outline>
    <contour>
      <point x="60" y="460" type="line"/>
      <point x="209" y="756" type="line"/>
      <point x="297" y="756" type="line"/>
      <point x="446" y="460" type="line"/>
      <point x="323" y="460" type="line"/>
      <point x="252" y="603" type="line"/>
      <point x="182" y="460" type="line"/>
    </contour>
  </outline>
</glyph>
<glyph name="grave" format="1">
  <advance width="346"/>
  <unicode hex="0060"/>
  <outline>
    <contour>
      <point x="42" y="757" type="line"/>
      <point x="169" y="757" type="line"/>
      <point x="206" y="605" type="line"/>
      <point x="115" y="605" type="line"/>
    </contour>
  </outline>
</glyph>
<glyph name="a" format="1">
  <advance width="472"/>
  <unicode hex="0061"/>
  <outline>
    <contour>
      <point x="25" y="132" type="curve" smooth="yes"/>
      <point x="25" y="183" type="line" smooth="yes"/>
      <point x="25" y="219"/>
      <point x="32" y="255"/>
      <point x="79" y="282" type="curve" smooth="yes"/>
      <point x="126" y="309"/>
      <point x="291" y="341"/>
      <point x="291" y="385" type="curve" smooth="yes"/>
      <point x="291" y="393"/>
      <point x="291" y="400"/>
      <point x="291" y="408" type="curve" smooth="yes"/>
      <point x="291" y="429"/>
      <point x="279" y="446"/>
      <point x="247" y="447" type="curve"/>
      <point x="247" y="570" type="line"/>
      <point x="362" y="570"/>
      <point x="419" y="477"/>
      <point x="419" y="417" type="curve" smooth="yes"/>
      <point x="419" y="156" type="line" smooth="yes"/>
      <point x="419" y="148"/>
      <point x="422" y="124"/>
      <point x="447" y="124" type="curve"/>
      <point x="447" y="0" type="line"/>
      <point x="404" y="0"/>
      <point x="372" y="12"/>
      <point x="349" y="32" type="curve"/>
      <point x="323" y="11"/>
      <point x="290" y="0"/>
      <point x="248" y="0" type="curve"/>
      <point x="248" y="123" type="line"/>
      <point x="283" y="123"/>
      <point x="291" y="149"/>
      <point x="291" y="163" type="curve" smooth="yes"/>
      <point x="291" y="245" type="line"/>
      <point x="249" y="220"/>
      <point x="164" y="204"/>
      <point x="149" y="196" type="curve" smooth="yes"/>
      <point x="142" y="193"/>
      <point x="136" y="185"/>
      <point x="136" y="173" type="curve" smooth="yes"/>
      <point x="136" y="159" type="line" smooth="yes"/>
      <point x="136" y="135"/>
      <point x="146" y="123"/>
      <point x="194" y="123" type="curve"/>
      <point x="194" y="0" type="line"/>
      <point x="87" y="0"/>
      <point x="25" y="69"/>
    </contour>
    <contour>
      <point x="32" y="427" type="line"/>
      <point x="32" y="508"/>
      <point x="117" y="570"/>
      <point x="195" y="570" type="curve"/>
      <point x="195" y="447" type="line"/>
      <point x="165" y="447"/>
      <point x="148" y="426"/>
      <point x="148" y="383" type="curve"/>
    </contour>
  </outline>
</glyph>
<glyph name="b" format="1">
  <advance width="466"/>
  <unicode hex="0062"/>
  <outline>
    <contour>
      <point x="42" y="0" type="line"/>
      <point x="42" y="716" type="line"/>
      <point x="180" y="716" type="line"/>
      <point x="180" y="0" type="line"/>
    </contour>
    <contour>
      <point x="233" y="0" type="line"/>
      <point x="233" y="130" type="line"/>
      <point x="269" y="130" type="line" smooth="yes"/>
      <point x="300" y="130"/>
      <point x="306" y="156"/>
      <point x="306" y="157" type="curve"/>
      <point x="306" y="413" type="line"/>
      <point x="306" y="415"/>
      <point x="300" y="439"/>
      <point x="270" y="440" type="curve" smooth="yes"/>
      <point x="233" y="440" type="line"/>
      <point x="233" y="570" type="line"/>
      <point x="269" y="570" type="line" smooth="yes"/>
      <point x="381" y="570"/>
      <point x="435" y="467"/>
      <point x="436" y="417" type="curve"/>
      <point x="436" y="155" type="line" smooth="yes"/>
      <point x="436" y="107"/>
      <point x="382" y="0"/>
      <point x="269" y="0" type="curve" smooth="yes"/>
    </contour>
  </outline>
</glyph>
<glyph name="c" format="1">
  <advance width="456"/>
  <unicode hex="0063"/>
  <outline>
    <contour>
      <point x="38" y="155" type="curve" smooth="yes"/>
      <point x="38" y="417" type="line"/>
      <point x="39" y="470"/>
      <point x="91" y="570"/>
      <point x="215" y="570" type="curve"/>
      <point x="215" y="442" type="line"/>
      <point x="180" y="442"/>
      <point x="169" y="426"/>
      <point x="169" y="415" type="curve" smooth="yes"/>
      <point x="169" y="155" type="line" smooth="yes"/>
      <point x="169" y="135"/>
      <point x="183" y="128"/>
      <point x="216" y="127" type="curve"/>
      <point x="216" y="0" type="line"/>
      <point x="86" y="0"/>
      <point x="38" y="103"/>
    </contour>
    <contour>
      <point x="261" y="441" type="curve"/>
      <point x="261" y="570" type="line"/>
      <point x="351" y="570"/>
      <point x="424" y="498"/>
      <point x="424" y="412" type="curve"/>
      <point x="302" y="365" type="line"/>
      <point x="302" y="398" type="line" smooth="yes"/>
      <point x="302" y="431"/>
      <point x="285" y="441"/>
    </contour>
    <contour>
      <point x="261" y="-1" type="curve"/>
      <point x="261" y="128" type="line"/>
      <point x="296" y="128"/>
      <point x="314" y="135"/>
      <point x="314" y="172" type="curve" smooth="yes"/>
      <point x="314" y="205" type="line"/>
      <point x="436" y="158" type="line"/>
      <point x="437" y="73"/>
      <point x="349" y="-4"/>
    </contour>
  </outline>
</glyph>
<glyph name="d" format="1">
  <advance width="461"/>
  <unicode hex="0064"/>
  <outline>
    <contour>
      <point x="30" y="155" type="curve" smooth="yes"/>
      <point x="30" y="415" type="line"/>
      <point x="31" y="464"/>
      <point x="84" y="567"/>
      <point x="195" y="567" type="curve" smooth="yes"/>
      <point x="228" y="567" type="line"/>
      <point x="228" y="438" type="line"/>
      <point x="195" y="438" type="line"/>
      <point x="165" y="437"/>
      <point x="160" y="412"/>
      <point x="160" y="410" type="curve" smooth="yes"/>
      <point x="160" y="157" type="line"/>
      <point x="160" y="155"/>
      <point x="166" y="130"/>
      <point x="197" y="130" type="curve" smooth="yes"/>
      <point x="228" y="130" type="line"/>
      <point x="228" y="0" type="line"/>
      <point x="197" y="0" type="line" smooth="yes"/>
      <point x="83" y="0"/>
      <point x="30" y="107"/>
    </contour>
    <contour>
      <point x="281" y="0" type="line"/>
      <point x="281" y="716" type="line"/>
      <point x="420" y="716" type="line"/>
      <point x="419" y="0" type="line"/>
    </contour>
  </outline>
</glyph>
<glyph name="e" format="1">
  <advance width="485"/>
  <unicode hex="0065"/>
  <outline>
    <contour>
      <point x="38" y="155" type="curve" smooth="yes"/>
      <point x="38" y="417" type="line"/>
      <point x="39" y="470"/>
      <point x="99" y="570"/>
      <point x="215" y="570" type="curve"/>
      <point x="215" y="444" type="line"/>
      <point x="189" y="444"/>
      <point x="172" y="423"/>
      <point x="172" y="408" type="curve" smooth="yes"/>
      <point x="172" y="358" type="line"/>
      <point x="321" y="358" type="line"/>
      <point x="321" y="407" type="line" smooth="yes"/>
      <point x="321" y="439"/>
      <point x="293" y="444"/>
      <point x="269" y="444" type="curve"/>
      <point x="269" y="570" type="line"/>
      <point x="350" y="570"/>
      <point x="446" y="509"/>
      <point x="446" y="418" type="curve" smooth="yes"/>
      <point x="446" y="229" type="line"/>
      <point x="172" y="229" type="line"/>
      <point x="172" y="155" type="line" smooth="yes"/>
      <point x="172" y="140"/>
      <point x="182" y="123"/>
      <point x="216" y="123" type="curve"/>
      <point x="216" y="0" type="line"/>
      <point x="98" y="0"/>
      <point x="38" y="102"/>
    </contour>
    <contour>
      <point x="269" y="0" type="curve"/>
      <point x="269" y="122" type="line"/>
      <point x="311" y="122"/>
      <point x="330" y="145"/>
      <point x="338" y="173" type="curve"/>
      <point x="447" y="132" type="line"/>
      <point x="432" y="68"/>
      <point x="365" y="0"/>
    </contour>
  </outline>
</glyph>
<glyph name="i" format="1">
  <advance width="245"/>
  <unicode hex="0069"/>
  <outline>
    <contour>
      <point x="50" y="651" type="curve" smooth="yes"/>
      <point x="50" y="690"/>
      <point x="83" y="723"/>
      <point x="123" y="723" type="curve" smooth="yes"/>
      <point x="162" y="723"/>
      <point x="195" y="690"/>
      <point x="195" y="651" type="curve" smooth="yes"/>
      <point x="195" y="612"/>
      <point x="162" y="579"/>
      <point x="123" y="579" type="curve" smooth="yes"/>
      <point x="83" y="579"/>
      <point x="50" y="612"/>
    </contour>
    <contour>
      <point x="57" y="0" type="line"/>
      <point x="57" y="540" type="line"/>
      <point x="191" y="540" type="line"/>
      <point x="191" y="0" type="line"/>
    </contour>
  </outline>
</glyph>
<glyph name="k" format="1">
  <advance width="500"/>
  <unicode hex="006B"/>
  <outline>
    <contour>
      <point x="42" y="0" type="line"/>
      <point x="42" y="716" type="line"/>
      <point x="180" y="716" type="line"/>
      <point x="180" y="0" type="line"/>
    </contour>
    <contour>
      <point x="209" y="287" type="line"/>
      <point x="332" y="570" type="line"/>
      <point x="478" y="570" type="line"/>
      <point x="352" y="287" type="line"/>
      <point x="480" y="0" type="line"/>
      <point x="335" y="0" type="line"/>
    </contour>
  </outline>
</glyph>
<glyph name="p" format="1">
  <advance width="481"/>
  <unicode hex="0070"/>
  <outline>
    <contour>
      <point x="230" y="0" type="line"/>
      <point x="230" y="130" type="line"/>
      <point x="264" y="130" type="line" smooth="yes"/>
      <point x="299" y="130"/>
      <point x="304" y="155"/>
      <point x="304" y="157" type="curve"/>
      <point x="304" y="413" type="line"/>
      <point x="304" y="415"/>
      <point x="299" y="440"/>
      <point x="264" y="440" type="curve" smooth="yes"/>
      <point x="230" y="440" type="line"/>
      <point x="230" y="570" type="line"/>
      <point x="264" y="570" type="line" smooth="yes"/>
      <point x="381" y="570"/>
      <point x="436" y="464"/>
      <point x="436" y="415" type="curve" smooth="yes"/>
      <point x="436" y="155" type="line" smooth="yes"/>
      <point x="436" y="106"/>
      <point x="381" y="0"/>
      <point x="264" y="0" type="curve" smooth="yes"/>
    </contour>
    <contour>
      <point x="39" y="-199" type="line"/>
      <point x="39" y="570" type="line"/>
      <point x="180" y="570" type="line"/>
      <point x="180" y="-199" type="line"/>
    </contour>
  </outline>
</glyph>
<glyph name="q" format="1">
  <advance width="476"/>
  <unicode hex="0071"/>
  <outline>
    <contour>
      <point x="212" y="0" type="line" smooth="yes"/>
      <point x="94" y="0"/>
      <point x="40" y="106"/>
      <point x="40" y="155" type="curve" smooth="yes"/>
      <point x="40" y="415" type="line" smooth="yes"/>
      <point x="40" y="464"/>
      <point x="94" y="570"/>
      <point x="212" y="570" type="curve" smooth="yes"/>
      <point x="246" y="570" type="line"/>
      <point x="246" y="440" type="line"/>
      <point x="212" y="440" type="line" smooth="yes"/>
      <point x="177" y="440"/>
      <point x="171" y="415"/>
      <point x="171" y="413" type="curve"/>
      <point x="171" y="157" type="line"/>
      <point x="171" y="155"/>
      <point x="177" y="130"/>
      <point x="212" y="130" type="curve" smooth="yes"/>
      <point x="246" y="130" type="line"/>
      <point x="246" y="0" type="line"/>
    </contour>
    <contour>
      <point x="296" y="-199" type="line"/>
      <point x="296" y="570" type="line"/>
      <point x="437" y="570" type="line"/>
      <point x="437" y="-199" type="line"/>
    </contour>
  </outline>
</glyph>
<glyph name="s" format="1">
  <advance width="454"/>
  <unicode hex="0073"/>
  <outline>
    <contour>
      <point x="20" y="150" type="curve"/>
      <point x="144" y="173" type="line"/>
      <point x="144" y="143"/>
      <point x="173" y="122"/>
      <point x="200" y="121" type="curve"/>
      <point x="200" y="-5" type="line"/>
      <point x="72" y="-5"/>
      <point x="20" y="78"/>
    </contour>
    <contour>
      <point x="26" y="414" type="curve" smooth="yes"/>
      <point x="26" y="528"/>
      <point x="136" y="575"/>
      <point x="198" y="575" type="curve"/>
      <point x="198" y="451" type="line"/>
      <point x="152" y="451"/>
      <point x="149" y="425"/>
      <point x="149" y="414" type="curve" smooth="yes"/>
      <point x="149" y="392"/>
      <point x="166" y="360"/>
      <point x="321" y="326" type="curve" smooth="yes"/>
      <point x="378" y="315"/>
      <point x="434" y="267"/>
      <point x="434" y="176" type="curve" smooth="yes"/>
      <point x="434" y="61"/>
      <point x="349" y="-5"/>
      <point x="245" y="-5" type="curve"/>
      <point x="245" y="121" type="line"/>
      <point x="264" y="121"/>
      <point x="305" y="132"/>
      <point x="305" y="168" type="curve" smooth="yes"/>
      <point x="305" y="218"/>
      <point x="182" y="227"/>
      <point x="119" y="255" type="curve" smooth="yes"/>
      <point x="66" y="282"/>
      <point x="26" y="322"/>
    </contour>
    <contour>
      <point x="243" y="451" type="curve"/>
      <point x="244" y="575" type="line"/>
      <point x="351" y="575"/>
      <point x="424" y="492"/>
      <point x="424" y="418" type="curve"/>
      <point x="301" y="397" type="line"/>
      <point x="301" y="446"/>
      <point x="253" y="451"/>
    </contour>
  </outline>
</glyph>
<glyph name="t" format="1">
  <advance width="324"/>
  <unicode hex="0074"/>
  <outline>
    <contour>
      <point x="14" y="441" type="line"/>
      <point x="14" y="570" type="line"/>
      <point x="84" y="570" type="line"/>
      <point x="84" y="716" type="line"/>
      <point x="218" y="716" type="line"/>
      <point x="218" y="570" type="line"/>
      <point x="284" y="570" type="line"/>
      <point x="284" y="440" type="line"/>
      <point x="218" y="440" type="line"/>
      <point x="218" y="175" type="line" smooth="yes"/>
      <point x="218" y="160"/>
      <point x="224" y="138"/>
      <point x="255" y="138" type="curve" smooth="yes"/>
      <point x="284" y="138" type="line"/>
      <point x="314" y="0" type="line"/>
      <point x="254" y="0" type="line" smooth="yes"/>
      <point x="119" y="0"/>
      <point x="84" y="73"/>
      <point x="84" y="185" type="curve" smooth="yes"/>
      <point x="84" y="441" type="line"/>
    </contour>
  </outline>
</glyph>
<glyph name="u" format="1">
  <advance width="487"/>
  <unicode hex="0075"/>
  <outline>
    <contour>
      <point x="38" y="151" type="curve" smooth="yes"/>
      <point x="38" y="570" type="line"/>
      <point x="174" y="570" type="line"/>
      <point x="174" y="167" type="line" smooth="yes"/>
      <point x="174" y="148"/>
      <point x="184" y="128"/>
      <point x="220" y="128" type="curve"/>
      <point x="220" y="-5" type="line"/>
      <point x="99" y="-5"/>
      <point x="38" y="95"/>
    </contour>
    <contour>
      <point x="266" y="-5" type="curve"/>
      <point x="266" y="128" type="line"/>
      <point x="302" y="128"/>
      <point x="313" y="149"/>
      <point x="313" y="167" type="curve" smooth="yes"/>
      <point x="313" y="570" type="line"/>
      <point x="449" y="570" type="line"/>
      <point x="449" y="151" type="line" smooth="yes"/>
      <point x="449" y="98"/>
      <point x="387" y="-5"/>
    </contour>
  </outline>
</glyph>
<glyph name="z" format="1">
  <advance width="386"/>
  <unicode hex="007A"/>
  <outline>
    <contour>
      <point x="30" y="0" type="line"/>
      <point x="30" y="131" type="line"/>
      <point x="203" y="440" type="line"/>
      <point x="30" y="440" type="line"/>
      <point x="30" y="570" type="line"/>
      <point x="356" y="570" type="line"/>
      <point x="356" y="440" type="line"/>
      <point x="188" y="131" type="line"/>
      <point x="356" y="131" type="line"/>
      <point x="356" y="0" type="line"/>
    </contour>
  </outline>
</glyph>
<glyph name="bar" format="1">
  <advance width="205"/>
  <unicode hex="007C"/>
  <outline>
    <contour>
      <point x="50" y="-134" type="line"/>
      <point x="50" y="754" type="line"/>
      <point x="155" y="754" type="line"/>
      <point x="155" y="-134" type="line"/>
    </contour>
  </outline>
</glyph>
<glyph name="ordfeminine" format="1">
  <advance width="248"/>
  <unicode hex="00AA"/>
  <outline>
    <contour>
      <point x="19" y="325" type="line"/>
      <point x="19" y="393" type="line"/>
      <point x="225" y="393" type="line"/>
      <point x="225" y="325" type="line"/>
    </contour>
    <component base="a" xOffset="1.900" yOffset="418.895" xScale="0.5" yScale="0.5"/>
  </outline>
</glyph>
<glyph name="guillemotleft" format="1">
  <advance width="457"/>
  <unicode hex="00AB"/>
  <outline>
    <contour>
      <point x="20" y="259" type="line"/>
      <point x="20" y="321" type="line"/>
      <point x="231" y="477" type="line"/>
      <point x="231" y="352" type="line"/>
      <point x="142" y="292" type="line"/>
      <point x="231" y="224" type="line"/>
      <point x="231" y="102" type="line"/>
    </contour>
    <contour>
      <point x="231" y="259" type="line"/>
      <point x="231" y="321" type="line"/>
      <point x="442" y="477" type="line"/>
      <point x="442" y="352" type="line"/>
      <point x="353" y="292" type="line"/>
      <point x="442" y="224" type="line"/>
      <point x="442" y="102" type="line"/>
    </contour>
  </outline>
</glyph>
<glyph name="plusminus" format="1">
  <advance width="427"/>
  <unicode hex="00B1"/>
  <outline>
    <contour>
      <point x="26" y="40" type="line"/>
      <point x="26" y="167" type="line"/>
      <point x="402" y="167" type="line"/>
      <point x="402" y="40" type="line"/>
    </contour>
    <component base="plus" xOffset="10" yOffset="161"/>
  </outline>
</glyph>
<glyph name="twosuperior" format="1">
  <advance width="223"/>
  <unicode hex="00B2"/>
  <outline>
    <contour>
      <point x="8" y="624" type="line"/>
      <point x="8" y="665"/>
      <point x="46" y="705"/>
      <point x="90" y="705" type="curve"/>
      <point x="90" y="646" type="line"/>
      <point x="83" y="646"/>
      <point x="62" y="639"/>
      <point x="62" y="614" type="curve"/>
    </contour>
    <contour>
      <point x="17" y="390" type="line"/>
      <point x="17" y="452" type="line"/>
      <point x="199" y="452" type="line"/>
      <point x="199" y="390" type="line"/>
    </contour>
    <contour>
      <point x="17" y="475" type="line"/>
      <point x="17" y="515"/>
      <point x="64" y="539"/>
      <point x="91" y="560" type="curve" smooth="yes"/>
      <point x="115" y="578"/>
      <point x="145" y="595"/>
      <point x="145" y="616" type="curve" smooth="yes"/>
      <point x="145" y="639"/>
      <point x="127" y="646"/>
      <point x="115" y="646" type="curve"/>
      <point x="115" y="705" type="line"/>
      <point x="177" y="705"/>
      <point x="204" y="662"/>
      <point x="204" y="616" type="curve" smooth="yes"/>
      <point x="204" y="580"/>
      <point x="189" y="559"/>
      <point x="149" y="530" type="curve" smooth="yes"/>
      <point x="118" y="508"/>
      <point x="89" y="495"/>
      <point x="89" y="475" type="curve"/>
    </contour>
  </outline>
</glyph>
<glyph name="onesuperior" format="1">
  <advance width="153"/>
  <unicode hex="00B9"/>
  <outline>
    <contour>
      <point x="11" y="616" type="line"/>
      <point x="11" y="672" type="line"/>
      <point x="45" y="699" type="line"/>
      <point x="109" y="699" type="line"/>
      <point x="109" y="384" type="line"/>
      <point x="45" y="384" type="line"/>
      <point x="45" y="616" type="line"/>
    </contour>
  </outline>
</glyph>
<glyph name="ordmasculine" format="1">
  <advance width="230"/>
  <unicode hex="00BA"/>
  <outline>
    <contour>
      <point x="26" y="361" type="line"/>
      <point x="26" y="432" type="line"/>
      <point x="204" y="432" type="line"/>
      <point x="204" y="361" type="line"/>
    </contour>
    <component base="o" xOffset="5.010" yOffset="450.810" xScale="0.45" yScale="0.45"/>
  </outline>
</glyph>
<glyph name="guillemotright" format="1">
  <advance width="457"/>
  <unicode hex="00BB"/>
  <outline>
    <contour>
      <point x="15" y="102" type="line"/>
      <point x="15" y="224" type="line"/>
      <point x="104" y="292" type="line"/>
      <point x="15" y="352" type="line"/>
      <point x="15" y="477" type="line"/>
      <point x="226" y="321" type="line"/>
      <point x="226" y="259" type="line"/>
    </contour>
    <contour>
      <point x="226" y="102" type="line"/>
      <point x="226" y="224" type="line"/>
      <point x="315" y="292" type="line"/>
      <point x="226" y="352" type="line"/>
      <point x="226" y="477" type="line"/>
      <point x="437" y="321" type="line"/>
      <point x="437" y="259" type="line"/>
    </contour>
  </outline>
</glyph>
<glyph name="onequarter" format="1">
  <advance width="508"/>
  <unicode hex="00BC"/>
  <outline>
    <contour>
      <point x="372" y="0" type="line"/>
      <point x="372" y="351" type="line"/>
      <point x="452" y="351" type="line"/>
      <point x="452" y="131" type="line"/>
      <point x="479" y="131" type="line"/>
      <point x="479" y="61" type="line"/>
      <point x="452" y="61" type="line"/>
      <point x="452" y="0" type="line"/>
    </contour>
    <contour>
      <point x="49" y="607" type="line"/>
      <point x="49" y="670" type="line"/>
      <point x="87" y="700" type="line"/>
      <point x="168" y="700" type="line"/>
      <point x="168" y="350" type="line"/>
      <point x="87" y="350" type="line"/>
      <point x="87" y="607" type="line"/>
    </contour>
    <contour>
      <point x="236" y="61" type="line"/>
      <point x="236" y="131" type="line"/>
      <point x="344" y="319" type="line"/>
      <point x="344" y="175" type="line"/>
      <point x="321" y="131" type="line"/>
      <point x="344" y="131" type="line"/>
      <point x="344" y="61" type="line"/>
    </contour>
    <contour>
      <point x="0" y="0" type="line"/>
      <point x="432" y="700" type="line"/>
      <point x="508" y="700" type="line"/>
      <point x="83" y="0" type="line"/>
    </contour>
  </outline>
</glyph>
<glyph name="AE" format="1">
  <advance width="727"/>
  <unicode hex="00C6"/>
  <outline>
    <contour>
      <point x="26" y="0" type="line"/>
      <point x="206" y="700" type="line"/>
      <point x="701" y="700" type="line"/>
      <point x="701" y="560" type="line"/>
      <point x="478" y="560" type="line"/>
      <point x="478" y="418" type="line"/>
      <point x="607" y="418" type="line"/>
      <point x="607" y="277" type="line"/>
      <point x="478" y="277" type="line"/>
      <point x="478" y="141" type="line"/>
      <point x="701" y="141" type="line"/>
      <point x="701" y="0" type="line"/>
      <point x="337" y="0" type="line"/>
      <point x="337" y="148" type="line"/>
      <point x="272" y="148" type="line"/>
      <point x="301" y="268" type="line"/>
      <point x="337" y="268" type="line"/>
      <point x="337" y="560" type="line"/>
      <point x="320" y="560" type="line"/>
      <point x="182" y="0" type="line"/>
    </contour>
  </outline>
</glyph>
<glyph name="ae" format="1">
  <advance width="666"/>
  <unicode hex="00E6"/>
  <outline>
    <contour>
      <point x="26" y="110" type="curve" smooth="yes"/>
      <point x="26" y="180" type="line" smooth="yes"/>
      <point x="26" y="289"/>
      <point x="268" y="283"/>
      <point x="268" y="351" type="curve" smooth="yes"/>
      <point x="268" y="373" type="line" smooth="yes"/>
      <point x="268" y="395"/>
      <point x="241" y="411"/>
      <point x="211" y="411" type="curve" smooth="yes"/>
      <point x="176" y="411"/>
      <point x="138" y="392"/>
      <point x="138" y="349" type="curve"/>
      <point x="43" y="375" type="line"/>
      <point x="43" y="455"/>
      <point x="120" y="519"/>
      <point x="207" y="519" type="curve" smooth="yes"/>
      <point x="263" y="519"/>
      <point x="298" y="506"/>
      <point x="329" y="483" type="curve"/>
      <point x="355" y="503"/>
      <point x="387" y="516"/>
      <point x="429" y="516" type="curve"/>
      <point x="429" y="401" type="line"/>
      <point x="401" y="401"/>
      <point x="384" y="381"/>
      <point x="384" y="363" type="curve"/>
      <point x="384" y="324" type="line"/>
      <point x="525" y="324" type="line"/>
      <point x="525" y="359" type="line" smooth="yes"/>
      <point x="525" y="387"/>
      <point x="500" y="401"/>
      <point x="478" y="401" type="curve"/>
      <point x="478" y="516" type="line"/>
      <point x="552" y="516"/>
      <point x="639" y="453"/>
      <point x="639" y="378" type="curve" smooth="yes"/>
      <point x="639" y="208" type="line"/>
      <point x="384" y="208" type="line"/>
      <point x="384" y="159" type="line" smooth="yes"/>
      <point x="384" y="126"/>
      <point x="414" y="108"/>
      <point x="450" y="108" type="curve" smooth="yes"/>
      <point x="503" y="108"/>
      <point x="532" y="117"/>
      <point x="541" y="157" type="curve"/>
      <point x="640" y="120" type="line"/>
      <point x="620" y="40"/>
      <point x="546" y="0"/>
      <point x="454" y="0" type="curve" smooth="yes"/>
      <point x="396" y="0"/>
      <point x="351" y="13"/>
      <point x="321" y="40" type="curve"/>
      <point x="302" y="15"/>
      <point x="267" y="1"/>
      <point x="229" y="1" type="curve"/>
      <point x="229" y="113" type="line"/>
      <point x="261" y="113"/>
      <point x="268" y="145"/>
      <point x="268" y="149" type="curve" smooth="yes"/>
      <point x="268" y="227" type="line"/>
      <point x="221" y="200"/>
      <point x="127" y="198"/>
      <point x="127" y="162" type="curve" smooth="yes"/>
      <point x="127" y="149" type="line" smooth="yes"/>
      <point x="127" y="120"/>
      <point x="145" y="113"/>
      <point x="180" y="113" type="curve"/>
      <point x="180" y="1" type="line"/>
      <point x="83" y="1"/>
      <point x="26" y="53"/>
    </contour>
  </outline>
</glyph>
<glyph name="thorn" format="1">
  <advance width="422"/>
  <unicode hex="00FE"/>
  <outline>
    <contour>
      <point x="30" y="-182" type="line"/>
      <point x="30" y="700" type="line"/>
      <point x="155" y="700" type="line"/>
      <point x="155" y="-182" type="line"/>
    </contour>
    <contour>
      <point x="196" y="401" type="line"/>
      <point x="196" y="519" type="line"/>
      <point x="228" y="519" type="line" smooth="yes"/>
      <point x="335" y="519"/>
      <point x="396" y="434"/>
      <point x="396" y="378" type="curve" smooth="yes"/>
      <point x="396" y="139" type="line" smooth="yes"/>
      <point x="396" y="86"/>
      <point x="345" y="0"/>
      <point x="232" y="0" type="curve" smooth="yes"/>
      <point x="203" y="0" type="line"/>
      <point x="203" y="118" type="line"/>
      <point x="234" y="118" type="line" smooth="yes"/>
      <point x="271" y="119"/>
      <point x="276" y="134"/>
      <point x="276" y="143" type="curve" smooth="yes"/>
      <point x="276" y="375" type="line" smooth="yes"/>
      <point x="276" y="388"/>
      <point x="258" y="401"/>
      <point x="228" y="401" type="curve" smooth="yes"/>
    </contour>
  </outline>
</glyph>
<glyph name="dotlessi" format="1">
  <advance width="174"/>
  <unicode hex="0131"/>
  <outline>
    <contour>
      <point x="26" y="0" type="line"/>
      <point x="26" y="516" type="line"/>
      <point x="148" y="516" type="line"/>
      <point x="148" y="0" type="line"/>
    </contour>
  </outline>
</glyph>
<glyph name="lslash" format="1">
  <advance width="424"/>
  <unicode hex="0142"/>
  <outline>
    <contour>
      <point x="40" y="302" type="line"/>
      <point x="340" y="536" type="line"/>
      <point x="412" y="443" type="line"/>
      <point x="112" y="209" type="line"/>
    </contour>
    <contour>
      <point x="159" y="-9" type="line"/>
      <point x="159" y="707" type="line"/>
      <point x="303" y="707" type="line"/>
      <point x="303" y="-9" type="line"/>
    </contour>
  </outline>
</glyph>
<glyph name="ogonek" format="1">
  <advance width="219"/>
  <unicode hex="02DB"/>
  <outline>
    <contour>
      <point x="106" y="-199" type="line"/>
      <point x="-21" y="-199"/>
      <point x="-62" y="-116"/>
      <point x="-62" y="-40" type="curve"/>
      <point x="30" y="-40" type="line"/>
      <point x="30" y="-95"/>
      <point x="70" y="-108"/>
      <point x="106" y="-108" type="curve"/>
    </contour>
  </outline>
</glyph>
<glyph name="tml_E" format="1">
  <advance width="761"/>
  <unicode hex="0B8E"/>
  <outline>
    <contour>
      <point x="58" y="179" type="line" smooth="yes"/>
      <point x="58" y="69"/>
      <point x="127" y="1"/>
      <point x="229" y="1" type="curve" smooth="yes"/>
      <point x="229" y="123" type="line"/>
      <point x="199" y="123"/>
      <point x="182" y="145"/>
      <point x="182" y="182" type="curve" smooth="yes"/>
      <point x="182" y="218"/>
      <point x="200" y="238"/>
      <point x="229" y="238" type="curve" smooth="yes"/>
      <point x="229" y="360" type="line"/>
      <point x="179" y="360"/>
      <point x="57" y="325"/>
      <point x="58" y="221" type="curve" smooth="yes"/>
    </contour>
    <contour>
      <point x="284" y="1" type="line"/>
      <point x="383" y="1"/>
      <point x="458" y="86"/>
      <point x="458" y="148" type="curve" smooth="yes"/>
      <point x="458" y="220" type="line" smooth="yes"/>
      <point x="458" y="310"/>
      <point x="399" y="360"/>
      <point x="284" y="360" type="curve" smooth="yes"/>
      <point x="284" y="238" type="line"/>
      <point x="324" y="238"/>
      <point x="335" y="216"/>
      <point x="336" y="182" type="curve" smooth="yes"/>
      <point x="337" y="146"/>
      <point x="318" y="123"/>
      <point x="284" y="123" type="curve" smooth="yes"/>
    </contour>
    <contour>
      <point x="58" y="228" type="line"/>
      <point x="64" y="258"/>
      <point x="184" y="272"/>
      <point x="189" y="329" type="curve" smooth="yes"/>
      <point x="196" y="406"/>
      <point x="236" y="472"/>
      <point x="323" y="472" type="curve"/>
      <point x="323" y="595" type="line"/>
      <point x="120" y="595"/>
      <point x="58" y="396"/>
      <point x="58" y="281" type="curve" smooth="yes"/>
    </contour>
    <contour>
      <point x="503" y="0" type="line"/>
      <point x="625" y="0" type="line"/>
      <point x="625" y="577" type="line"/>
      <point x="503" y="577" type="line"/>
    </contour>
    <contour>
      <point x="378" y="472" type="line"/>
      <point x="736" y="472" type="line"/>
      <point x="736" y="595" type="line"/>
      <point x="378" y="595" type="line"/>
    </contour>
  </outline>
</glyph>
<glyph name="tml_Ai" format="1">
  <advance width="963"/>
  <unicode hex="0B90"/>
  <outline>
    <contour>
      <point x="285" y="-180" type="curve"/>
      <point x="285" y="-58" type="line"/>
      <point x="209" y="-58"/>
      <point x="176" y="-19"/>
      <point x="176" y="46" type="curve" smooth="yes"/>
      <point x="176" y="93"/>
      <point x="195" y="157"/>
      <point x="254" y="157" type="curve" smooth="yes"/>
      <point x="286" y="157" type="line"/>
      <point x="286" y="280" type="line" smooth="yes"/>
      <point x="261" y="280" type="line" smooth="yes"/>
      <point x="106" y="280"/>
      <point x="54" y="164"/>
      <point x="54" y="83" type="curve" smooth="yes"/>
      <point x="54" y="0" type="line" smooth="yes"/>
      <point x="54" y="-103"/>
      <point x="163" y="-180"/>
    </contour>
    <contour>
      <point x="339" y="-180" type="line"/>
      <point x="415" y="-180"/>
      <point x="503" y="-180"/>
      <point x="526" y="-130" type="curve"/>
      <point x="540" y="-174"/>
      <point x="611" y="-180"/>
      <point x="663" y="-180" type="curve"/>
      <point x="663" y="-57" type="line"/>
      <point x="613" y="-57"/>
      <point x="582" y="-47"/>
      <point x="582" y="-4" type="curve" smooth="yes"/>
      <point x="582" y="118" type="line" smooth="yes"/>
      <point x="460" y="118" type="line" smooth="yes"/>
      <point x="460" y="-4" type="line" smooth="yes"/>
      <point x="460" y="-44"/>
      <point x="430" y="-58"/>
      <point x="339" y="-58" type="curve"/>
    </contour>
    <contour>
      <point x="42" y="532" type="curve" smooth="yes"/>
      <point x="168" y="532" type="line" smooth="yes"/>
      <point x="168" y="570"/>
      <point x="188" y="603"/>
      <point x="293" y="603" type="curve" smooth="yes"/>
      <point x="415" y="603"/>
      <point x="460" y="519"/>
      <point x="460" y="413" type="curve" smooth="yes"/>
      <point x="460" y="326" type="line"/>
      <point x="582" y="326" type="line"/>
      <point x="582" y="410" type="line"/>
      <point x="582" y="602"/>
      <point x="477" y="712"/>
      <point x="297" y="712" type="curve" smooth="yes"/>
      <point x="155" y="712"/>
      <point x="42" y="642"/>
    </contour>
    <contour>
      <point x="715" y="158" type="line" smooth="yes"/>
      <point x="795" y="158"/>
      <point x="907" y="203"/>
      <point x="909" y="387" type="curve" smooth="yes"/>
      <point x="909" y="461" type="line"/>
      <point x="909" y="610"/>
      <point x="819" y="688"/>
      <point x="717" y="696" type="curve"/>
      <point x="717" y="574" type="line"/>
      <point x="764" y="567"/>
      <point x="786" y="525"/>
      <point x="786" y="461" type="curve"/>
      <point x="786" y="430"/>
      <point x="786" y="389"/>
      <point x="786" y="389" type="curve" smooth="yes"/>
      <point x="786" y="329"/>
      <point x="758" y="280"/>
      <point x="715" y="280" type="curve" smooth="yes"/>
    </contour>
    <contour>
      <point x="231" y="306" type="curve" smooth="yes"/>
      <point x="321" y="306"/>
      <point x="395" y="363"/>
      <point x="400" y="426" type="curve"/>
      <point x="316" y="515" type="line" smooth="yes"/>
      <point x="316" y="450"/>
      <point x="276" y="428"/>
      <point x="231" y="428" type="curve" smooth="yes"/>
      <point x="200" y="428"/>
      <point x="169" y="444"/>
      <point x="166" y="475" type="curve" smooth="yes"/>
      <point x="166" y="475"/>
      <point x="42" y="475"/>
      <point x="42" y="475" type="curve"/>
      <point x="42" y="475"/>
      <point x="55" y="306"/>
    </contour>
    <contour>
      <point x="460" y="326" type="line"/>
      <point x="582" y="326" type="line"/>
      <point x="582" y="464" type="line" smooth="yes"/>
      <point x="582" y="530"/>
      <point x="623" y="565"/>
      <point x="663" y="573" type="curve"/>
      <point x="663" y="696" type="line"/>
      <point x="570" y="687"/>
      <point x="460" y="613"/>
      <point x="460" y="480" type="curve" smooth="yes"/>
    </contour>
    <contour>
      <point x="717" y="-180" type="line"/>
      <point x="839" y="-180"/>
      <point x="905" y="-87"/>
      <point x="905" y="-3" type="curve" smooth="yes"/>
      <point x="905" y="118" type="line"/>
      <point x="783" y="118" type="line"/>
      <point x="783" y="-3" type="line" smooth="yes"/>
      <point x="783" y="-40"/>
      <point x="756" y="-57"/>
      <point x="717" y="-57" type="curve"/>
    </contour>
    <contour>
      <point x="335" y="157" type="curve"/>
      <point x="656" y="158" type="line"/>
      <point x="656" y="158"/>
      <point x="656" y="280"/>
      <point x="656" y="280" type="curve" smooth="yes"/>
      <point x="335" y="280" type="line"/>
      <point x="335" y="280"/>
      <point x="335" y="157"/>
    </contour>
  </outline>
</glyph>
<glyph name="tml_Oo" format="1">
  <advance width="895"/>
  <unicode hex="0B93"/>
  <outline>
    <contour>
      <point x="479" y="573" type="line"/>
      <point x="641" y="573"/>
      <point x="733" y="458"/>
      <point x="733" y="398" type="curve" smooth="yes"/>
      <point x="733" y="196" type="line" smooth="yes"/>
      <point x="732" y="136"/>
      <point x="606" y="137"/>
      <point x="606" y="196" type="curve"/>
      <point x="606" y="350" type="line"/>
      <point x="483" y="350" type="line" smooth="yes"/>
      <point x="483" y="166" type="line" smooth="yes"/>
      <point x="483" y="-16"/>
      <point x="857" y="-17"/>
      <point x="857" y="165" type="curve" smooth="yes"/>
      <point x="857" y="398" type="line" smooth="yes"/>
      <point x="857" y="494"/>
      <point x="745" y="695"/>
      <point x="479" y="695" type="curve"/>
    </contour>
    <contour>
      <point x="216" y="-141" type="curve" smooth="yes"/>
      <point x="216" y="-226"/>
      <point x="279" y="-300"/>
      <point x="382" y="-301" type="curve" smooth="yes"/>
      <point x="488" y="-302"/>
      <point x="563" y="-206"/>
      <point x="586" y="-163" type="curve"/>
      <point x="474" y="-98" type="line"/>
      <point x="462" y="-121"/>
      <point x="459" y="-127"/>
      <point x="451" y="-138" type="curve" smooth="yes"/>
      <point x="404" y="-203"/>
      <point x="339" y="-176"/>
      <point x="339" y="-141" type="curve" smooth="yes"/>
      <point x="339" y="-115"/>
      <point x="361" y="-104"/>
      <point x="386" y="-104" type="curve"/>
      <point x="386" y="19" type="line"/>
      <point x="256" y="19"/>
      <point x="216" y="-64"/>
    </contour>
    <contour>
      <point x="39" y="177" type="line" smooth="yes"/>
      <point x="39" y="124"/>
      <point x="108" y="29"/>
      <point x="210" y="29" type="curve" smooth="yes"/>
      <point x="210" y="152" type="line"/>
      <point x="180" y="152"/>
      <point x="163" y="173"/>
      <point x="163" y="210" type="curve" smooth="yes"/>
      <point x="163" y="246"/>
      <point x="181" y="266"/>
      <point x="210" y="266" type="curve" smooth="yes"/>
      <point x="210" y="389" type="line"/>
      <point x="160" y="389"/>
      <point x="38" y="354"/>
      <point x="39" y="250" type="curve" smooth="yes"/>
    </contour>
    <contour>
      <point x="265" y="29" type="line"/>
      <point x="364" y="29"/>
      <point x="439" y="115"/>
      <point x="439" y="177" type="curve" smooth="yes"/>
      <point x="439" y="248" type="line" smooth="yes"/>
      <point x="439" y="309"/>
      <point x="364" y="389"/>
      <point x="265" y="389" type="curve" smooth="yes"/>
      <point x="265" y="266" type="line"/>
      <point x="305" y="266"/>
      <point x="316" y="244"/>
      <point x="317" y="210" type="curve" smooth="yes"/>
      <point x="318" y="174"/>
      <point x="299" y="152"/>
      <point x="265" y="152" type="curve" smooth="yes"/>
    </contour>
    <contour>
      <point x="483" y="25" type="line" smooth="yes"/>
      <point x="483" y="-66"/>
      <point x="589" y="-132"/>
      <point x="752" y="-132" type="curve"/>
      <point x="752" y="-9" type="line" smooth="yes"/>
      <point x="678" y="-9"/>
      <point x="604" y="3"/>
      <point x="604" y="52" type="curve" smooth="yes"/>
      <point x="604" y="171" type="line" smooth="yes"/>
      <point x="483" y="276" type="line"/>
    </contour>
    <contour>
      <point x="39" y="256" type="line"/>
      <point x="45" y="286"/>
      <point x="179" y="300"/>
      <point x="179" y="357" type="curve" smooth="yes"/>
      <point x="179" y="456"/>
      <point x="243" y="573"/>
      <point x="426" y="573" type="curve"/>
      <point x="426" y="695" type="line" smooth="yes"/>
      <point x="121" y="695"/>
      <point x="39" y="452"/>
      <point x="39" y="310" type="curve"/>
    </contour>
  </outline>
</glyph>
<glyph name="tml_Tta" format="1">
  <advance width="625"/>
  <unicode hex="0B9F"/>
  <outline>
    <contour>
      <point x="27" y="0" type="line"/>
      <point x="587" y="0" type="line"/>
      <point x="587" y="122" type="line"/>
      <point x="27" y="122" type="line"/>
    </contour>
    <contour>
      <point x="27" y="176" type="line"/>
      <point x="149" y="176" type="line"/>
      <point x="149" y="596" type="line"/>
      <point x="27" y="596" type="line"/>
    </contour>
    <contour>
      <point x="331" y="0" type="move" name="tml_virama"/>
    </contour>
  </outline>
</glyph>
<glyph name="tml_MatraAi" format="1">
  <advance width="1043"/>
  <unicode hex="0BC8"/>
  <outline>
    <contour>
      <point x="423" y="157" type="line"/>
      <point x="423" y="72"/>
      <point x="473" y="-11"/>
      <point x="568" y="-11" type="curve" smooth="yes"/>
      <point x="568" y="112" type="line"/>
      <point x="543" y="112"/>
      <point x="545" y="146"/>
      <point x="545" y="158" type="curve" smooth="yes"/>
      <point x="545" y="290" type="line" smooth="yes"/>
      <point x="545" y="477"/>
      <point x="667" y="484"/>
      <point x="748" y="484" type="curve"/>
      <point x="748" y="606" type="line"/>
      <point x="689" y="606"/>
      <point x="423" y="591"/>
      <point x="423" y="288" type="curve" smooth="yes"/>
    </contour>
    <contour>
      <point x="389" y="483" type="line"/>
      <point x="522" y="482"/>
      <point x="646" y="476"/>
      <point x="646" y="290" type="curve" smooth="yes"/>
      <point x="646" y="157" type="line" smooth="yes"/>
      <point x="646" y="146"/>
      <point x="650" y="112"/>
      <point x="622" y="112" type="curve" smooth="yes"/>
      <point x="622" y="-11" type="line"/>
      <point x="719" y="-11"/>
      <point x="768" y="65"/>
      <point x="768" y="157" type="curve" smooth="yes"/>
      <point x="768" y="301" type="line" smooth="yes"/>
      <point x="768" y="586"/>
      <point x="531" y="605"/>
      <point x="389" y="605" type="curve"/>
    </contour>
    <contour>
      <point x="40" y="156" type="line"/>
      <point x="40" y="71"/>
      <point x="91" y="-11"/>
      <point x="186" y="-11" type="curve" smooth="yes"/>
      <point x="186" y="111" type="line"/>
      <point x="161" y="111"/>
      <point x="162" y="145"/>
      <point x="162" y="157" type="curve" smooth="yes"/>
      <point x="162" y="290" type="line" smooth="yes"/>
      <point x="162" y="476"/>
      <point x="255" y="483"/>
      <point x="335" y="483" type="curve"/>
      <point x="335" y="605" type="line"/>
      <point x="266" y="605"/>
      <point x="40" y="596"/>
      <point x="40" y="290" type="curve" smooth="yes"/>
    </contour>
    <contour>
      <point x="210" y="342" type="curve"/>
      <point x="231" y="342"/>
      <point x="263" y="342"/>
      <point x="263" y="290" type="curve" smooth="yes"/>
      <point x="263" y="156" type="line" smooth="yes"/>
      <point x="263" y="145"/>
      <point x="267" y="112"/>
      <point x="239" y="112" type="curve" smooth="yes"/>
      <point x="239" y="-11" type="line"/>
      <point x="336" y="-11"/>
      <point x="385" y="64"/>
      <point x="385" y="156" type="curve" smooth="yes"/>
      <point x="385" y="290" type="line" smooth="yes"/>
      <point x="385" y="378"/>
      <point x="362" y="437"/>
      <point x="295" y="437" type="curve"/>
      <point x="238" y="432"/>
      <point x="207" y="376"/>
    </contour>
    <contour>
      <point x="802" y="474" type="line"/>
      <point x="841" y="453"/>
      <point x="872" y="395"/>
      <point x="872" y="303" type="curve" smooth="yes"/>
      <point x="872" y="162" type="line" smooth="yes"/>
      <point x="872" y="151"/>
      <point x="877" y="117"/>
      <point x="841" y="117" type="curve" smooth="yes"/>
      <point x="841" y="-5" type="line"/>
      <point x="945" y="-5"/>
      <point x="995" y="70"/>
      <point x="995" y="162" type="curve" smooth="yes"/>
      <point x="995" y="303" type="line" smooth="yes"/>
      <point x="995" y="483"/>
      <point x="898" y="590"/>
      <point x="802" y="596" type="curve"/>
    </contour>
  </outline>
</glyph>
<glyph name="tml_Zero" format="1">
  <advance width="623"/>
  <unicode hex="0BE6"/>
  <outline>
    <contour>
      <point x="330" y="655" type="curve" smooth="yes"/>
      <point x="330" y="544" type="line" smooth="yes"/>
      <point x="443" y="544"/>
      <point x="454" y="392"/>
      <point x="454" y="320" type="curve" smooth="yes"/>
      <point x="454" y="196"/>
      <point x="430" y="103"/>
      <point x="330" y="103" type="curve" smooth="yes"/>
      <point x="330" y="-20" type="line" smooth="yes"/>
      <point x="506" y="-20"/>
      <point x="582" y="164"/>
      <point x="582" y="320" type="curve" smooth="yes"/>
      <point x="582" y="449"/>
      <point x="512" y="655"/>
    </contour>
    <contour>
      <point x="282" y="655" type="line" smooth="yes"/>
      <point x="100" y="655"/>
      <point x="30" y="449"/>
      <point x="30" y="320" type="curve" smooth="yes"/>
      <point x="30" y="158"/>
      <point x="106" y="-20"/>
      <point x="282" y="-20" type="curve" smooth="yes"/>
      <point x="282" y="103" type="line" smooth="yes"/>
      <point x="182" y="103"/>
      <point x="158" y="196"/>
      <point x="158" y="320" type="curve" smooth="yes"/>
      <point x="158" y="392"/>
      <point x="169" y="544"/>
      <point x="282" y="544" type="curve" smooth="yes"/>
    </contour>
  </outline>
</glyph>
<glyph name="tml_Six" format="1">
  <advance width="1078"/>
  <unicode hex="0BEC"/>
  <outline>
    <contour>
      <point x="39" y="157" type="line" smooth="yes"/>
      <point x="39" y="68"/>
      <point x="112" y="0"/>
      <point x="269" y="-1" type="curve"/>
      <point x="269" y="122" type="line"/>
      <point x="180" y="122"/>
      <point x="160" y="127"/>
      <point x="160" y="188" type="curve" smooth="yes"/>
      <point x="160" y="239"/>
      <point x="174" y="249"/>
      <point x="238" y="249" type="curve" smooth="yes"/>
      <point x="1039" y="249" type="line"/>
      <point x="1039" y="371" type="line"/>
      <point x="235" y="371" type="line" smooth="yes"/>
      <point x="149" y="371"/>
      <point x="39" y="326"/>
      <point x="39" y="218" type="curve" smooth="yes"/>
    </contour>
    <contour>
      <point x="322" y="-1" type="line"/>
      <point x="489" y="-1"/>
      <point x="541" y="95"/>
      <point x="541" y="191" type="curve" smooth="yes"/>
      <point x="541" y="588" type="line"/>
      <point x="419" y="588" type="line"/>
      <point x="419" y="187" type="line" smooth="yes"/>
      <point x="419" y="141"/>
      <point x="388" y="122"/>
      <point x="322" y="122" type="curve"/>
    </contour>
    <contour>
      <point x="164" y="348" type="line"/>
      <point x="286" y="348" type="line"/>
      <point x="287" y="586" type="line"/>
      <point x="164" y="586" type="line"/>
    </contour>
    <contour>
      <point x="164" y="470" type="line"/>
      <point x="327" y="470" type="line"/>
      <point x="327" y="595" type="line"/>
      <point x="164" y="595" type="line"/>
    </contour>
    <contour>
      <point x="381" y="470" type="line"/>
      <point x="688" y="470" type="line"/>
      <point x="688" y="595" type="line"/>
      <point x="381" y="595" type="line"/>
    </contour>
    <contour>
      <point x="655" y="2" type="line"/>
      <point x="777" y="2" type="line"/>
      <point x="778" y="257" type="line"/>
      <point x="655" y="257" type="line"/>
    </contour>
    <contour>
      <point x="860" y="2" type="line"/>
      <point x="982" y="2" type="line"/>
      <point x="983" y="257" type="line"/>
      <point x="860" y="257" type="line"/>
    </contour>
  </outline>
</glyph>
<glyph name="tml_Nine" format="1">
  <advance width="977"/>
  <unicode hex="0BEF"/>
  <outline>
    <contour>
      <point x="555" y="249" type="line"/>
      <point x="728" y="249" type="line" smooth="yes"/>
      <point x="784" y="249"/>
      <point x="816" y="242"/>
      <point x="816" y="204" type="curve" smooth="yes"/>
      <point x="816" y="186"/>
      <point x="805" y="172"/>
      <point x="782" y="172" type="curve" smooth="yes"/>
      <point x="760" y="172"/>
      <point x="748" y="185"/>
      <point x="748" y="205" type="curve" smooth="yes"/>
      <point x="626" y="205" type="line"/>
      <point x="626" y="120"/>
      <point x="698" y="50"/>
      <point x="767" y="50" type="curve" smooth="yes"/>
      <point x="795" y="50" type="line" smooth="yes"/>
      <point x="850" y="50"/>
      <point x="938" y="101"/>
      <point x="938" y="205" type="curve" smooth="yes"/>
      <point x="938" y="215" type="line" smooth="yes"/>
      <point x="938" y="348"/>
      <point x="842" y="371"/>
      <point x="731" y="371" type="curve" smooth="yes"/>
      <point x="555" y="371" type="line"/>
    </contour>
    <contour>
      <point x="39" y="157" type="line" smooth="yes"/>
      <point x="39" y="68"/>
      <point x="112" y="0"/>
      <point x="269" y="-1" type="curve"/>
      <point x="269" y="122" type="line"/>
      <point x="180" y="122"/>
      <point x="160" y="127"/>
      <point x="160" y="188" type="curve" smooth="yes"/>
      <point x="160" y="239"/>
      <point x="174" y="249"/>
      <point x="238" y="249" type="curve" smooth="yes"/>
      <point x="643" y="249" type="line"/>
      <point x="643" y="371" type="line"/>
      <point x="235" y="371" type="line" smooth="yes"/>
      <point x="149" y="371"/>
      <point x="39" y="326"/>
      <point x="39" y="218" type="curve" smooth="yes"/>
    </contour>
    <contour>
      <point x="322" y="-1" type="line"/>
      <point x="489" y="-1"/>
      <point x="541" y="95"/>
      <point x="541" y="191" type="curve" smooth="yes"/>
      <point x="541" y="588" type="line"/>
      <point x="419" y="588" type="line"/>
      <point x="419" y="187" type="line" smooth="yes"/>
      <point x="419" y="141"/>
      <point x="388" y="122"/>
      <point x="322" y="122" type="curve"/>
    </contour>
    <contour>
      <point x="164" y="348" type="line"/>
      <point x="286" y="348" type="line"/>
      <point x="287" y="586" type="line"/>
      <point x="164" y="586" type="line"/>
    </contour>
    <contour>
      <point x="164" y="470" type="line"/>
      <point x="327" y="470" type="line"/>
      <point x="327" y="595" type="line"/>
      <point x="164" y="595" type="line"/>
    </contour>
    <contour>
      <point x="381" y="470" type="line"/>
      <point x="688" y="470" type="line"/>
      <point x="688" y="595" type="line"/>
      <point x="381" y="595" type="line"/>
    </contour>
  </outline>
</glyph>
<glyph name="tml_Ten" format="1">
  <advance width="744"/>
  <unicode hex="0BF0"/>
  <outline>
    <contour>
      <point x="457" y="729" type="line"/>
      <point x="559" y="595" type="line"/>
      <point x="681" y="595" type="line"/>
      <point x="580" y="729" type="line"/>
    </contour>
    <contour>
      <point x="520" y="0" type="line"/>
      <point x="650" y="0"/>
      <point x="680" y="97"/>
      <point x="681" y="145" type="curve" smooth="yes"/>
      <point x="681" y="595" type="line"/>
      <point x="559" y="595" type="line"/>
      <point x="559" y="145" type="line" smooth="yes"/>
      <point x="559" y="130"/>
      <point x="544" y="119"/>
      <point x="520" y="119" type="curve"/>
    </contour>
    <contour>
      <point x="52" y="146" type="line" smooth="yes"/>
      <point x="52" y="68"/>
      <point x="106" y="0"/>
      <point x="206" y="0" type="curve"/>
      <point x="206" y="119" type="line"/>
      <point x="180" y="119"/>
      <point x="174" y="132"/>
      <point x="174" y="146" type="curve" smooth="yes"/>
      <point x="174" y="595" type="line"/>
      <point x="52" y="595" type="line"/>
    </contour>
    <contour>
      <point x="260" y="0" type="line"/>
      <point x="309" y="0"/>
      <point x="340" y="0"/>
      <point x="364" y="33" type="curve"/>
      <point x="385" y="0"/>
      <point x="411" y="0"/>
      <point x="466" y="0" type="curve"/>
      <point x="466" y="119" type="line"/>
      <point x="437" y="119"/>
      <point x="426" y="132"/>
      <point x="426" y="145" type="curve" smooth="yes"/>
      <point x="426" y="595" type="line"/>
      <point x="305" y="595" type="line"/>
      <point x="305" y="145" type="line" smooth="yes"/>
      <point x="305" y="126"/>
      <point x="284" y="119"/>
      <point x="260" y="119" type="curve"/>
    </contour>
  </outline>
</glyph>
<glyph name="tml_Day" format="1">
  <advance width="972"/>
  <unicode hex="0BF3"/>
  <outline>
    <contour>
      <point x="266" y="0" type="line"/>
      <point x="375" y="0"/>
      <point x="436" y="89"/>
      <point x="435" y="152" type="curve" smooth="yes"/>
      <point x="435" y="224" type="line" smooth="yes"/>
      <point x="435" y="298"/>
      <point x="362" y="359"/>
      <point x="266" y="359" type="curve" smooth="yes"/>
      <point x="266" y="237" type="line"/>
      <point x="297" y="237"/>
      <point x="313" y="218"/>
      <point x="313" y="180" type="curve" smooth="yes"/>
      <point x="313" y="142"/>
      <point x="298" y="123"/>
      <point x="266" y="122" type="curve"/>
    </contour>
    <contour>
      <point x="39" y="151" type="line" smooth="yes"/>
      <point x="39" y="72"/>
      <point x="96" y="0"/>
      <point x="211" y="0" type="curve" smooth="yes"/>
      <point x="211" y="122" type="line"/>
      <point x="178" y="122"/>
      <point x="164" y="147"/>
      <point x="164" y="181" type="curve" smooth="yes"/>
      <point x="164" y="218"/>
      <point x="182" y="237"/>
      <point x="211" y="237" type="curve" smooth="yes"/>
      <point x="211" y="359" type="line"/>
      <point x="161" y="359"/>
      <point x="38" y="324"/>
      <point x="39" y="220" type="curve" smooth="yes"/>
    </contour>
    <contour>
      <point x="39" y="226" type="line"/>
      <point x="175" y="354" type="line" smooth="yes"/>
      <point x="177" y="439"/>
      <point x="236" y="483"/>
      <point x="300" y="483" type="curve"/>
      <point x="300" y="605" type="line"/>
      <point x="90" y="605"/>
      <point x="39" y="433"/>
      <point x="39" y="305" type="curve"/>
    </contour>
    <contour>
      <point x="351" y="483" type="line"/>
      <point x="428" y="483"/>
      <point x="486" y="423"/>
      <point x="487" y="354" type="curve"/>
      <point x="487" y="146" type="line" smooth="yes"/>
      <point x="487" y="127"/>
      <point x="461" y="124"/>
      <point x="454" y="123" type="curve"/>
      <point x="454" y="0" type="line"/>
      <point x="934" y="0" type="line"/>
      <point x="934" y="123" type="line"/>
      <point x="608" y="123" type="line"/>
      <point x="608" y="355" type="line"/>
      <point x="607" y="466"/>
      <point x="520" y="605"/>
      <point x="351" y="605" type="curve"/>
    </contour>
  </outline>
</glyph>
<glyph name="tml_Year" format="1">
  <advance width="1689"/>
  <unicode hex="0BF5"/>
  <outline>
    <contour>
      <point x="39" y="9" type="line" smooth="yes"/>
      <point x="39" y="-130"/>
      <point x="124" y="-198"/>
      <point x="233" y="-198" type="curve" smooth="yes"/>
      <point x="771" y="-198" type="line"/>
      <point x="771" y="-76" type="line"/>
      <point x="249" y="-76" type="line" smooth="yes"/>
      <point x="185" y="-76"/>
      <point x="162" y="-56"/>
      <point x="162" y="8" type="curve" smooth="yes"/>
      <point x="162" y="558" type="line" smooth="yes"/>
      <point x="162" y="594"/>
      <point x="165" y="650"/>
      <point x="239" y="650" type="curve"/>
      <point x="771" y="650" type="line"/>
      <point x="771" y="773" type="line"/>
      <point x="238" y="773" type="line"/>
      <point x="153" y="773"/>
      <point x="39" y="725"/>
      <point x="39" y="562" type="curve" smooth="yes"/>
    </contour>
    <contour>
      <point x="528" y="483" type="line"/>
      <point x="605" y="483"/>
      <point x="662" y="423"/>
      <point x="663" y="354" type="curve"/>
      <point x="663" y="146" type="line" smooth="yes"/>
      <point x="663" y="127"/>
      <point x="638" y="124"/>
      <point x="631" y="123" type="curve"/>
      <point x="631" y="0" type="line"/>
      <point x="877" y="0" type="line"/>
      <point x="877" y="123" type="line"/>
      <point x="784" y="123" type="line"/>
      <point x="784" y="355" type="line"/>
      <point x="783" y="466"/>
      <point x="697" y="605"/>
      <point x="528" y="605" type="curve"/>
    </contour>
    <contour>
      <point x="824" y="-76" type="line"/>
      <point x="824" y="-198" type="line"/>
      <point x="1370" y="-198" type="line" smooth="yes"/>
      <point x="1496" y="-198"/>
      <point x="1557" y="-103"/>
      <point x="1557" y="-36" type="curve" smooth="yes"/>
      <point x="1557" y="159" type="line" smooth="yes"/>
      <point x="1557" y="267"/>
      <point x="1455" y="304"/>
      <point x="1393" y="310" type="curve"/>
      <point x="1393" y="183" type="line"/>
      <point x="1415" y="183"/>
      <point x="1435" y="175"/>
      <point x="1435" y="125" type="curve" smooth="yes"/>
      <point x="1435" y="8" type="line" smooth="yes"/>
      <point x="1435" y="-35"/>
      <point x="1438" y="-76"/>
      <point x="1369" y="-76" type="curve" smooth="yes"/>
    </contour>
    <contour>
      <point x="216" y="151" type="line" smooth="yes"/>
      <point x="216" y="91"/>
      <point x="286" y="0"/>
      <point x="388" y="0" type="curve" smooth="yes"/>
      <point x="388" y="122" type="line"/>
      <point x="355" y="122"/>
      <point x="340" y="147"/>
      <point x="340" y="181" type="curve" smooth="yes"/>
      <point x="340" y="218"/>
      <point x="359" y="237"/>
      <point x="388" y="237" type="curve" smooth="yes"/>
      <point x="388" y="359" type="line"/>
      <point x="338" y="359"/>
      <point x="215" y="324"/>
      <point x="216" y="220" type="curve" smooth="yes"/>
    </contour>
    <contour>
      <point x="442" y="0" type="line"/>
      <point x="551" y="0"/>
      <point x="612" y="89"/>
      <point x="611" y="152" type="curve" smooth="yes"/>
      <point x="611" y="224" type="line" smooth="yes"/>
      <point x="611" y="276"/>
      <point x="538" y="359"/>
      <point x="442" y="359" type="curve" smooth="yes"/>
      <point x="442" y="237" type="line"/>
      <point x="473" y="237"/>
      <point x="490" y="218"/>
      <point x="490" y="180" type="curve" smooth="yes"/>
      <point x="490" y="142"/>
      <point x="474" y="123"/>
      <point x="442" y="122" type="curve"/>
    </contour>
    <contour>
      <point x="824" y="650" type="line" smooth="yes"/>
      <point x="1432" y="650" type="line" smooth="yes"/>
      <point x="1516" y="650"/>
      <point x="1485" y="572"/>
      <point x="1524" y="517" type="curve"/>
      <point x="1650" y="517" type="line"/>
      <point x="1599" y="569"/>
      <point x="1628" y="773"/>
      <point x="1432" y="773" type="curve" smooth="yes"/>
      <point x="824" y="773" type="line"/>
    </contour>
    <contour>
      <point x="216" y="226" type="line"/>
      <point x="352" y="354" type="line" smooth="yes"/>
      <point x="354" y="439"/>
      <point x="413" y="483"/>
      <point x="477" y="483" type="curve"/>
      <point x="477" y="605" type="line"/>
      <point x="267" y="605"/>
      <point x="216" y="433"/>
      <point x="216" y="305" type="curve"/>
    </contour>
    <contour>
      <point x="932" y="0" type="line"/>
      <point x="1054" y="0" type="line"/>
      <point x="1054" y="592" type="line"/>
      <point x="932" y="592" type="line"/>
    </contour>
    <contour>
      <point x="932" y="473" type="line"/>
      <point x="1111" y="473" type="line"/>
      <point x="1111" y="595" type="line"/>
      <point x="932" y="595" type="line"/>
    </contour>
    <contour>
      <point x="1216" y="0" type="line"/>
      <point x="1338" y="0" type="line"/>
      <point x="1338" y="593" type="line"/>
      <point x="1216" y="593" type="line"/>
    </contour>
    <contour>
      <point x="1164" y="473" type="line"/>
      <point x="1422" y="473" type="line"/>
      <point x="1422" y="595" type="line"/>
      <point x="1164" y="595" type="line"/>
    </contour>
  </outline>
</glyph>
<glyph name="tml_Debit" format="1">
  <advance width="706"/>
  <unicode hex="0BF6"/>
  <outline>
    <contour>
      <point x="255" y="-164" type="curve"/>
      <point x="255" y="-258" type="line"/>
      <point x="419" y="-258"/>
      <point x="423" y="-159"/>
      <point x="423" y="-81" type="curve" smooth="yes"/>
      <point x="423" y="18" type="line" smooth="yes"/>
      <point x="423" y="239" type="line" smooth="yes"/>
      <point x="301" y="239" type="line"/>
      <point x="301" y="21" type="line"/>
      <point x="301" y="-81" type="line" smooth="yes"/>
      <point x="301" y="-126"/>
      <point x="306" y="-164"/>
    </contour>
    <contour>
      <point x="39" y="-126" type="curve" smooth="yes"/>
      <point x="39" y="-159" type="line" smooth="yes"/>
      <point x="40" y="-254"/>
      <point x="156" y="-258"/>
      <point x="189" y="-258" type="curve" smooth="yes"/>
      <point x="202" y="-258" type="line"/>
      <point x="202" y="-164" type="line"/>
      <point x="189" y="-164" type="line" smooth="yes"/>
      <point x="151" y="-164"/>
      <point x="150" y="-121"/>
      <point x="190" y="-121" type="curve" smooth="yes"/>
      <point x="667" y="-121" type="line"/>
      <point x="667" y="381" type="line" smooth="yes"/>
      <point x="545" y="381" type="line" smooth="yes"/>
      <point x="545" y="-28" type="line"/>
      <point x="190" y="-28" type="line" smooth="yes"/>
      <point x="102" y="-28"/>
      <point x="39" y="-57"/>
    </contour>
    <contour>
      <point x="48" y="146" type="line" smooth="yes"/>
      <point x="48" y="68"/>
      <point x="102" y="0"/>
      <point x="202" y="0" type="curve"/>
      <point x="202" y="119" type="line"/>
      <point x="176" y="119"/>
      <point x="170" y="132"/>
      <point x="170" y="146" type="curve" smooth="yes"/>
      <point x="170" y="595" type="line"/>
      <point x="48" y="595" type="line"/>
    </contour>
    <contour>
      <point x="256" y="0" type="line"/>
      <point x="351" y="0"/>
      <point x="423" y="-10"/>
      <point x="423" y="145" type="curve" smooth="yes"/>
      <point x="423" y="487" type="line"/>
      <point x="301" y="487" type="line"/>
      <point x="301" y="145" type="line" smooth="yes"/>
      <point x="301" y="126"/>
      <point x="280" y="119"/>
      <point x="256" y="119" type="curve"/>
    </contour>
  </outline>
</glyph>
<glyph name="tml_Number" format="1">
  <advance width="1134"/>
  <unicode hex="0BFA"/>
  <outline>
    <contour>
      <point x="419" y="590" type="line" smooth="yes"/>
      <point x="407" y="640"/>
      <point x="429" y="688"/>
      <point x="480" y="688" type="curve" smooth="yes"/>
      <point x="480" y="688"/>
      <point x="480" y="810"/>
      <point x="480" y="810" type="curve"/>
      <point x="249" y="810"/>
      <point x="257" y="484"/>
      <point x="444" y="484" type="curve"/>
    </contour>
    <contour>
      <point x="921" y="654" type="curve" smooth="yes"/>
      <point x="921" y="778"/>
      <point x="844" y="808"/>
      <point x="754" y="808" type="curve" smooth="yes"/>
      <point x="530" y="808" type="line"/>
      <point x="530" y="688" type="line"/>
      <point x="750" y="688" type="line" smooth="yes"/>
      <point x="793" y="688"/>
      <point x="818" y="684"/>
      <point x="818" y="653" type="curve" smooth="yes"/>
      <point x="818" y="639"/>
      <point x="804" y="621"/>
      <point x="785" y="621" type="curve" smooth="yes"/>
      <point x="767" y="621"/>
      <point x="749" y="634"/>
      <point x="749" y="654" type="curve" smooth="yes"/>
      <point x="647" y="654" type="line"/>
      <point x="647" y="568"/>
      <point x="722" y="528"/>
      <point x="781" y="528" type="curve" smooth="yes"/>
      <point x="853" y="528"/>
      <point x="921" y="576"/>
    </contour>
    <contour>
      <point x="1118" y="600" type="curve"/>
      <point x="1118" y="703" type="line" smooth="yes"/>
      <point x="1053" y="705"/>
      <point x="1048" y="704"/>
      <point x="1048" y="745" type="curve" smooth="yes"/>
      <point x="1048" y="830" type="line" smooth="yes"/>
      <point x="1048" y="972"/>
      <point x="980" y="1037"/>
      <point x="834" y="1037" type="curve" smooth="yes"/>
      <point x="702" y="1037"/>
      <point x="646" y="936"/>
      <point x="646" y="826" type="curve" smooth="yes"/>
      <point x="749" y="826" type="line"/>
      <point x="749" y="892"/>
      <point x="773" y="932"/>
      <point x="834" y="932" type="curve" smooth="yes"/>
      <point x="896" y="932"/>
      <point x="945" y="908"/>
      <point x="945" y="830" type="curve" smooth="yes"/>
      <point x="945" y="745" type="line" smooth="yes"/>
      <point x="945" y="635"/>
      <point x="1025" y="600"/>
    </contour>
    <component base="tml_Na" xOffset="6"/>
  </outline>
</glyph>
<glyph name="si_A" format="1">
  <advance width="544"/>
  <unicode hex="0D85"/>
  <outline>
    <contour>
      <point x="312" y="-169" type="line"/>
      <point x="312" y="380" type="line" smooth="yes"/>
      <point x="312" y="466"/>
      <point x="338" y="529"/>
      <point x="484" y="579" type="curve"/>
      <point x="514" y="434" type="line"/>
      <point x="445.9" y="416.331"/>
      <point x="441.931" y="394.763"/>
      <point x="441.931" y="361.703" type="curve" smooth="yes"/>
      <point x="441.931" y="357.341"/>
      <point x="442" y="352.779"/>
      <point x="442" y="140" type="curve"/>
      <point x="494" y="140" type="line"/>
      <point x="494" y="0" type="line"/>
      <point x="442" y="0" type="line"/>
      <point x="442" y="-169" type="line"/>
    </contour>
    <contour>
      <point x="30" y="198" type="curve" smooth="yes"/>
      <point x="30" y="337.017"/>
      <point x="125.045" y="402"/>
      <point x="256" y="402" type="curve" smooth="yes"/>
      <point x="313" y="402" type="line"/>
      <point x="313" y="439.367"/>
      <point x="278.239" y="457.175"/>
      <point x="243.43" y="457.175" type="curve" smooth="yes"/>
      <point x="213.982" y="457.175"/>
      <point x="184.5" y="444.43"/>
      <point x="176" y="420" type="curve"/>
      <point x="58" y="459" type="line"/>
      <point x="79.418" y="539.204"/>
      <point x="157.76" y="577.97"/>
      <point x="238.147" y="577.97" type="curve" smooth="yes"/>
      <point x="338.48" y="577.97"/>
      <point x="442" y="517.58"/>
      <point x="442" y="402" type="curve" smooth="yes"/>
      <point x="442" y="263" type="line"/>
      <point x="256" y="263" type="line" smooth="yes"/>
      <point x="217" y="263"/>
      <point x="173" y="257.19"/>
      <point x="173" y="198" type="curve"/>
      <point x="173" y="146"/>
      <point x="220" y="136"/>
      <point x="257" y="136" type="curve" smooth="yes"/>
      <point x="257" y="136"/>
      <point x="257" y="136"/>
      <point x="257" y="136" type="curve" smooth="yes"/>
      <point x="257" y="0" type="line" smooth="yes"/>
      <point x="257" y="0"/>
      <point x="257" y="0"/>
      <point x="257" y="0" type="curve" smooth="yes"/>
      <point x="137" y="0"/>
      <point x="30" y="59.3916"/>
    </contour>
  </outline>
</glyph>
<glyph name="si_Oo" format="1">
  <advance width="606"/>
  <unicode hex="0D95"/>
  <outline>
    <contour>
      <point x="201" y="-8" type="curve" smooth="yes"/>
      <point x="100.471" y="-8"/>
      <point x="30" y="58"/>
      <point x="30" y="160" type="curve" smooth="yes"/>
      <point x="29.999" y="341.926" type="line" smooth="yes"/>
      <point x="29.999" y="428.354"/>
      <point x="98.7227" y="473.401"/>
      <point x="163.735" y="473.401" type="curve" smooth="yes"/>
      <point x="223.909" y="473.401"/>
      <point x="281" y="437.112"/>
      <point x="281" y="364" type="curve" smooth="yes"/>
      <point x="281" y="348" type="line" smooth="yes"/>
      <point x="281" y="336.714"/>
      <point x="288.716" y="331.107"/>
      <point x="296.45" y="331.107" type="curve" smooth="yes"/>
      <point x="304.216" y="331.107"/>
      <point x="312" y="336.763"/>
      <point x="312" y="348" type="curve" smooth="yes"/>
      <point x="312" y="469" type="line"/>
      <point x="404" y="469" type="line"/>
      <point x="404" y="340" type="line" smooth="yes"/>
      <point x="404" y="263.042"/>
      <point x="351.455" y="228.663"/>
      <point x="299.44" y="228.663" type="curve" smooth="yes"/>
      <point x="248.466" y="228.663"/>
      <point x="198" y="261.682"/>
      <point x="198" y="320" type="curve" smooth="yes"/>
      <point x="198" y="328" type="line" smooth="yes"/>
      <point x="198" y="341.306"/>
      <point x="190.157" y="348.08"/>
      <point x="182.361" y="348.08" type="curve" smooth="yes"/>
      <point x="174.658" y="348.08"/>
      <point x="167" y="340.999"/>
      <point x="167" y="328" type="curve" smooth="yes"/>
      <point x="167" y="169" type="line" smooth="yes"/>
      <point x="167" y="142.519"/>
      <point x="189.362" y="128.422"/>
      <point x="211.281" y="128.422" type="curve" smooth="yes"/>
      <point x="232.345" y="128.422"/>
      <point x="253" y="141.442"/>
      <point x="253" y="169" type="curve" smooth="yes"/>
      <point x="253" y="202" type="line"/>
      <point x="353" y="202" type="line"/>
      <point x="353" y="169" type="line" smooth="yes"/>
      <point x="353" y="141.527"/>
      <point x="373.698" y="128.511"/>
      <point x="394.786" y="128.511" type="curve" smooth="yes"/>
      <point x="416.683" y="128.511"/>
      <point x="439" y="142.563"/>
      <point x="439" y="169" type="curve" smooth="yes"/>
      <point x="439" y="203" type="line"/>
      <point x="576" y="203" type="line"/>
      <point x="576" y="160" type="line" smooth="yes"/>
      <point x="576" y="58.0483"/>
      <point x="505.529" y="-8"/>
      <point x="405" y="-8" type="curve" smooth="yes"/>
      <point x="372.921" y="-8"/>
      <point x="331.443" y="3.4668"/>
      <point x="303" y="35" type="curve"/>
      <point x="273.821" y="3.4668"/>
      <point x="232.759" y="-8"/>
    </contour>
    <contour>
      <point x="68.333" y="522" type="line"/>
      <point x="68.333" y="652" type="line"/>
      <point x="103.424" y="652" type="line"/>
      <point x="82.7832" y="668.999"/>
      <point x="73.9863" y="689.806"/>
      <point x="73.9863" y="710.889" type="curve" smooth="yes"/>
      <point x="73.9863" y="764.067"/>
      <point x="129.96" y="819"/>
      <point x="193" y="819" type="curve" smooth="yes"/>
      <point x="284" y="819" type="line"/>
      <point x="284" y="703" type="line"/>
      <point x="239" y="703" type="line" smooth="yes"/>
      <point x="210.062" y="703"/>
      <point x="203.742" y="688.847"/>
      <point x="203.742" y="676.362" type="curve" smooth="yes"/>
      <point x="203.742" y="661.503"/>
      <point x="217.065" y="652"/>
      <point x="239" y="652" type="curve" smooth="yes"/>
      <point x="348" y="652" type="line"/>
      <point x="348" y="522" type="line"/>
    </contour>
    <contour>
      <point x="439" y="203" type="line" smooth="yes"/>
      <point x="439" y="455" type="line" smooth="yes"/>
      <point x="439" y="513.936"/>
      <point x="397.736" y="522"/>
      <point x="348" y="522" type="curve"/>
      <point x="348" y="652" type="line"/>
      <point x="507.638" y="652"/>
      <point x="576" y="589.89"/>
      <point x="576" y="474" type="curve" smooth="yes"/>
      <point x="576" y="203" type="line" smooth="yes"/>
    </contour>
    <contour>
      <point x="431" y="673" type="line"/>
      <point x="431" y="700"/>
      <point x="406.333" y="703"/>
      <point x="361" y="703" type="curve" smooth="yes"/>
      <point x="340.5" y="703" type="line"/>
      <point x="340.5" y="819" type="line"/>
      <point x="393" y="819" type="line" smooth="yes"/>
      <point x="541.359" y="819"/>
      <point x="566.333" y="756"/>
      <point x="566.333" y="673" type="curve"/>
    </contour>
  </outline>
</glyph>
<glyph name="si_Gha" format="1">
  <advance width="687"/>
  <unicode hex="0D9D"/>
  <outline>
    <contour>
      <point x="230" y="-11" type="curve" smooth="yes"/>
      <point x="133.026" y="-11"/>
      <point x="67" y="55"/>
      <point x="67" y="157" type="curve" smooth="yes"/>
      <point x="67" y="199" type="line"/>
      <point x="206" y="199" type="line"/>
      <point x="206" y="166" type="line" smooth="yes"/>
      <point x="206" y="154"/>
      <point x="215" y="132"/>
      <point x="245" y="132" type="curve" smooth="yes"/>
      <point x="275" y="132"/>
      <point x="283" y="152.875"/>
      <point x="283" y="166" type="curve"/>
      <point x="283" y="180.669"/>
      <point x="290.158" y="204"/>
      <point x="317" y="204" type="curve" smooth="yes"/>
      <point x="407" y="204" type="line" smooth="yes"/>
      <point x="433.842" y="204"/>
      <point x="441" y="180.669"/>
      <point x="441" y="166" type="curve"/>
      <point x="441" y="152.875"/>
      <point x="449" y="132"/>
      <point x="479" y="132" type="curve" smooth="yes"/>
      <point x="509" y="132"/>
      <point x="518" y="154"/>
      <point x="518" y="166" type="curve" smooth="yes"/>
      <point x="518" y="199" type="line"/>
      <point x="657" y="199" type="line"/>
      <point x="657" y="157" type="line" smooth="yes"/>
      <point x="657" y="55"/>
      <point x="590.974" y="-11"/>
      <point x="494" y="-11" type="curve" smooth="yes"/>
      <point x="418.7" y="-11"/>
      <point x="387" y="21.4156"/>
      <point x="387" y="68" type="curve" smooth="yes"/>
      <point x="387" y="89.8078"/>
      <point x="374.492" y="100.723"/>
      <point x="361.987" y="100.723" type="curve" smooth="yes"/>
      <point x="349.492" y="100.723"/>
      <point x="337" y="89.8224"/>
      <point x="337" y="68" type="curve" smooth="yes"/>
      <point x="337" y="21.4156"/>
      <point x="305.3" y="-11"/>
    </contour>
    <contour>
      <point x="78" y="460" type="line"/>
      <point x="102.046" y="536.591"/>
      <point x="169.808" y="574.548"/>
      <point x="241.252" y="574.548" type="curve" smooth="yes"/>
      <point x="282.892" y="574.548"/>
      <point x="325.784" y="561.654"/>
      <point x="362" y="536" type="curve"/>
      <point x="398.253" y="561.68"/>
      <point x="441.124" y="574.564"/>
      <point x="482.73" y="574.564" type="curve" smooth="yes"/>
      <point x="554.221" y="574.564"/>
      <point x="621.975" y="536.524"/>
      <point x="646" y="460" type="curve"/>
      <point x="528" y="421" type="line"/>
      <point x="523.584" y="436"/>
      <point x="508.783" y="451"/>
      <point x="481" y="451" type="curve" smooth="yes"/>
      <point x="465.669" y="451"/>
      <point x="426" y="443.165"/>
      <point x="426" y="397" type="curve"/>
      <point x="426" y="378" type="line"/>
      <point x="298" y="378" type="line"/>
      <point x="298" y="397" type="line"/>
      <point x="298" y="443.165"/>
      <point x="258.331" y="451"/>
      <point x="243" y="451" type="curve" smooth="yes"/>
      <point x="215.217" y="451"/>
      <point x="200.416" y="436"/>
      <point x="196" y="421" type="curve"/>
    </contour>
    <contour>
      <point x="30" y="283" type="line"/>
      <point x="30" y="402" type="line"/>
      <point x="503" y="402" type="line" smooth="yes"/>
      <point x="565.36" y="402"/>
      <point x="657" y="391.937"/>
      <point x="657" y="279" type="curve" smooth="yes"/>
      <point x="657" y="251" type="line"/>
      <point x="518" y="251" type="line"/>
      <point x="518" y="251"/>
      <point x="518" y="251"/>
      <point x="518" y="251" type="curve" smooth="yes"/>
      <point x="518" y="266"/>
      <point x="509" y="283"/>
      <point x="481" y="283" type="curve" smooth="yes"/>
      <point x="246" y="283" type="line" smooth="yes"/>
      <point x="213" y="283"/>
      <point x="206" y="263"/>
      <point x="206" y="251" type="curve" smooth="yes"/>
      <point x="206" y="251"/>
      <point x="206" y="251"/>
      <point x="206" y="251" type="curve"/>
      <point x="67" y="251" type="line"/>
      <point x="67.1724" y="254.17"/>
      <point x="67.5094" y="264.734"/>
      <point x="68.4362" y="272.892" type="curve" smooth="yes"/>
      <point x="69.0206" y="278.038"/>
      <point x="69.8397" y="282.226"/>
      <point x="71" y="283" type="curve"/>
    </contour>
  </outline>
</glyph>
<glyph name="si_Ddha" format="1">
  <advance width="632"/>
  <unicode hex="0DAA"/>
  <outline>
    <contour>
      <point x="251" y="-8" type="curve" smooth="yes"/>
      <point x="145.768" y="-8"/>
      <point x="72" y="58"/>
      <point x="72" y="160" type="curve" smooth="yes"/>
      <point x="72" y="219" type="line"/>
      <point x="72" y="226"/>
      <point x="72" y="246"/>
      <point x="80" y="251" type="curve"/>
      <point x="30" y="251" type="line"/>
      <point x="30" y="353" type="line"/>
      <point x="281" y="353" type="line"/>
      <point x="281" y="388.333"/>
      <point x="259.721" y="399"/>
      <point x="239" y="399" type="curve" smooth="yes"/>
      <point x="229.146" y="399"/>
      <point x="203.972" y="396"/>
      <point x="199" y="375" type="curve"/>
      <point x="100" y="401" type="line"/>
      <point x="126.404" y="488.737"/>
      <point x="202.592" y="502"/>
      <point x="239" y="502" type="curve" smooth="yes"/>
      <point x="282.907" y="502"/>
      <point x="327.607" y="485.114"/>
      <point x="351" y="458" type="curve" smooth="yes"/>
      <point x="374.371" y="430.912"/>
      <point x="384" y="404.667"/>
      <point x="384" y="349" type="curve" smooth="yes"/>
      <point x="384" y="251" type="line"/>
      <point x="242" y="251" type="line"/>
      <point x="211.475" y="251"/>
      <point x="207" y="231"/>
      <point x="207" y="219" type="curve"/>
      <point x="207" y="166" type="line" smooth="yes"/>
      <point x="207" y="154"/>
      <point x="216" y="132"/>
      <point x="246" y="132" type="curve" smooth="yes"/>
      <point x="276" y="132"/>
      <point x="284" y="152.875"/>
      <point x="284" y="166" type="curve" smooth="yes"/>
      <point x="284" y="202" type="line"/>
      <point x="384" y="202" type="line"/>
      <point x="384" y="166" type="line" smooth="yes"/>
      <point x="384" y="152.875"/>
      <point x="392" y="132"/>
      <point x="422" y="132" type="curve" smooth="yes"/>
      <point x="452.769" y="132"/>
      <point x="462" y="154"/>
      <point x="462" y="166" type="curve" smooth="yes"/>
      <point x="462" y="202" type="line"/>
      <point x="602" y="202" type="line"/>
      <point x="602" y="160" type="line" smooth="yes"/>
      <point x="602" y="58"/>
      <point x="535.381" y="-8"/>
      <point x="443" y="-8" type="curve" smooth="yes"/>
      <point x="409.152" y="-8"/>
      <point x="367.925" y="3.4668"/>
      <point x="339" y="35" type="curve"/>
      <point x="315.108" y="3.4668"/>
      <point x="278.959" y="-8"/>
    </contour>
    <contour>
      <point x="287" y="617" type="curve" smooth="yes"/>
      <point x="287" y="755" type="line"/>
      <point x="367" y="755" type="line"/>
      <point x="501.273" y="755"/>
      <point x="602" y="700"/>
      <point x="602" y="517" type="curve" smooth="yes"/>
      <point x="602" y="202" type="line"/>
      <point x="462" y="202" type="line"/>
      <point x="462" y="498" type="line" smooth="yes"/>
      <point x="462" y="577"/>
      <point x="445.252" y="616"/>
      <point x="367" y="616" type="curve"/>
      <point x="367" y="616" type="line"/>
      <point x="367" y="563.071"/>
      <point x="392.652" y="547.238"/>
      <point x="426" y="540" type="curve"/>
      <point x="426" y="454" type="line"/>
      <point x="322.619" y="473.607"/>
      <point x="287" y="544.038"/>
    </contour>
  </outline>
</glyph>
<glyph name="si_Sha" format="1">
  <advance width="717"/>
  <unicode hex="0DC1"/>
  <outline>
    <contour>
      <point x="373" y="168" type="line"/>
      <point x="373" y="313.535"/>
      <point x="442.387" y="338"/>
      <point x="546" y="338" type="curve"/>
      <point x="546" y="235" type="line"/>
      <point x="495.681" y="235"/>
      <point x="461" y="219.289"/>
      <point x="461" y="169" type="curve"/>
    </contour>
    <contour>
      <point x="490" y="-8" type="curve"/>
      <point x="490" y="135" type="line"/>
      <point x="542.113" y="135"/>
      <point x="546" y="173.959"/>
      <point x="546" y="198" type="curve" smooth="yes"/>
      <point x="546" y="348" type="line" smooth="yes"/>
      <point x="546" y="375.857"/>
      <point x="542.113" y="421"/>
      <point x="490" y="421" type="curve"/>
      <point x="490" y="564" type="line"/>
      <point x="629.296" y="564"/>
      <point x="686.58" y="474.262"/>
      <point x="686.921" y="358" type="curve" smooth="yes"/>
      <point x="686.921" y="198" type="line" smooth="yes"/>
      <point x="686.58" y="81.7376"/>
      <point x="629.296" y="-8"/>
    </contour>
    <contour>
      <point x="227" y="-8" type="line"/>
      <point x="87.704" y="-8"/>
      <point x="30.4201" y="81.7376"/>
      <point x="30.0791" y="198" type="curve" smooth="yes"/>
      <point x="30.0791" y="358" type="line" smooth="yes"/>
      <point x="30.4201" y="474.262"/>
      <point x="87.704" y="564"/>
      <point x="227" y="564" type="curve"/>
      <point x="227" y="421" type="line"/>
      <point x="174.887" y="421"/>
      <point x="171" y="375.857"/>
      <point x="171" y="348" type="curve" smooth="yes"/>
      <point x="171" y="198" type="line" smooth="yes"/>
      <point x="171" y="173.959"/>
      <point x="174.887" y="135"/>
      <point x="227" y="135" type="curve"/>
    </contour>
    <contour>
      <point x="254" y="241" type="line"/>
      <point x="254" y="350" type="line" smooth="yes"/>
      <point x="254" y="468.007"/>
      <point x="290.062" y="564"/>
      <point x="434" y="564" type="curve"/>
      <point x="434" y="421" type="line"/>
      <point x="394.304" y="421"/>
      <point x="392.111" y="383.547"/>
      <point x="392.557" y="350.277" type="curve" smooth="yes"/>
      <point x="392.649" y="343.389"/>
      <point x="392.855" y="336.681"/>
      <point x="392.864" y="330.522" type="curve"/>
      <point x="392.864" y="330.522"/>
      <point x="392.864" y="330.522"/>
      <point x="392.864" y="330.522" type="curve" smooth="yes"/>
      <point x="442.744" y="317.203"/>
      <point x="457.226" y="266.376"/>
      <point x="460.543" y="195.94" type="curve" smooth="yes"/>
      <point x="460.844" y="189.549"/>
      <point x="461" y="182.905"/>
      <point x="461" y="176" type="curve" smooth="yes"/>
      <point x="461" y="48.4025"/>
      <point x="399.69" y="-8"/>
      <point x="283" y="-8" type="curve"/>
      <point x="283" y="135" type="line"/>
      <point x="335.527" y="135"/>
      <point x="337" y="170.963"/>
      <point x="337" y="188" type="curve" smooth="yes"/>
      <point x="337" y="230.064"/>
      <point x="316" y="241"/>
      <point x="288" y="241" type="curve" smooth="yes"/>
    </contour>
  </outline>
</glyph>
<glyph name="si_Ha" format="1">
  <advance width="716"/>
  <unicode hex="0DC4"/>
  <outline>
    <contour>
      <point x="391.844" y="344.25" type="curve"/>
      <point x="424.504" y="338.728"/>
      <point x="459.972" y="304.768"/>
      <point x="459.85" y="216" type="curve" smooth="yes"/>
      <point x="460" y="166" type="line" smooth="yes"/>
      <point x="460" y="45.3369"/>
      <point x="398.689" y="-8"/>
      <point x="282" y="-8" type="curve"/>
      <point x="282" y="135" type="line"/>
      <point x="334.527" y="135"/>
      <point x="336" y="170.963"/>
      <point x="336" y="188" type="curve" smooth="yes"/>
      <point x="336" y="204.457"/>
      <point x="334.626" y="238.572"/>
      <point x="287.191" y="240.877" type="curve" smooth="yes"/>
      <point x="253" y="241" type="line"/>
      <point x="253" y="350" type="line" smooth="yes"/>
      <point x="253" y="468.007"/>
      <point x="289.062" y="564"/>
      <point x="433" y="564" type="curve"/>
      <point x="433" y="421" type="line"/>
      <point x="391.035" y="421"/>
      <point x="391.359" y="381.885"/>
      <point x="391.763" y="352.649" type="curve" smooth="yes"/>
      <point x="391.803" y="349.735"/>
      <point x="391.844" y="346.919"/>
    </contour>
    <contour>
      <point x="489" y="-8" type="curve"/>
      <point x="489" y="135" type="line"/>
      <point x="541.112" y="135"/>
      <point x="545" y="173.959"/>
      <point x="545" y="198" type="curve" smooth="yes"/>
      <point x="545" y="348" type="line" smooth="yes"/>
      <point x="545" y="375.857"/>
      <point x="541.112" y="421"/>
      <point x="489" y="421" type="curve"/>
      <point x="489" y="564" type="line"/>
      <point x="628.296" y="564"/>
      <point x="685.58" y="474.263"/>
      <point x="685.921" y="358" type="curve" smooth="yes"/>
      <point x="685.921" y="198" type="line" smooth="yes"/>
      <point x="685.58" y="81.7373"/>
      <point x="628.296" y="-8"/>
    </contour>
    <contour>
      <point x="227" y="-8" type="line"/>
      <point x="87.7041" y="-8"/>
      <point x="30.0791" y="81.7373"/>
      <point x="30.0791" y="198" type="curve" smooth="yes"/>
      <point x="30.0791" y="238" type="line" smooth="yes"/>
      <point x="30.0791" y="339.386"/>
      <point x="83.8538" y="418.432"/>
      <point x="213" y="423.718" type="curve" smooth="yes"/>
      <point x="213" y="423.718"/>
      <point x="213" y="423.718"/>
      <point x="213" y="423.718" type="curve"/>
      <point x="213" y="449.08"/>
      <point x="200.563" y="461.951"/>
      <point x="170.15" y="461.951" type="curve" smooth="yes"/>
      <point x="152.244" y="461.951"/>
      <point x="134.712" y="454.054"/>
      <point x="131" y="437.352" type="curve"/>
      <point x="32" y="463.352" type="line"/>
      <point x="54.7783" y="532.349"/>
      <point x="114.161" y="563.617"/>
      <point x="172.772" y="563.617" type="curve" smooth="yes"/>
      <point x="244.971" y="563.617"/>
      <point x="316" y="516.172"/>
      <point x="316" y="433.352" type="curve" smooth="yes"/>
      <point x="316" y="281" type="line"/>
      <point x="227" y="281" type="line" smooth="yes"/>
      <point x="174.888" y="281"/>
      <point x="171" y="248.226"/>
      <point x="171" y="228" type="curve" smooth="yes"/>
      <point x="171" y="198" type="line" smooth="yes"/>
      <point x="171" y="173.959"/>
      <point x="174.888" y="135"/>
      <point x="227" y="135" type="curve"/>
    </contour>
  </outline>
</glyph>
<glyph name="si_MatraAae" format="1">
  <advance width="277"/>
  <unicode hex="0DD1"/>
  <outline>
    <contour>
      <point x="29.9893" y="216.358" type="line" smooth="yes"/>
      <point x="29.9893" y="249.529"/>
      <point x="30" y="262"/>
      <point x="74" y="302" type="curve"/>
      <point x="247" y="302" type="line"/>
      <point x="179" y="250"/>
      <point x="171" y="251.229"/>
      <point x="171" y="216" type="curve" smooth="yes"/>
      <point x="171" y="202" type="line" smooth="yes"/>
      <point x="171" y="153"/>
      <point x="201.803" y="143"/>
      <point x="226" y="143" type="curve" smooth="yes"/>
      <point x="234.854" y="143"/>
      <point x="242.681" y="143"/>
      <point x="247" y="143" type="curve"/>
      <point x="247" y="0" type="line"/>
      <point x="239.533" y="-0.00195312"/>
      <point x="232.23" y="-0.00292969"/>
      <point x="225.19" y="-0.00292969" type="curve" smooth="yes"/>
      <point x="118.365" y="-0.00292969"/>
      <point x="29.8538" y="49.6214"/>
      <point x="30" y="178" type="curve" smooth="yes"/>
    </contour>
    <contour>
      <point x="30" y="412" type="line"/>
      <point x="87" y="464" type="line"/>
      <point x="247" y="464" type="line"/>
      <point x="188" y="412" type="line"/>
    </contour>
    <contour>
      <point x="30" y="464" type="line"/>
      <point x="30" y="574" type="line"/>
      <point x="247" y="574" type="line"/>
      <point x="247" y="464" type="line"/>
    </contour>
    <contour>
      <point x="30" y="302" type="line"/>
      <point x="30" y="412" type="line"/>
      <point x="247" y="412" type="line"/>
      <point x="247" y="302" type="line"/>
    </contour>
  </outline>
</glyph>
<glyph name="si_MatraIi" format="1">
  <advance width="0"/>
  <unicode hex="0DD3"/>
  <outline>
    <contour>
      <point x="-168" y="553" type="curve" smooth="yes"/>
      <point x="-233" y="553"/>
      <point x="-286" y="606"/>
      <point x="-286" y="671" type="curve" smooth="yes"/>
      <point x="-286" y="736"/>
      <point x="-233" y="789"/>
      <point x="-168" y="789" type="curve" smooth="yes"/>
      <point x="-103" y="789"/>
      <point x="-50" y="736"/>
      <point x="-50" y="671" type="curve" smooth="yes"/>
      <point x="-50" y="606"/>
      <point x="-103" y="553"/>
    </contour>
    <contour>
      <point x="-609" y="602" type="line"/>
      <point x="-609" y="630" type="line" smooth="yes"/>
      <point x="-609" y="723.409"/>
      <point x="-532.253" y="789"/>
      <point x="-433" y="789" type="curve" smooth="yes"/>
      <point x="-168" y="789" type="line" smooth="yes"/>
      <point x="-104.024" y="789"/>
      <point x="-50" y="736.729"/>
      <point x="-50" y="671" type="curve"/>
      <point x="-204" y="622" type="line"/>
      <point x="-204" y="657.112"/>
      <point x="-219.143" y="659"/>
      <point x="-246" y="659" type="curve" smooth="yes"/>
      <point x="-417" y="659" type="line" smooth="yes"/>
      <point x="-443.857" y="659"/>
      <point x="-479" y="654.112"/>
      <point x="-479" y="602" type="curve"/>
    </contour>
  </outline>
</glyph>
<glyph name="endash" format="1">
  <advance width="532"/>
  <unicode hex="2013"/>
  <outline>
    <contour>
      <point x="26" y="230" type="line"/>
      <point x="26" y="357" type="line"/>
      <point x="506" y="357" type="line"/>
      <point x="506" y="230" type="line"/>
    </contour>
  </outline>
</glyph>
<glyph name="perthousand" format="1">
  <advance width="897"/>
  <unicode hex="2030"/>
  <outline>
    <contour>
      <point x="122" y="352" type="line"/>
      <point x="79" y="352"/>
      <point x="16" y="381"/>
      <point x="16" y="527" type="curve" smooth="yes"/>
      <point x="16" y="674"/>
      <point x="79" y="702"/>
      <point x="122" y="702" type="curve"/>
      <point x="122" y="625" type="line"/>
      <point x="94" y="619"/>
      <point x="93" y="578"/>
      <point x="93" y="533" type="curve" smooth="yes"/>
      <point x="93" y="522" type="line" smooth="yes"/>
      <point x="93" y="476"/>
      <point x="94" y="436"/>
      <point x="122" y="429" type="curve"/>
    </contour>
    <contour>
      <point x="149" y="352" type="curve"/>
      <point x="149" y="429" type="line"/>
      <point x="177" y="436"/>
      <point x="178" y="476"/>
      <point x="178" y="522" type="curve" smooth="yes"/>
      <point x="178" y="533" type="line" smooth="yes"/>
      <point x="178" y="578"/>
      <point x="177" y="619"/>
      <point x="149" y="625" type="curve"/>
      <point x="149" y="702" type="line"/>
      <point x="192" y="702"/>
      <point x="255" y="674"/>
      <point x="255" y="527" type="curve" smooth="yes"/>
      <point x="255" y="381"/>
      <point x="192" y="352"/>
    </contour>
    <contour>
      <point x="489" y="0" type="line"/>
      <point x="446" y="0"/>
      <point x="383" y="29"/>
      <point x="383" y="175" type="curve" smooth="yes"/>
      <point x="383" y="322"/>
      <point x="446" y="350"/>
      <point x="489" y="350" type="curve"/>
      <point x="489" y="273" type="line"/>
      <point x="461" y="267"/>
      <point x="460" y="226"/>
      <point x="460" y="181" type="curve" smooth="yes"/>
      <point x="460" y="170" type="line" smooth="yes"/>
      <point x="460" y="124"/>
      <point x="461" y="84"/>
      <point x="489" y="77" type="curve"/>
    </contour>
    <contour>
      <point x="516" y="0" type="curve"/>
      <point x="516" y="77" type="line"/>
      <point x="544" y="84"/>
      <point x="545" y="124"/>
      <point x="545" y="170" type="curve" smooth="yes"/>
      <point x="545" y="181" type="line" smooth="yes"/>
      <point x="545" y="226"/>
      <point x="544" y="267"/>
      <point x="516" y="273" type="curve"/>
      <point x="516" y="350" type="line"/>
      <point x="559" y="350"/>
      <point x="622" y="322"/>
      <point x="622" y="175" type="curve" smooth="yes"/>
      <point x="622" y="29"/>
      <point x="559" y="0"/>
    </contour>
    <contour>
      <point x="747" y="0" type="line"/>
      <point x="704" y="0"/>
      <point x="641" y="29"/>
      <point x="641" y="175" type="curve" smooth="yes"/>
      <point x="641" y="322"/>
      <point x="704" y="350"/>
      <point x="747" y="350" type="curve"/>
      <point x="747" y="273" type="line"/>
      <point x="719" y="267"/>
      <point x="718" y="226"/>
      <point x="718" y="181" type="curve" smooth="yes"/>
      <point x="718" y="170" type="line" smooth="yes"/>
      <point x="718" y="124"/>
      <point x="719" y="84"/>
      <point x="747" y="77" type="curve"/>
    </contour>
    <contour>
      <point x="774" y="0" type="curve"/>
      <point x="774" y="77" type="line"/>
      <point x="802" y="84"/>
      <point x="803" y="124"/>
      <point x="803" y="170" type="curve" smooth="yes"/>
      <point x="803" y="181" type="line" smooth="yes"/>
      <point x="803" y="226"/>
      <point x="802" y="267"/>
      <point x="774" y="273" type="curve"/>
      <point x="774" y="350" type="line"/>
      <point x="817" y="350"/>
      <point x="880" y="322"/>
      <point x="880" y="175" type="curve" smooth="yes"/>
      <point x="880" y="29"/>
      <point x="817" y="0"/>
    </contour>
    <contour>
      <point x="65" y="0" type="line"/>
      <point x="497" y="700" type="line"/>
      <point x="573" y="700" type="line"/>
      <point x="148" y="0" type="line"/>
    </contour>
  </outline>
</glyph>
<glyph name="guilsinglright" format="1">
  <advance width="338"/>
  <unicode hex="203A"/>
  <outline>
    <contour>
      <point x="26" y="79" type="line"/>
      <point x="157" y="292" type="line"/>
      <point x="26" y="500" type="line"/>
      <point x="181" y="500" type="line"/>
      <point x="312" y="292" type="line"/>
      <point x="181" y="79" type="line"/>
    </contour>
  </outline>
</glyph>
<glyph name="uni2126" format="1">
  <advance width="473"/>
  <unicode hex="2126"/>
  <outline>
    <contour>
      <point x="30" y="0" type="line"/>
      <point x="30" y="65" type="line"/>
      <point x="77" y="65" type="line"/>
      <point x="55" y="93"/>
      <point x="45" y="124"/>
      <point x="45" y="144" type="curve" smooth="yes"/>
      <point x="45" y="379" type="line" smooth="yes"/>
      <point x="45" y="429"/>
      <point x="96" y="519"/>
      <point x="209" y="519" type="curve"/>
      <point x="209" y="401" type="line"/>
      <point x="173" y="401"/>
      <point x="165" y="381"/>
      <point x="165" y="366" type="curve" smooth="yes"/>
      <point x="165" y="157" type="line" smooth="yes"/>
      <point x="165" y="134"/>
      <point x="174" y="120"/>
      <point x="209" y="120" type="curve"/>
      <point x="209" y="0" type="line"/>
    </contour>
    <contour>
      <point x="264" y="0" type="line"/>
      <point x="264" y="120" type="line"/>
      <point x="299" y="120"/>
      <point x="308" y="134"/>
      <point x="308" y="157" type="curve" smooth="yes"/>
      <point x="308" y="366" type="line" smooth="yes"/>
      <point x="308" y="381"/>
      <point x="300" y="401"/>
      <point x="264" y="401" type="curve"/>
      <point x="264" y="519" type="line"/>
      <point x="377" y="519"/>
      <point x="428" y="429"/>
      <point x="428" y="379" type="curve" smooth="yes"/>
      <point x="428" y="144" type="line" smooth="yes"/>
      <point x="428" y="124"/>
      <point x="418" y="93"/>
      <point x="396" y="65" type="curve"/>
      <point x="443" y="65" type="line"/>
      <point x="443" y="0" type="line"/>
    </contour>
  </outline>
</glyph>
<glyph name="mooniak" format="1">
  <advance width="952"/>
  <outline>
    <contour>
      <point x="693" y="606" type="curve" smooth="yes"/>
      <point x="693" y="669"/>
      <point x="744" y="720"/>
      <point x="807" y="720" type="curve" smooth="yes"/>
      <point x="870" y="720"/>
      <point x="921" y="669"/>
      <point x="921" y="606" type="curve" smooth="yes"/>
      <point x="921" y="543"/>
      <point x="870" y="492"/>
      <point x="807" y="492" type="curve" smooth="yes"/>
      <point x="744" y="492"/>
      <point x="693" y="543"/>
    </contour>
    <contour>
      <point x="30" y="401" type="curve" smooth="yes"/>
      <point x="30" y="575"/>
      <point x="171" y="716"/>
      <point x="345" y="716" type="curve" smooth="yes"/>
      <point x="519" y="716"/>
      <point x="660" y="575"/>
      <point x="660" y="401" type="curve" smooth="yes"/>
      <point x="660" y="227"/>
      <point x="519" y="86"/>
      <point x="345" y="86" type="curve" smooth="yes"/>
      <point x="171" y="86"/>
      <point x="30" y="227"/>
    </contour>
  </outline>
</glyph>
<glyph name="si_BRa" format="1">
  <advance width="609"/>
  <outline>
    <contour>
      <point x="333.115" y="-233.947" type="curve"/>
      <point x="333" y="-103" type="line"/>
      <point x="424.318" y="-103"/>
      <point x="449.569" y="-65.9157"/>
      <point x="449.569" y="-36.2508" type="curve" smooth="yes"/>
      <point x="449.569" y="-16.4771"/>
      <point x="438.35" y="0"/>
      <point x="428" y="0" type="curve"/>
      <point x="561" y="89" type="line"/>
      <point x="582.585" y="52.1758"/>
      <point x="593.284" y="12.8215"/>
      <point x="593.284" y="-25.2973" type="curve" smooth="yes"/>
      <point x="593.284" y="-134.712"/>
      <point x="505.131" y="-233.947"/>
    </contour>
    <contour>
      <point x="278.115" y="-233.947" type="line"/>
      <point x="144" y="-234"/>
      <point x="30.833" y="-167.027"/>
      <point x="30.833" y="-37.0908" type="curve"/>
      <point x="171.833" y="-37.0908" type="line"/>
      <point x="171.833" y="-72.625"/>
      <point x="209.901" y="-103"/>
      <point x="278" y="-103" type="curve"/>
    </contour>
    <component base="si_Ba"/>
  </outline>
</glyph>
<glyph name="si_BUu" format="1">
  <advance width="609"/>
  <outline>
    <contour>
      <point x="56" y="-39" type="line"/>
      <point x="82.334" y="-58.333"/>
      <point x="129.444" y="-64.7773"/>
      <point x="150.741" y="-64.7773" type="curve" smooth="yes"/>
      <point x="193.334" y="-64.7773"/>
      <point x="228.667" y="-42"/>
      <point x="268" y="-42" type="curve"/>
      <point x="268" y="-182" type="line"/>
      <point x="228.667" y="-182"/>
      <point x="193.334" y="-204.777"/>
      <point x="150.741" y="-204.777" type="curve" smooth="yes"/>
      <point x="129.444" y="-204.777"/>
      <point x="82.334" y="-198.333"/>
      <point x="56" y="-179" type="curve"/>
    </contour>
    <contour>
      <point x="324" y="-42" type="line"/>
      <point x="341" y="-42"/>
      <point x="400.148" y="-46.167"/>
      <point x="423" y="-61" type="curve"/>
      <point x="423" y="-205" type="line"/>
      <point x="397.106" y="-186.639"/>
      <point x="345" y="-182"/>
      <point x="324" y="-182" type="curve"/>
    </contour>
    <contour>
      <point x="423" y="123" type="line"/>
      <point x="563" y="123" type="line"/>
      <point x="563" y="-205" type="line"/>
      <point x="423" y="-205" type="line"/>
    </contour>
    <component base="si_Ba"/>
  </outline>
</glyph>
<glyph name="si_BhU" format="1">
  <advance width="754"/>
  <outline>
    <contour>
      <point x="702.19" y="-205.003" type="curve" smooth="yes"/>
      <point x="595.365" y="-205.003"/>
      <point x="506.854" y="-155.937"/>
      <point x="507" y="-29" type="curve" smooth="yes"/>
      <point x="507" y="19" type="line" smooth="yes"/>
      <point x="506.854" y="147.379"/>
      <point x="595.365" y="197.003"/>
      <point x="702.19" y="197.003" type="curve" smooth="yes"/>
      <point x="709.229" y="197.003"/>
      <point x="716.533" y="197.002"/>
      <point x="724" y="197" type="curve"/>
      <point x="724" y="54" type="line"/>
      <point x="719.681" y="54"/>
      <point x="711.854" y="54"/>
      <point x="703" y="54" type="curve" smooth="yes"/>
      <point x="679.141" y="54"/>
      <point x="648.857" y="44.0752"/>
      <point x="648.018" y="-2.98438" type="curve" smooth="yes"/>
      <point x="648.022" y="-7.23535" type="line" smooth="yes"/>
      <point x="648.951" y="-54.1064"/>
      <point x="679.178" y="-64"/>
      <point x="703" y="-64" type="curve" smooth="yes"/>
      <point x="711.854" y="-64"/>
      <point x="719.681" y="-64"/>
      <point x="724" y="-64" type="curve"/>
      <point x="724" y="-205" type="line"/>
      <point x="716.533" y="-205.002"/>
      <point x="709.229" y="-205.003"/>
    </contour>
    <contour>
      <point x="583" y="138" type="line" smooth="yes"/>
      <point x="583" y="348" type="line" smooth="yes"/>
      <point x="583" y="375.857"/>
      <point x="579.112" y="421"/>
      <point x="527" y="421" type="curve"/>
      <point x="527" y="564" type="line"/>
      <point x="666.296" y="564"/>
      <point x="723.58" y="474.263"/>
      <point x="723.921" y="358" type="curve" smooth="yes"/>
      <point x="723.921" y="138" type="line" smooth="yes"/>
    </contour>
    <contour>
      <point x="429.844" y="344.25" type="curve"/>
      <point x="462.504" y="338.728"/>
      <point x="497.972" y="304.767"/>
      <point x="497.85" y="216" type="curve" smooth="yes"/>
      <point x="498" y="166" type="line" smooth="yes"/>
      <point x="498" y="45.3369"/>
      <point x="436.689" y="-8"/>
      <point x="320" y="-8" type="curve"/>
      <point x="320" y="135" type="line"/>
      <point x="372.527" y="135"/>
      <point x="374" y="170.963"/>
      <point x="374" y="188" type="curve" smooth="yes"/>
      <point x="374" y="204.457"/>
      <point x="372.626" y="238.572"/>
      <point x="325.191" y="240.877" type="curve" smooth="yes"/>
      <point x="291" y="241" type="line"/>
      <point x="291" y="350" type="line" smooth="yes"/>
      <point x="291" y="468.007"/>
      <point x="327.062" y="564"/>
      <point x="471" y="564" type="curve"/>
      <point x="471" y="421" type="line"/>
      <point x="428.201" y="421"/>
      <point x="429.389" y="380.318"/>
      <point x="429.787" y="350.92" type="curve" smooth="yes"/>
      <point x="429.818" y="348.62"/>
      <point x="429.844" y="346.388"/>
    </contour>
    <contour>
      <point x="265" y="-8" type="line"/>
      <point x="125.704" y="-8"/>
      <point x="68.4199" y="81.7373"/>
      <point x="68.0791" y="198" type="curve" smooth="yes"/>
      <point x="68.0791" y="254" type="line" smooth="yes"/>
      <point x="68.1367" y="268.984"/>
      <point x="70.3662" y="283.395"/>
      <point x="74.6035" y="297" type="curve"/>
      <point x="30" y="297" type="line"/>
      <point x="30" y="415" type="line"/>
      <point x="241" y="415" type="line"/>
      <point x="241" y="445.826"/>
      <point x="229.426" y="461.951"/>
      <point x="198.15" y="461.951" type="curve" smooth="yes"/>
      <point x="180.244" y="461.951"/>
      <point x="162.712" y="454.054"/>
      <point x="159" y="437.352" type="curve"/>
      <point x="60" y="463.352" type="line"/>
      <point x="82.7783" y="532.349"/>
      <point x="142.161" y="563.617"/>
      <point x="200.772" y="563.617" type="curve" smooth="yes"/>
      <point x="272.971" y="563.617"/>
      <point x="344" y="516.171"/>
      <point x="344" y="433.352" type="curve" smooth="yes"/>
      <point x="344" y="297" type="line"/>
      <point x="265" y="297" type="line" smooth="yes"/>
      <point x="212.888" y="297"/>
      <point x="209" y="263.607"/>
      <point x="209" y="243" type="curve" smooth="yes"/>
      <point x="209" y="199" type="line" smooth="yes"/>
      <point x="209" y="174.577"/>
      <point x="212.888" y="135"/>
      <point x="265" y="135" type="curve"/>
    </contour>
  </outline>
</glyph>
<glyph name="si_BhUu" format="1">
  <advance width="754"/>
  <outline>
    <contour>
      <point x="682.19" y="-205.003" type="line" smooth="yes"/>
      <point x="626.065" y="-205.003"/>
      <point x="550" y="-162.81"/>
      <point x="550" y="-75" type="curve" smooth="yes"/>
      <point x="549.945" y="-31" type="line" smooth="yes"/>
      <point x="549.908" y="-1.08691"/>
      <point x="551.839" y="5"/>
      <point x="563" y="20" type="curve"/>
      <point x="527" y="20" type="line"/>
      <point x="527" y="90" type="line"/>
      <point x="594" y="132" type="line"/>
      <point x="527" y="132" type="line"/>
      <point x="527" y="202" type="line"/>
      <point x="764" y="202" type="line"/>
      <point x="764" y="132" type="line"/>
      <point x="697" y="90" type="line"/>
      <point x="764" y="90" type="line"/>
      <point x="764" y="20" type="line"/>
      <point x="749" y="20"/>
      <point x="719" y="20"/>
      <point x="719" y="20" type="curve" smooth="yes"/>
      <point x="699.47" y="20"/>
      <point x="690" y="11.3271"/>
      <point x="690" y="-18" type="curve" smooth="yes"/>
      <point x="689.844" y="-47" type="line" smooth="yes"/>
      <point x="689.964" y="-66.833"/>
      <point x="700.775" y="-75"/>
      <point x="723" y="-75" type="curve" smooth="yes"/>
      <point x="754" y="-75" type="line"/>
      <point x="754" y="-205" type="line"/>
    </contour>
    <contour>
      <point x="527" y="202" type="line"/>
      <point x="567.533" y="202"/>
      <point x="582.883" y="217.158"/>
      <point x="583" y="249.254" type="curve" smooth="yes"/>
      <point x="583" y="282.169"/>
      <point x="583" y="315.085"/>
      <point x="583" y="348" type="curve" smooth="yes"/>
      <point x="583" y="375.857"/>
      <point x="579.112" y="421"/>
      <point x="527" y="421" type="curve"/>
      <point x="527" y="564" type="line"/>
      <point x="666.296" y="564"/>
      <point x="723.58" y="474.263"/>
      <point x="723.921" y="358" type="curve" smooth="yes"/>
      <point x="723.921" y="249" type="line"/>
      <point x="724.021" y="236.393"/>
      <point x="723.555" y="214"/>
      <point x="714" y="202" type="curve"/>
    </contour>
    <contour>
      <point x="429.844" y="344.25" type="curve"/>
      <point x="462.504" y="338.728"/>
      <point x="497.972" y="304.767"/>
      <point x="497.85" y="216" type="curve" smooth="yes"/>
      <point x="498" y="166" type="line" smooth="yes"/>
      <point x="498" y="45.3369"/>
      <point x="436.689" y="-8"/>
      <point x="320" y="-8" type="curve"/>
      <point x="320" y="135" type="line"/>
      <point x="372.527" y="135"/>
      <point x="374" y="170.963"/>
      <point x="374" y="188" type="curve" smooth="yes"/>
      <point x="374" y="204.457"/>
      <point x="372.626" y="238.572"/>
      <point x="325.191" y="240.877" type="curve" smooth="yes"/>
      <point x="291" y="241" type="line"/>
      <point x="291" y="350" type="line" smooth="yes"/>
      <point x="291" y="468.007"/>
      <point x="327.062" y="564"/>
      <point x="471" y="564" type="curve"/>
      <point x="471" y="421" type="line"/>
      <point x="428.201" y="421"/>
      <point x="429.389" y="380.318"/>
      <point x="429.787" y="350.92" type="curve" smooth="yes"/>
      <point x="429.818" y="348.62"/>
      <point x="429.844" y="346.388"/>
    </contour>
    <contour>
      <point x="265" y="-8" type="line"/>
      <point x="125.704" y="-8"/>
      <point x="68.4199" y="81.7373"/>
      <point x="68.0791" y="198" type="curve" smooth="yes"/>
      <point x="68.0791" y="254" type="line" smooth="yes"/>
      <point x="68.1367" y="268.984"/>
      <point x="70.3662" y="283.395"/>
      <point x="74.6035" y="297" type="curve"/>
      <point x="30" y="297" type="line"/>
      <point x="30" y="415" type="line"/>
      <point x="241" y="415" type="line"/>
      <point x="241" y="445.826"/>
      <point x="229.426" y="461.951"/>
      <point x="198.15" y="461.951" type="curve" smooth="yes"/>
      <point x="180.244" y="461.951"/>
      <point x="162.712" y="454.054"/>
      <point x="159" y="437.352" type="curve"/>
      <point x="60" y="463.352" type="line"/>
      <point x="82.7783" y="532.349"/>
      <point x="142.161" y="563.617"/>
      <point x="200.772" y="563.617" type="curve" smooth="yes"/>
      <point x="272.971" y="563.617"/>
      <point x="344" y="516.171"/>
      <point x="344" y="433.352" type="curve" smooth="yes"/>
      <point x="344" y="297" type="line"/>
      <point x="265" y="297" type="line" smooth="yes"/>
      <point x="212.888" y="297"/>
      <point x="209" y="263.607"/>
      <point x="209" y="243" type="curve" smooth="yes"/>
      <point x="209" y="199" type="line" smooth="yes"/>
      <point x="209" y="174.577"/>
      <point x="212.888" y="135"/>
      <point x="265" y="135" type="curve"/>
    </contour>
  </outline>
</glyph>
<glyph name="si_C.halant" format="1">
  <advance width="601"/>
  <outline>
    <contour>
      <point x="30" y="252" type="line"/>
      <point x="30" y="354" type="line"/>
      <point x="247" y="354" type="line"/>
      <point x="247" y="360" type="line"/>
      <point x="247.053" y="389.333"/>
      <point x="225.721" y="400"/>
      <point x="205" y="400" type="curve" smooth="yes"/>
      <point x="195.147" y="400"/>
      <point x="169.971" y="397"/>
      <point x="165" y="376" type="curve"/>
      <point x="66" y="402" type="line"/>
      <point x="92.4043" y="489.737"/>
      <point x="168.592" y="503"/>
      <point x="205" y="503" type="curve" smooth="yes"/>
      <point x="248.907" y="503"/>
      <point x="293.606" y="486.114"/>
      <point x="317" y="459" type="curve" smooth="yes"/>
      <point x="340.371" y="431.912"/>
      <point x="350" y="406"/>
      <point x="350" y="350" type="curve" smooth="yes"/>
      <point x="350" y="252" type="line"/>
      <point x="266" y="252" type="line" smooth="yes"/>
      <point x="228.72" y="252"/>
      <point x="207.981" y="224.45"/>
      <point x="207.981" y="196.088" type="curve" smooth="yes"/>
      <point x="207.981" y="166.001"/>
      <point x="231.318" y="135"/>
      <point x="283" y="135" type="curve"/>
      <point x="283" y="-5" type="line"/>
      <point x="155.558" y="-5"/>
      <point x="69" y="87.2324"/>
      <point x="69" y="192" type="curve" smooth="yes"/>
      <point x="69" y="212.029"/>
      <point x="69.5166" y="232.24"/>
      <point x="80.3096" y="252" type="curve"/>
    </contour>
    <contour>
      <point x="89.333" y="522" type="line"/>
      <point x="89.333" y="652" type="line"/>
      <point x="123.139" y="652" type="line" smooth="yes"/>
      <point x="109.304" y="655.164"/>
      <point x="95.0303" y="679.233"/>
      <point x="95.0303" y="707.438" type="curve" smooth="yes"/>
      <point x="95.0303" y="776.564"/>
      <point x="163.127" y="814.373"/>
      <point x="263.675" y="818.602" type="curve" smooth="yes"/>
      <point x="269.991" y="818.867"/>
      <point x="276.436" y="819"/>
      <point x="283" y="819" type="curve"/>
      <point x="283" y="703" type="line"/>
      <point x="260" y="703" type="line" smooth="yes"/>
      <point x="231.062" y="703"/>
      <point x="224.742" y="688.847"/>
      <point x="224.742" y="676.362" type="curve" smooth="yes"/>
      <point x="224.742" y="661.503"/>
      <point x="238.065" y="652"/>
      <point x="260" y="652" type="curve" smooth="yes"/>
      <point x="339" y="652" type="line"/>
      <point x="339" y="522" type="line"/>
    </contour>
    <contour>
      <point x="339.333" y="-5" type="curve"/>
      <point x="339.333" y="135" type="line"/>
      <point x="420.333" y="135"/>
      <point x="430.333" y="183.181"/>
      <point x="430.333" y="255" type="curve" smooth="yes"/>
      <point x="430.333" y="455" type="line" smooth="yes"/>
      <point x="430.333" y="513.936"/>
      <point x="388.736" y="522"/>
      <point x="339" y="522" type="curve"/>
      <point x="339" y="652" type="line"/>
      <point x="498.638" y="652"/>
      <point x="570.333" y="589.89"/>
      <point x="570.333" y="474" type="curve" smooth="yes"/>
      <point x="570.333" y="238" type="line" smooth="yes"/>
      <point x="570.333" y="138.591"/>
      <point x="535.333" y="-5"/>
    </contour>
    <contour>
      <point x="338.5" y="703" type="line"/>
      <point x="338.5" y="819" type="line"/>
      <point x="384" y="819" type="line" smooth="yes"/>
      <point x="532.359" y="819"/>
      <point x="557.333" y="756"/>
      <point x="557.333" y="673" type="curve"/>
      <point x="422" y="673" type="line"/>
      <point x="422" y="700"/>
      <point x="397.333" y="703"/>
      <point x="352" y="703" type="curve" smooth="yes"/>
    </contour>
  </outline>
</glyph>
<glyph name="si_DdRa" format="1">
  <advance width="632"/>
  <outline>
    <contour>
      <point x="366.115" y="-233.947" type="curve"/>
      <point x="366" y="-103" type="line"/>
      <point x="454.74" y="-103"/>
      <point x="479.39" y="-67.9805"/>
      <point x="479.39" y="-38.7807" type="curve" smooth="yes"/>
      <point x="479.39" y="-17.9028"/>
      <point x="466.788" y="-3.55271e-15"/>
      <point x="456" y="0" type="curve"/>
      <point x="589" y="89" type="line"/>
      <point x="611.092" y="51.311"/>
      <point x="622.131" y="10.9717"/>
      <point x="622.131" y="-27.9808" type="curve" smooth="yes"/>
      <point x="622.131" y="-136.329"/>
      <point x="536.723" y="-233.947"/>
    </contour>
    <contour>
      <point x="311.115" y="-233.947" type="line"/>
      <point x="177" y="-234"/>
      <point x="62.833" y="-167.027"/>
      <point x="62.833" y="-37.0908" type="curve"/>
      <point x="203.833" y="-37.0908" type="line"/>
      <point x="203.833" y="-72.625"/>
      <point x="242.901" y="-103"/>
      <point x="311" y="-103" type="curve"/>
    </contour>
    <component base="si_Dda"/>
  </outline>
</glyph>
<glyph name="si_HRa" format="1">
  <advance width="716"/>
  <outline>
    <contour>
      <point x="388" y="-103" type="line"/>
      <point x="397" y="-103" type="line" smooth="yes"/>
      <point x="545" y="-103"/>
      <point x="546.25" y="0"/>
      <point x="521" y="0" type="curve"/>
      <point x="654" y="89" type="line"/>
      <point x="725.992" y="-37.9238"/>
      <point x="635" y="-234"/>
      <point x="425" y="-234" type="curve" smooth="yes"/>
      <point x="388.115" y="-233.947" type="line"/>
    </contour>
    <contour>
      <point x="333.115" y="-233.947" type="line"/>
      <point x="305" y="-234" type="line" smooth="yes"/>
      <point x="180" y="-234"/>
      <point x="55.833" y="-165.25"/>
      <point x="55.833" y="-37.0908" type="curve"/>
      <point x="196.833" y="-37.0908" type="line"/>
      <point x="196.833" y="-72.5898"/>
      <point x="249" y="-103"/>
      <point x="313" y="-103" type="curve" smooth="yes"/>
      <point x="333" y="-103" type="line"/>
    </contour>
    <component base="si_Ha"/>
  </outline>
</glyph>
<glyph name="si_JIi" format="1">
  <advance width="653"/>
  <outline>
    <contour>
      <point x="310.498" y="590.985" type="line"/>
      <point x="299.247" y="599.581" type="line" smooth="yes"/>
      <point x="243.578" y="642.112"/>
      <point x="227.363" y="703.3"/>
      <point x="272" y="762" type="curve" smooth="yes"/>
      <point x="344.44" y="856.128" type="line" smooth="yes"/>
      <point x="373.679" y="894.119"/>
      <point x="429.193" y="902.885"/>
      <point x="468.447" y="873.064" type="curve" smooth="yes"/>
      <point x="504.731" y="846.447"/>
      <point x="512.465" y="796.127"/>
      <point x="485.849" y="759.843" type="curve" smooth="yes"/>
      <point x="464.682" y="730.988"/>
      <point x="415.897" y="725.909"/>
      <point x="392.688" y="742.935" type="curve" smooth="yes"/>
      <point x="390.074" y="744.853"/>
      <point x="387.786" y="747.05"/>
      <point x="385.896" y="749.524" type="curve"/>
      <point x="369.036" y="727.402" type="line" smooth="yes"/>
      <point x="357.431" y="712.175"/>
      <point x="338.355" y="692.265"/>
      <point x="369.478" y="668.623" type="curve"/>
    </contour>
    <component base="si_Ja"/>
  </outline>
</glyph>
<glyph name="si_Ja.reph" format="1">
  <advance width="653"/>
  <outline>
    <contour>
      <point x="245.047" y="587.853" type="curve" smooth="yes"/>
      <point x="166.138" y="587.853"/>
      <point x="129.232" y="644.237"/>
      <point x="129.232" y="701.31" type="curve" smooth="yes"/>
      <point x="129.232" y="759.794"/>
      <point x="167.984" y="819"/>
      <point x="240" y="819" type="curve" smooth="yes"/>
      <point x="341" y="819" type="line" smooth="yes"/>
      <point x="421.645" y="819"/>
      <point x="463" y="771.21"/>
      <point x="463" y="699.75" type="curve" smooth="yes"/>
      <point x="463.047" y="617.75" type="line"/>
      <point x="375.047" y="617.853" type="line"/>
      <point x="375.047" y="678.853" type="line"/>
      <point x="375.047" y="717.937"/>
      <point x="354.439" y="720.103"/>
      <point x="318.297" y="720.853" type="curve"/>
      <point x="243.047" y="720.853" type="line" smooth="yes"/>
      <point x="230.047" y="720.853"/>
      <point x="219.047" y="709.853"/>
      <point x="219.047" y="696.853" type="curve" smooth="yes"/>
      <point x="219.047" y="683.853"/>
      <point x="230.047" y="672.853"/>
      <point x="243.047" y="672.853" type="curve" smooth="yes"/>
      <point x="256.047" y="672.853"/>
      <point x="267.047" y="683.853"/>
      <point x="267.047" y="696.853" type="curve"/>
      <point x="348.047" y="696.853" type="line"/>
      <point x="348.047" y="646.985"/>
      <point x="330.01" y="587.853"/>
    </contour>
    <component base="si_Ja"/>
  </outline>
</glyph>
<glyph name="si_JhRIi" format="1">
  <advance width="1138"/>
  <outline>
    <contour>
      <point x="876.115" y="-233.947" type="curve"/>
      <point x="876" y="-103" type="line"/>
      <point x="945.996" y="-103"/>
      <point x="979.402" y="-69.8561"/>
      <point x="979.402" y="-41.5412" type="curve" smooth="yes"/>
      <point x="979.402" y="-20.4281"/>
      <point x="960.828" y="-2"/>
      <point x="925" y="-2" type="curve"/>
      <point x="1069" y="69" type="line"/>
      <point x="1107.42" y="37.1117"/>
      <point x="1125.72" y="-4.24493"/>
      <point x="1125.72" y="-46.0959" type="curve" smooth="yes"/>
      <point x="1125.72" y="-138.809"/>
      <point x="1035.92" y="-233.947"/>
    </contour>
    <contour>
      <point x="821.115" y="-233.947" type="line"/>
      <point x="677" y="-234"/>
      <point x="583.833" y="-167.027"/>
      <point x="583.833" y="-37.0908" type="curve"/>
      <point x="724.833" y="-37.0908" type="line"/>
      <point x="724.833" y="-72.625"/>
      <point x="746.901" y="-103"/>
      <point x="821" y="-103" type="curve"/>
    </contour>
    <component base="si_JhIi"/>
  </outline>
</glyph>
<glyph name="si_JhUu" format="1">
  <advance width="1138"/>
  <outline>
    <contour>
      <point x="600" y="-39" type="line"/>
      <point x="626.334" y="-58.333"/>
      <point x="679.444" y="-64.7773"/>
      <point x="700.741" y="-64.7773" type="curve" smooth="yes"/>
      <point x="743.334" y="-64.7773"/>
      <point x="768.667" y="-42"/>
      <point x="808" y="-42" type="curve"/>
      <point x="808" y="-182" type="line"/>
      <point x="768.667" y="-182"/>
      <point x="743.334" y="-204.777"/>
      <point x="700.741" y="-204.777" type="curve" smooth="yes"/>
      <point x="679.444" y="-204.777"/>
      <point x="626.334" y="-198.333"/>
      <point x="600" y="-179" type="curve"/>
    </contour>
    <contour>
      <point x="864" y="-42" type="line"/>
      <point x="881" y="-42"/>
      <point x="929.148" y="-46.167"/>
      <point x="952" y="-61" type="curve"/>
      <point x="952" y="-205" type="line"/>
      <point x="926.106" y="-186.639"/>
      <point x="885" y="-182"/>
      <point x="864" y="-182" type="curve"/>
    </contour>
    <contour>
      <point x="952" y="123" type="line"/>
      <point x="1092" y="123" type="line"/>
      <point x="1092" y="-205" type="line"/>
      <point x="952" y="-205" type="line"/>
    </contour>
    <component base="si_Jha"/>
  </outline>
</glyph>
<glyph name="si_KhI" format="1">
  <advance width="625"/>
  <outline>
    <contour>
      <point x="260" y="-65" type="line"/>
      <point x="260" y="43.667"/>
      <point x="260" y="152.333"/>
      <point x="260" y="261" type="curve" smooth="yes"/>
      <point x="260" y="295.946"/>
      <point x="236.643" y="312.998"/>
      <point x="213.092" y="312.998" type="curve" smooth="yes"/>
      <point x="189.146" y="312.998"/>
      <point x="165" y="295.37"/>
      <point x="165" y="261" type="curve" smooth="yes"/>
      <point x="165" y="202" type="line" smooth="yes"/>
      <point x="165" y="166"/>
      <point x="169.264" y="140"/>
      <point x="214" y="140" type="curve"/>
      <point x="214" y="0" type="line"/>
      <point x="62" y="0"/>
      <point x="30" y="92"/>
      <point x="30" y="189" type="curve" smooth="yes"/>
      <point x="30" y="273" type="line" smooth="yes"/>
      <point x="30" y="394.719"/>
      <point x="125.151" y="452.114"/>
      <point x="218.289" y="452.114" type="curve" smooth="yes"/>
      <point x="307.569" y="452.114"/>
      <point x="395" y="399.376"/>
      <point x="395" y="300" type="curve" smooth="yes"/>
      <point x="395" y="-65" type="line"/>
    </contour>
    <contour>
      <point x="439.553" y="-6.72461" type="curve" smooth="yes"/>
      <point x="291.984" y="-6.72461"/>
      <point x="260" y="59.1514"/>
      <point x="260" y="134" type="curve" smooth="yes"/>
      <point x="260" y="222" type="line"/>
      <point x="395" y="222" type="line"/>
      <point x="395" y="176" type="line" smooth="yes"/>
      <point x="395" y="155.161"/>
      <point x="409.836" y="144.909"/>
      <point x="424.754" y="144.909" type="curve" smooth="yes"/>
      <point x="439.836" y="144.909"/>
      <point x="455" y="155.388"/>
      <point x="455" y="176" type="curve" smooth="yes"/>
      <point x="455" y="445" type="line" smooth="yes"/>
      <point x="455" y="504"/>
      <point x="413.403" y="512"/>
      <point x="363.667" y="512" type="curve"/>
      <point x="363.667" y="652" type="line"/>
      <point x="523.305" y="652"/>
      <point x="595" y="590"/>
      <point x="595" y="474" type="curve" smooth="yes"/>
      <point x="595" y="199" type="line" smooth="yes"/>
      <point x="595" y="47.6328"/>
      <point x="519.098" y="-6.72461"/>
    </contour>
    <contour>
      <point x="210.667" y="512" type="line" smooth="yes"/>
      <point x="92.542" y="512"/>
      <point x="33.292" y="570.065"/>
      <point x="33.292" y="670.735" type="curve" smooth="yes"/>
      <point x="33.292" y="744.907"/>
      <point x="92.292" y="819"/>
      <point x="210.667" y="819" type="curve"/>
      <point x="295.667" y="819" type="line"/>
      <point x="295.667" y="703" type="line"/>
      <point x="189.667" y="703" type="line"/>
      <point x="169.167" y="703"/>
      <point x="158.917" y="690.25"/>
      <point x="158.917" y="677.5" type="curve" smooth="yes"/>
      <point x="158.917" y="664.75"/>
      <point x="169.167" y="652"/>
      <point x="189.667" y="652" type="curve" smooth="yes"/>
      <point x="363.667" y="652" type="line"/>
      <point x="363.667" y="512" type="line"/>
    </contour>
    <contour>
      <point x="351.167" y="703" type="line"/>
      <point x="351.167" y="819" type="line"/>
      <point x="408.667" y="819" type="line" smooth="yes"/>
      <point x="537.026" y="819"/>
      <point x="582" y="756"/>
      <point x="582" y="673" type="curve"/>
      <point x="446.667" y="673" type="line"/>
      <point x="446.667" y="700"/>
      <point x="422" y="703"/>
      <point x="376.667" y="703" type="curve" smooth="yes"/>
    </contour>
  </outline>
</glyph>
<glyph name="si_LUu" format="1">
  <advance width="651"/>
  <outline>
    <contour>
      <point x="430" y="124" type="curve" smooth="yes"/>
      <point x="283.067" y="124"/>
      <point x="258" y="208.669"/>
      <point x="258" y="285" type="curve" smooth="yes"/>
      <point x="258" y="289.832"/>
      <point x="258" y="327.846"/>
      <point x="258" y="333" type="curve"/>
      <point x="386" y="333" type="line"/>
      <point x="386" y="265" type="line" smooth="yes"/>
      <point x="386" y="246.127"/>
      <point x="394.178" y="224"/>
      <point x="432" y="224" type="curve" smooth="yes"/>
      <point x="473.721" y="224"/>
      <point x="478" y="254.381"/>
      <point x="478" y="271" type="curve" smooth="yes"/>
      <point x="478.195" y="342" type="line" smooth="yes"/>
      <point x="478" y="410.087"/>
      <point x="429.198" y="430.203"/>
      <point x="364" y="434.5" type="curve"/>
      <point x="364" y="574.5" type="line"/>
      <point x="480.616" y="574.5"/>
      <point x="621" y="518.818"/>
      <point x="621" y="332" type="curve" smooth="yes"/>
      <point x="621" y="307" type="line" smooth="yes"/>
      <point x="621" y="191.127"/>
      <point x="549.107" y="124"/>
    </contour>
    <contour>
      <point x="303" y="-30" type="line"/>
      <point x="163.864" y="-30"/>
      <point x="30.333" y="47.3266"/>
      <point x="30.333" y="214" type="curve" smooth="yes"/>
      <point x="30.333" y="294" type="line" smooth="yes"/>
      <point x="30.333" y="393.227"/>
      <point x="65.6476" y="574.5"/>
      <point x="303" y="574.5" type="curve"/>
      <point x="303" y="434.5" type="line"/>
      <point x="183" y="425.383"/>
      <point x="176" y="370.638"/>
      <point x="176" y="294" type="curve" smooth="yes"/>
      <point x="176" y="214" type="line" smooth="yes"/>
      <point x="176" y="110.802"/>
      <point x="272.624" y="94.4822"/>
      <point x="303" y="92" type="curve"/>
    </contour>
    <contour>
      <point x="185.741" y="-204.777" type="curve" smooth="yes"/>
      <point x="155.714" y="-204.777"/>
      <point x="123.129" y="-198.333"/>
      <point x="86" y="-179" type="curve"/>
      <point x="86" y="-51" type="line"/>
      <point x="125.66" y="-69.678"/>
      <point x="159.997" y="-75.8262"/>
      <point x="190.939" y="-75.8262" type="curve" smooth="yes"/>
      <point x="234.084" y="-75.8262"/>
      <point x="268.108" y="-53"/>
      <point x="303" y="-53" type="curve"/>
      <point x="303" y="-177" type="line"/>
      <point x="263.667" y="-177"/>
      <point x="228.334" y="-204.777"/>
    </contour>
    <contour>
      <point x="465" y="-205" type="line"/>
      <point x="427.639" y="-182.647"/>
      <point x="394.3" y="-177"/>
      <point x="364" y="-177" type="curve"/>
      <point x="364" y="-54" type="line"/>
      <point x="388.529" y="-54"/>
      <point x="432.028" y="-58.1674"/>
      <point x="465" y="-73" type="curve"/>
    </contour>
    <contour>
      <point x="222" y="261" type="line"/>
      <point x="222" y="375" type="line"/>
      <point x="434" y="375" type="line"/>
      <point x="434" y="261" type="line"/>
    </contour>
    <contour>
      <point x="364" y="-31" type="line"/>
      <point x="364" y="92" type="line"/>
      <point x="594" y="92" type="line"/>
      <point x="594" y="-31" type="line"/>
    </contour>
    <contour>
      <point x="465" y="-205" type="line"/>
      <point x="465" y="92" type="line"/>
      <point x="594" y="92" type="line"/>
      <point x="594" y="-205" type="line"/>
    </contour>
  </outline>
</glyph>
<glyph name="si_MbIi" format="1">
  <advance width="607"/>
  <outline>
    <contour>
      <point x="470" y="603" type="curve" smooth="yes"/>
      <point x="422.286" y="603"/>
      <point x="378.352" y="651.443"/>
      <point x="378.352" y="689.821" type="curve" smooth="yes"/>
      <point x="378.352" y="694.39"/>
      <point x="378.975" y="698.815"/>
      <point x="380.287" y="703" type="curve"/>
      <point x="370" y="703" type="line"/>
      <point x="330.667" y="703" type="line"/>
      <point x="330.667" y="819" type="line"/>
      <point x="470" y="819" type="line" smooth="yes"/>
      <point x="530" y="819"/>
      <point x="578" y="771"/>
      <point x="578" y="711" type="curve" smooth="yes"/>
      <point x="578" y="651"/>
      <point x="530" y="603"/>
    </contour>
    <contour>
      <point x="217.667" y="512" type="line" smooth="yes"/>
      <point x="99.542" y="512"/>
      <point x="40.292" y="570.065"/>
      <point x="40.292" y="670.735" type="curve" smooth="yes"/>
      <point x="40.292" y="744.907"/>
      <point x="99.292" y="819"/>
      <point x="217.667" y="819" type="curve"/>
      <point x="275.667" y="819" type="line"/>
      <point x="275.667" y="703" type="line"/>
      <point x="196.667" y="703" type="line"/>
      <point x="176.167" y="703"/>
      <point x="165.917" y="690.25"/>
      <point x="165.917" y="677.5" type="curve" smooth="yes"/>
      <point x="165.917" y="664.75"/>
      <point x="176.167" y="652"/>
      <point x="196.667" y="652" type="curve" smooth="yes"/>
      <point x="345.667" y="652" type="line"/>
      <point x="345.667" y="512" type="line"/>
    </contour>
    <contour>
      <point x="190" y="-11" type="curve" smooth="yes"/>
      <point x="94.8105" y="-11"/>
      <point x="30" y="55"/>
      <point x="30" y="157" type="curve" smooth="yes"/>
      <point x="30" y="339" type="line" smooth="yes"/>
      <point x="30" y="428.355"/>
      <point x="98.7227" y="473.401"/>
      <point x="163.735" y="473.401" type="curve" smooth="yes"/>
      <point x="223.396" y="473.401"/>
      <point x="280" y="437.112"/>
      <point x="280" y="364" type="curve" smooth="yes"/>
      <point x="280" y="348" type="line" smooth="yes"/>
      <point x="280" y="336.714"/>
      <point x="287.716" y="331.107"/>
      <point x="295.45" y="331.107" type="curve" smooth="yes"/>
      <point x="303.216" y="331.107"/>
      <point x="311" y="336.763"/>
      <point x="311" y="348" type="curve" smooth="yes"/>
      <point x="311" y="469" type="line"/>
      <point x="403" y="469" type="line"/>
      <point x="403" y="340" type="line" smooth="yes"/>
      <point x="403" y="263.042"/>
      <point x="350.455" y="228.664"/>
      <point x="298.44" y="228.664" type="curve" smooth="yes"/>
      <point x="247.465" y="228.664"/>
      <point x="197" y="261.682"/>
      <point x="197" y="320" type="curve" smooth="yes"/>
      <point x="197" y="328" type="line" smooth="yes"/>
      <point x="197" y="341.305"/>
      <point x="189.157" y="348.08"/>
      <point x="181.361" y="348.08" type="curve" smooth="yes"/>
      <point x="173.658" y="348.08"/>
      <point x="166" y="341.465"/>
      <point x="166" y="328" type="curve" smooth="yes"/>
      <point x="166" y="166" type="line" smooth="yes"/>
      <point x="166" y="145.36"/>
      <point x="180.444" y="134.824"/>
      <point x="194.791" y="134.824" type="curve" smooth="yes"/>
      <point x="208.943" y="134.824"/>
      <point x="223" y="145.077"/>
      <point x="223" y="166" type="curve" smooth="yes"/>
      <point x="223" y="180.669"/>
      <point x="230.158" y="204"/>
      <point x="257" y="204" type="curve" smooth="yes"/>
      <point x="346" y="204" type="line" smooth="yes"/>
      <point x="372.842" y="204"/>
      <point x="380" y="180.669"/>
      <point x="380" y="166" type="curve" smooth="yes"/>
      <point x="380" y="145.077"/>
      <point x="394.057" y="134.824"/>
      <point x="408.209" y="134.824" type="curve" smooth="yes"/>
      <point x="422.556" y="134.824"/>
      <point x="437" y="145"/>
      <point x="437" y="167" type="curve" smooth="yes"/>
      <point x="437" y="446" type="line" smooth="yes"/>
      <point x="437" y="504"/>
      <point x="395.403" y="512"/>
      <point x="345.667" y="512" type="curve"/>
      <point x="345.667" y="652" type="line"/>
      <point x="505.305" y="652"/>
      <point x="577" y="590"/>
      <point x="577" y="473" type="curve" smooth="yes"/>
      <point x="577" y="157" type="line" smooth="yes"/>
      <point x="577" y="55"/>
      <point x="510.975" y="-11"/>
      <point x="414" y="-11" type="curve" smooth="yes"/>
      <point x="383.387" y="-11"/>
      <point x="361.637" y="-2.89648"/>
      <point x="347.54" y="10.9062" type="curve" smooth="yes"/>
      <point x="333.443" y="24.708"/>
      <point x="327" y="44.208"/>
      <point x="327" y="67" type="curve" smooth="yes"/>
      <point x="327" y="88.8076"/>
      <point x="314.492" y="99.7227"/>
      <point x="301.988" y="99.7227" type="curve" smooth="yes"/>
      <point x="289.492" y="99.7227"/>
      <point x="277" y="88.8223"/>
      <point x="277" y="67" type="curve" smooth="yes"/>
      <point x="277" y="44.208"/>
      <point x="270.557" y="24.708"/>
      <point x="256.46" y="10.9062" type="curve" smooth="yes"/>
      <point x="242.363" y="-2.89648"/>
      <point x="220.613" y="-11"/>
    </contour>
  </outline>
</glyph>
<glyph name="si_MbUu" format="1">
  <advance width="607"/>
  <outline>
    <contour>
      <point x="48" y="-39" type="line"/>
      <point x="74.334" y="-58.333"/>
      <point x="128.444" y="-64.7773"/>
      <point x="149.741" y="-64.7773" type="curve" smooth="yes"/>
      <point x="192.334" y="-64.7773"/>
      <point x="233.667" y="-42"/>
      <point x="273" y="-42" type="curve"/>
      <point x="273" y="-182" type="line"/>
      <point x="233.667" y="-182"/>
      <point x="192.334" y="-204.777"/>
      <point x="149.741" y="-204.777" type="curve" smooth="yes"/>
      <point x="128.444" y="-204.777"/>
      <point x="74.334" y="-198.333"/>
      <point x="48" y="-179" type="curve"/>
    </contour>
    <contour>
      <point x="330" y="-42" type="line"/>
      <point x="347" y="-42"/>
      <point x="399.148" y="-46.167"/>
      <point x="422" y="-61" type="curve"/>
      <point x="422" y="-205" type="line"/>
      <point x="396.106" y="-186.639"/>
      <point x="351" y="-182"/>
      <point x="330" y="-182" type="curve"/>
    </contour>
    <contour>
      <point x="422" y="123" type="line"/>
      <point x="562" y="123" type="line"/>
      <point x="562" y="-205" type="line"/>
      <point x="422" y="-205" type="line"/>
    </contour>
    <component base="si_Mba"/>
  </outline>
</glyph>
<glyph name="si_NDhUu" format="1">
  <advance width="1110"/>
  <outline>
    <contour>
      <point x="570" y="-39" type="line"/>
      <point x="596.334" y="-58.333"/>
      <point x="639.444" y="-64.7773"/>
      <point x="660.741" y="-64.7773" type="curve" smooth="yes"/>
      <point x="703.334" y="-64.7773"/>
      <point x="748.667" y="-42"/>
      <point x="788" y="-42" type="curve"/>
      <point x="788" y="-182" type="line"/>
      <point x="748.667" y="-182"/>
      <point x="703.334" y="-204.777"/>
      <point x="660.741" y="-204.777" type="curve" smooth="yes"/>
      <point x="639.444" y="-204.777"/>
      <point x="596.334" y="-198.333"/>
      <point x="570" y="-179" type="curve"/>
    </contour>
    <contour>
      <point x="844" y="-42" type="line"/>
      <point x="861" y="-42"/>
      <point x="901.148" y="-46.167"/>
      <point x="924" y="-61" type="curve"/>
      <point x="924" y="-205" type="line"/>
      <point x="898.106" y="-186.639"/>
      <point x="865" y="-182"/>
      <point x="844" y="-182" type="curve"/>
    </contour>
    <contour>
      <point x="924" y="123" type="line"/>
      <point x="1064" y="123" type="line"/>
      <point x="1064" y="-205" type="line"/>
      <point x="924" y="-205" type="line"/>
    </contour>
    <component base="si_NDha"/>
  </outline>
</glyph>
<glyph name="si_NU" format="1">
  <advance width="758"/>
  <outline>
    <contour>
      <point x="120" y="-65" type="line"/>
      <point x="362" y="-65" type="line"/>
      <point x="362" y="-205" type="line"/>
      <point x="120" y="-205" type="line"/>
    </contour>
    <contour>
      <point x="418" y="-65" type="line"/>
      <point x="578" y="-65" type="line"/>
      <point x="578" y="-205" type="line"/>
      <point x="418" y="-205" type="line"/>
    </contour>
    <contour>
      <point x="568" y="131" type="line"/>
      <point x="708" y="131" type="line"/>
      <point x="708" y="-205" type="line"/>
      <point x="568" y="-205" type="line"/>
    </contour>
    <component base="si_Na"/>
  </outline>
</glyph>
<glyph name="si_NdI" format="1">
  <advance width="742"/>
  <outline>
    <contour>
      <point x="206" y="602" type="line"/>
      <point x="206" y="630" type="line"/>
      <point x="206" y="724"/>
      <point x="282.741" y="789"/>
      <point x="382" y="789" type="curve"/>
      <point x="473" y="789" type="line"/>
      <point x="572.259" y="789"/>
      <point x="649" y="724"/>
      <point x="649" y="630" type="curve"/>
      <point x="649" y="602" type="line"/>
      <point x="519" y="602" type="line"/>
      <point x="519" y="654.112"/>
      <point x="483.857" y="658"/>
      <point x="457" y="659" type="curve"/>
      <point x="398" y="659" type="line"/>
      <point x="371.143" y="658"/>
      <point x="336" y="654.112"/>
      <point x="336" y="602" type="curve"/>
    </contour>
    <component base="si_Nda"/>
  </outline>
</glyph>
<glyph name="si_NdIi" format="1">
  <advance width="742"/>
  <outline>
    <contour>
      <point x="528" y="553" type="curve" smooth="yes"/>
      <point x="463" y="553"/>
      <point x="410" y="606"/>
      <point x="410" y="671" type="curve" smooth="yes"/>
      <point x="410" y="736"/>
      <point x="463" y="789"/>
      <point x="528" y="789" type="curve" smooth="yes"/>
      <point x="593" y="789"/>
      <point x="646" y="736"/>
      <point x="646" y="671" type="curve" smooth="yes"/>
      <point x="646" y="606"/>
      <point x="593" y="553"/>
    </contour>
    <contour>
      <point x="205" y="602" type="line"/>
      <point x="205" y="630" type="line" smooth="yes"/>
      <point x="205" y="723.409"/>
      <point x="281.747" y="789"/>
      <point x="381" y="789" type="curve" smooth="yes"/>
      <point x="528" y="789" type="line" smooth="yes"/>
      <point x="591.976" y="789"/>
      <point x="646" y="736.729"/>
      <point x="646" y="671" type="curve"/>
      <point x="492" y="622" type="line"/>
      <point x="492" y="657.112"/>
      <point x="476.857" y="659"/>
      <point x="450" y="659" type="curve" smooth="yes"/>
      <point x="397" y="659" type="line" smooth="yes"/>
      <point x="370.143" y="659"/>
      <point x="335" y="654.112"/>
      <point x="335" y="602" type="curve"/>
    </contour>
    <component base="si_Nda"/>
  </outline>
</glyph>
<glyph name="si_NdjRa" format="1">
  <advance width="828"/>
  <outline>
    <contour>
      <point x="514" y="-103" type="line"/>
      <point x="666.188" y="-103"/>
      <point x="633.877" y="0"/>
      <point x="608" y="0" type="curve"/>
      <point x="741" y="89" type="line"/>
      <point x="823.554" y="-56.5439"/>
      <point x="746" y="-234"/>
      <point x="514.115" y="-233.947" type="curve"/>
    </contour>
    <contour>
      <point x="459.115" y="-233.947" type="line"/>
      <point x="325" y="-234"/>
      <point x="210.833" y="-167.027"/>
      <point x="210.833" y="-37.0908" type="curve"/>
      <point x="351.833" y="-37.0908" type="line"/>
      <point x="351.833" y="-72.625"/>
      <point x="390.901" y="-103"/>
      <point x="459" y="-103" type="curve"/>
    </contour>
    <component base="si_Ndja"/>
  </outline>
</glyph>
<glyph name="si_NdjU" format="1">
  <advance width="828"/>
  <outline>
    <contour>
      <point x="618" y="131" type="line"/>
      <point x="758" y="131" type="line"/>
      <point x="758" y="-205" type="line"/>
      <point x="618" y="-205" type="line"/>
    </contour>
    <contour>
      <point x="518" y="-65" type="line"/>
      <point x="628" y="-65" type="line"/>
      <point x="628" y="-205" type="line"/>
      <point x="518" y="-205" type="line"/>
    </contour>
    <contour>
      <point x="245" y="-65" type="line"/>
      <point x="462" y="-65" type="line"/>
      <point x="462" y="-205" type="line"/>
      <point x="245" y="-205" type="line"/>
    </contour>
    <component base="si_Ndja"/>
  </outline>
</glyph>
<glyph name="si_NnI" format="1">
  <advance width="1017"/>
  <outline>
    <contour>
      <point x="614.375" y="615.375" type="line"/>
      <point x="614.375" y="636.375" type="line"/>
      <point x="614.092" y="706.432"/>
      <point x="651.931" y="755.625"/>
      <point x="726.375" y="755.625" type="curve"/>
      <point x="835.375" y="755.625" type="line"/>
      <point x="909.819" y="755.625"/>
      <point x="947.658" y="706.432"/>
      <point x="947.375" y="636.375" type="curve"/>
      <point x="947.375" y="615.375" type="line"/>
      <point x="849.875" y="615.375" type="line"/>
      <point x="849.875" y="650.459"/>
      <point x="833.518" y="657.375"/>
      <point x="812.625" y="658.125" type="curve"/>
      <point x="748.375" y="658.125" type="line"/>
      <point x="728.232" y="657.375"/>
      <point x="711.875" y="650.459"/>
      <point x="711.875" y="615.375" type="curve"/>
    </contour>
    <component base="si_Nna"/>
  </outline>
</glyph>
<glyph name="si_NnUu" format="1">
  <advance width="1017"/>
  <outline>
    <contour>
      <point x="320" y="-34" type="line"/>
      <point x="360.479" y="-59.333"/>
      <point x="396.005" y="-67.7773"/>
      <point x="428.741" y="-67.7773" type="curve" smooth="yes"/>
      <point x="480.051" y="-67.7773"/>
      <point x="533.616" y="-34"/>
      <point x="581" y="-34" type="curve"/>
      <point x="581" y="-174" type="line"/>
      <point x="533.616" y="-174"/>
      <point x="480.051" y="-204.777"/>
      <point x="428.741" y="-204.777" type="curve" smooth="yes"/>
      <point x="396.005" y="-204.777"/>
      <point x="360.479" y="-197.083"/>
      <point x="320" y="-174" type="curve"/>
    </contour>
    <contour>
      <point x="639" y="-34" type="line"/>
      <point x="668.143" y="-34"/>
      <point x="794.825" y="-39.9219"/>
      <point x="834" y="-61" type="curve"/>
      <point x="834" y="-205" type="line"/>
      <point x="789.61" y="-180.253"/>
      <point x="675" y="-174"/>
      <point x="639" y="-174" type="curve"/>
    </contour>
    <contour>
      <point x="834" y="131" type="line"/>
      <point x="974" y="131" type="line"/>
      <point x="974" y="-205" type="line"/>
      <point x="834" y="-205" type="line"/>
    </contour>
    <component base="si_Nna"/>
  </outline>
</glyph>
<glyph name="si_NnddUu" format="1">
  <advance width="789"/>
  <outline>
    <contour>
      <point x="247" y="-39" type="line"/>
      <point x="273.334" y="-58.333"/>
      <point x="316.444" y="-64.7773"/>
      <point x="337.741" y="-64.7773" type="curve" smooth="yes"/>
      <point x="380.334" y="-64.7773"/>
      <point x="428.667" y="-42"/>
      <point x="468" y="-42" type="curve"/>
      <point x="468" y="-182" type="line"/>
      <point x="428.667" y="-182"/>
      <point x="380.334" y="-204.777"/>
      <point x="337.741" y="-204.777" type="curve" smooth="yes"/>
      <point x="316.444" y="-204.777"/>
      <point x="273.334" y="-198.333"/>
      <point x="247" y="-179" type="curve"/>
    </contour>
    <contour>
      <point x="524" y="-42" type="line"/>
      <point x="541" y="-42"/>
      <point x="578.148" y="-46.167"/>
      <point x="601" y="-61" type="curve"/>
      <point x="601" y="-205" type="line"/>
      <point x="575.106" y="-186.639"/>
      <point x="545" y="-182"/>
      <point x="524" y="-182" type="curve"/>
    </contour>
    <contour>
      <point x="601" y="123" type="line"/>
      <point x="741" y="123" type="line"/>
      <point x="741" y="-205" type="line"/>
      <point x="601" y="-205" type="line"/>
    </contour>
    <component base="si_Nndda"/>
  </outline>
</glyph>
<glyph name="si_NngUu" format="1">
  <advance width="921"/>
  <outline>
    <contour>
      <point x="30" y="209" type="curve" smooth="yes"/>
      <point x="30" y="287" type="line" smooth="yes"/>
      <point x="30" y="452"/>
      <point x="60.9931" y="564.245"/>
      <point x="265.051" y="564.245" type="curve" smooth="yes"/>
      <point x="316.372" y="564.245"/>
      <point x="369.684" y="564.082"/>
      <point x="421" y="564" type="curve"/>
      <point x="421" y="421" type="line"/>
      <point x="224" y="421" type="line" smooth="yes"/>
      <point x="174.46" y="421"/>
      <point x="166" y="376"/>
      <point x="166" y="287" type="curve" smooth="yes"/>
      <point x="166" y="209" type="line" smooth="yes"/>
      <point x="166" y="128.436"/>
      <point x="168.558" y="87.5967"/>
      <point x="233" y="11" type="curve"/>
      <point x="103.039" y="-29" type="line"/>
      <point x="43.3975" y="48.1836"/>
      <point x="30" y="118.444"/>
    </contour>
    <component base="si_GUu" xOffset="194"/>
  </outline>
</glyph>
<glyph name="si_RAe" format="1">
  <advance width="812"/>
  <outline>
    <contour>
      <point x="30" y="235" type="curve" smooth="yes"/>
      <point x="30" y="427" type="line" smooth="yes"/>
      <point x="30" y="478"/>
      <point x="31.1285" y="559.125"/>
      <point x="123" y="634.002" type="curve" smooth="yes"/>
      <point x="296" y="775" type="line"/>
      <point x="515" y="775" type="line"/>
      <point x="237" y="549" type="line" smooth="yes"/>
      <point x="175.597" y="499.082"/>
      <point x="169.753" y="489.496"/>
      <point x="169.753" y="449.981" type="curve" smooth="yes"/>
      <point x="169.753" y="441.551"/>
      <point x="170" y="431.78"/>
      <point x="170" y="235" type="curve" smooth="yes"/>
      <point x="170" y="167"/>
      <point x="184.222" y="139"/>
      <point x="244" y="139" type="curve"/>
      <point x="244" y="-6" type="line"/>
      <point x="141.578" y="-6"/>
      <point x="30" y="51.1748"/>
    </contour>
    <contour>
      <point x="208.926" y="456" type="line"/>
      <point x="340" y="564" type="line"/>
      <point x="365" y="563.981" type="line"/>
      <point x="477.509" y="563.953"/>
      <point x="515" y="491.189"/>
      <point x="515" y="328" type="curve" smooth="yes"/>
      <point x="515" y="235" type="line" smooth="yes"/>
      <point x="515" y="42.8447"/>
      <point x="412.532" y="-5"/>
      <point x="300" y="-5" type="curve"/>
      <point x="300" y="139" type="line"/>
      <point x="360.586" y="139"/>
      <point x="375" y="166.591"/>
      <point x="375" y="235" type="curve" smooth="yes"/>
      <point x="375" y="322" type="line" smooth="yes"/>
      <point x="375" y="395.112"/>
      <point x="375" y="426"/>
      <point x="300" y="426" type="curve" smooth="yes"/>
      <point x="209" y="426" type="line"/>
    </contour>
    <contour>
      <point x="760.19" y="-0.00292969" type="line" smooth="yes"/>
      <point x="653.365" y="-0.00292969"/>
      <point x="564.854" y="57.9854"/>
      <point x="565" y="208" type="curve" smooth="yes"/>
      <point x="565" y="468" type="line" smooth="yes"/>
      <point x="565" y="536.58"/>
      <point x="569.073" y="561.178"/>
      <point x="633" y="654" type="curve"/>
      <point x="445" y="654" type="line"/>
      <point x="592" y="775" type="line"/>
      <point x="782" y="775" type="line"/>
      <point x="782" y="654" type="line"/>
      <point x="697" y="530.241"/>
      <point x="705.028" y="530.552"/>
      <point x="705.177" y="464" type="curve" smooth="yes"/>
      <point x="705" y="207" type="line" smooth="yes"/>
      <point x="704.95" y="148.206"/>
      <point x="736.804" y="140"/>
      <point x="761" y="140" type="curve" smooth="yes"/>
      <point x="782" y="140" type="line"/>
      <point x="782" y="0" type="line"/>
    </contour>
  </outline>
</glyph>
<glyph name="si_ShU" format="1">
  <advance width="717"/>
  <outline>
    <contour>
      <point x="254" y="241" type="line"/>
      <point x="254" y="350" type="line" smooth="yes"/>
      <point x="254" y="468.007"/>
      <point x="290.062" y="564"/>
      <point x="434" y="564" type="curve"/>
      <point x="434" y="421" type="line"/>
      <point x="394.304" y="421"/>
      <point x="392.111" y="383.547"/>
      <point x="392.557" y="350.277" type="curve" smooth="yes"/>
      <point x="392.649" y="343.389"/>
      <point x="392.855" y="336.681"/>
      <point x="392.864" y="330.522" type="curve"/>
      <point x="392.864" y="330.522"/>
      <point x="392.864" y="330.522"/>
      <point x="392.864" y="330.522" type="curve" smooth="yes"/>
      <point x="442.744" y="317.203"/>
      <point x="457.226" y="266.376"/>
      <point x="460.543" y="195.94" type="curve" smooth="yes"/>
      <point x="460.844" y="189.549"/>
      <point x="461" y="182.905"/>
      <point x="461" y="176" type="curve" smooth="yes"/>
      <point x="461" y="48.4023"/>
      <point x="399.69" y="-8"/>
      <point x="283" y="-8" type="curve"/>
      <point x="283" y="135" type="line"/>
      <point x="335.527" y="135"/>
      <point x="337" y="170.963"/>
      <point x="337" y="188" type="curve" smooth="yes"/>
      <point x="337" y="230.064"/>
      <point x="316" y="241"/>
      <point x="288" y="241" type="curve" smooth="yes"/>
    </contour>
    <contour>
      <point x="227" y="-8" type="line"/>
      <point x="87.7041" y="-8"/>
      <point x="30.4199" y="81.7373"/>
      <point x="30.0791" y="198" type="curve" smooth="yes"/>
      <point x="30.0791" y="358" type="line" smooth="yes"/>
      <point x="30.4199" y="474.262"/>
      <point x="87.7041" y="564"/>
      <point x="227" y="564" type="curve"/>
      <point x="227" y="421" type="line"/>
      <point x="174.887" y="421"/>
      <point x="171" y="375.857"/>
      <point x="171" y="348" type="curve" smooth="yes"/>
      <point x="171" y="198" type="line" smooth="yes"/>
      <point x="171" y="173.959"/>
      <point x="174.887" y="135"/>
      <point x="227" y="135" type="curve"/>
    </contour>
    <contour>
      <point x="645.19" y="-205.003" type="curve" smooth="yes"/>
      <point x="538.365" y="-205.003"/>
      <point x="470" y="-145.937"/>
      <point x="470" y="-59" type="curve" smooth="yes"/>
      <point x="470" y="11" type="line" smooth="yes"/>
      <point x="470" y="89.3789"/>
      <point x="538.365" y="149.003"/>
      <point x="645.19" y="149.003" type="curve" smooth="yes"/>
      <point x="652.229" y="149.003"/>
      <point x="679.533" y="149.002"/>
      <point x="687" y="149" type="curve"/>
      <point x="687" y="6" type="line"/>
      <point x="682.681" y="6"/>
      <point x="652.854" y="6"/>
      <point x="644" y="6" type="curve" smooth="yes"/>
      <point x="611.813" y="6"/>
      <point x="597.679" y="-6.53027"/>
      <point x="597.679" y="-34.0449" type="curve" smooth="yes"/>
      <point x="597.679" y="-61.5303"/>
      <point x="611.759" y="-74"/>
      <point x="644" y="-74" type="curve" smooth="yes"/>
      <point x="652.854" y="-74"/>
      <point x="682.681" y="-74"/>
      <point x="687" y="-74" type="curve"/>
      <point x="687" y="-205" type="line"/>
      <point x="679.533" y="-205.002"/>
      <point x="652.229" y="-205.003"/>
    </contour>
    <contour>
      <point x="546" y="90" type="line" smooth="yes"/>
      <point x="546" y="348" type="line" smooth="yes"/>
      <point x="546" y="375.857"/>
      <point x="542.112" y="421"/>
      <point x="490" y="421" type="curve"/>
      <point x="490" y="564" type="line"/>
      <point x="629.296" y="564"/>
      <point x="686.58" y="474.263"/>
      <point x="686.921" y="358" type="curve" smooth="yes"/>
      <point x="686.921" y="90" type="line" smooth="yes"/>
    </contour>
    <contour>
      <point x="373" y="168" type="line"/>
      <point x="373" y="313.535"/>
      <point x="442.387" y="338"/>
      <point x="546" y="338" type="curve"/>
      <point x="546" y="235" type="line"/>
      <point x="495.681" y="235"/>
      <point x="461" y="219.289"/>
      <point x="461" y="169" type="curve"/>
    </contour>
  </outline>
</glyph>
<glyph name="si_TThIi" format="1">
  <advance width="1080"/>
  <outline>
    <contour>
      <point x="695" y="639" type="line"/>
      <point x="592.586" y="639"/>
      <point x="541.603" y="709.544"/>
      <point x="541.603" y="780.19" type="curve" smooth="yes"/>
      <point x="541.603" y="851.043"/>
      <point x="592.885" y="922"/>
      <point x="695" y="922" type="curve" smooth="yes"/>
      <point x="942" y="922" type="line" smooth="yes"/>
      <point x="1002" y="922"/>
      <point x="1050" y="874"/>
      <point x="1050" y="814" type="curve" smooth="yes"/>
      <point x="1050" y="754"/>
      <point x="1002" y="706"/>
      <point x="942" y="706" type="curve" smooth="yes"/>
      <point x="894.286" y="706"/>
      <point x="850.352" y="754.444"/>
      <point x="850.352" y="792.821" type="curve" smooth="yes"/>
      <point x="850.352" y="797.39"/>
      <point x="850.974" y="801.815"/>
      <point x="853.286" y="806" type="curve"/>
      <point x="843.904" y="806" type="line"/>
      <point x="695" y="806" type="line" smooth="yes"/>
      <point x="675" y="806"/>
      <point x="664.348" y="793.325"/>
      <point x="664.348" y="780.613" type="curve" smooth="yes"/>
      <point x="664.348" y="767.825"/>
      <point x="674.626" y="755"/>
      <point x="695" y="755" type="curve"/>
    </contour>
    <component base="si_TTha"/>
  </outline>
</glyph>
<glyph name="si_ThIi" format="1">
  <advance width="561"/>
  <outline>
    <contour>
      <point x="176" y="639" type="line"/>
      <point x="73.5859" y="639"/>
      <point x="22.6025" y="709.544"/>
      <point x="22.6025" y="780.19" type="curve" smooth="yes"/>
      <point x="22.6025" y="851.043"/>
      <point x="73.8848" y="922"/>
      <point x="176" y="922" type="curve" smooth="yes"/>
      <point x="423" y="922" type="line" smooth="yes"/>
      <point x="483" y="922"/>
      <point x="531" y="874"/>
      <point x="531" y="814" type="curve" smooth="yes"/>
      <point x="531" y="754"/>
      <point x="483" y="706"/>
      <point x="423" y="706" type="curve" smooth="yes"/>
      <point x="375.286" y="706"/>
      <point x="331.352" y="754.444"/>
      <point x="331.352" y="792.821" type="curve" smooth="yes"/>
      <point x="331.352" y="797.39"/>
      <point x="331.974" y="801.815"/>
      <point x="334.286" y="806" type="curve"/>
      <point x="322.014" y="806" type="line"/>
      <point x="176" y="806" type="line" smooth="yes"/>
      <point x="156" y="806"/>
      <point x="145.348" y="793.325"/>
      <point x="145.348" y="780.613" type="curve" smooth="yes"/>
      <point x="145.348" y="767.825"/>
      <point x="155.626" y="755"/>
      <point x="176" y="755" type="curve"/>
    </contour>
    <component base="si_Tha"/>
  </outline>
</glyph>
<glyph name="si_TtTth.halant" format="1">
  <advance width="786"/>
  <outline>
    <contour>
      <point x="620.001" y="518" type="line"/>
      <point x="620.001" y="819" type="line"/>
      <point x="756.001" y="819" type="line"/>
      <point x="756.001" y="518" type="line"/>
    </contour>
    <component base="si_TtTtha"/>
  </outline>
</glyph>
<glyph name="si_TthI" format="1">
  <advance width="593"/>
  <outline>
    <contour>
      <point x="208" y="922" type="curve" smooth="yes"/>
      <point x="394" y="922" type="line" smooth="yes"/>
      <point x="500" y="922"/>
      <point x="543.333" y="853.602"/>
      <point x="543.333" y="776" type="curve"/>
      <point x="408" y="776" type="line"/>
      <point x="408" y="804.182"/>
      <point x="388" y="806"/>
      <point x="349.849" y="806" type="curve" smooth="yes"/>
      <point x="208" y="806" type="line" smooth="yes"/>
      <point x="188" y="806"/>
      <point x="177.348" y="793.325"/>
      <point x="177.348" y="780.613" type="curve" smooth="yes"/>
      <point x="177.348" y="767.825"/>
      <point x="187.626" y="755"/>
      <point x="208" y="755" type="curve"/>
      <point x="208" y="639" type="line"/>
      <point x="105.586" y="639"/>
      <point x="54.6025" y="709.544"/>
      <point x="54.6025" y="780.19" type="curve" smooth="yes"/>
      <point x="54.6025" y="851.043"/>
      <point x="106" y="922"/>
    </contour>
    <component base="si_Ttha"/>
  </outline>
</glyph>
<glyph name="si_YU" format="1">
  <advance width="655"/>
  <outline>
    <contour>
      <point x="52" y="-65" type="line"/>
      <point x="294" y="-65" type="line"/>
      <point x="294" y="-205" type="line"/>
      <point x="52" y="-205" type="line"/>
    </contour>
    <contour>
      <point x="350" y="-65" type="line"/>
      <point x="480" y="-65" type="line"/>
      <point x="480" y="-205" type="line"/>
      <point x="350" y="-205" type="line"/>
    </contour>
    <contour>
      <point x="470" y="131" type="line"/>
      <point x="610" y="131" type="line"/>
      <point x="610" y="-205" type="line"/>
      <point x="470" y="-205" type="line"/>
    </contour>
    <component base="si_Ya"/>
  </outline>
</glyph>
<glyph name="si_Ya.post" format="1">
  <advance width="518"/>
  <outline>
    <contour>
      <point x="138" y="366" type="line" smooth="yes"/>
      <point x="138" y="489.777"/>
      <point x="185.894" y="566"/>
      <point x="312" y="566" type="curve" smooth="yes"/>
      <point x="367.748" y="566"/>
      <point x="434" y="543"/>
      <point x="470" y="458" type="curve"/>
      <point x="360" y="421" type="line"/>
      <point x="348.118" y="441.996"/>
      <point x="330.367" y="445.799"/>
      <point x="312" y="445.799" type="curve" smooth="yes"/>
      <point x="288.18" y="445.799"/>
      <point x="268" y="433.227"/>
      <point x="268" y="402" type="curve"/>
    </contour>
    <contour>
      <point x="230" y="0" type="line"/>
      <point x="262" y="135" type="line"/>
      <point x="270.876" y="135"/>
      <point x="279.803" y="134.699"/>
      <point x="288.372" y="134.699" type="curve" smooth="yes"/>
      <point x="320.746" y="134.699"/>
      <point x="348" y="138.99"/>
      <point x="348" y="180" type="curve" smooth="yes"/>
      <point x="348" y="228" type="line" smooth="yes"/>
      <point x="348" y="263.28"/>
      <point x="331.678" y="266"/>
      <point x="318" y="266" type="curve" smooth="yes"/>
      <point x="307.586" y="266"/>
      <point x="245.521" y="266"/>
      <point x="233" y="266" type="curve"/>
      <point x="233" y="403" type="line"/>
      <point x="243.176" y="403"/>
      <point x="308.026" y="403"/>
      <point x="318" y="403" type="curve" smooth="yes"/>
      <point x="399.63" y="403"/>
      <point x="487.752" y="397.048"/>
      <point x="487.752" y="239.96" type="curve" smooth="yes"/>
      <point x="488" y="160" type="line" smooth="yes"/>
      <point x="488.262" y="75.7832"/>
      <point x="445.048" y="0.0849609"/>
      <point x="356.149" y="0.0849609" type="curve" smooth="yes"/>
      <point x="356.1" y="0.0849609"/>
      <point x="356.05" y="0.0849609"/>
      <point x="356" y="0.0849609" type="curve" smooth="yes"/>
    </contour>
    <contour>
      <point x="30" y="0" type="line"/>
      <point x="108" y="313" type="line"/>
      <point x="113.394" y="337.66"/>
      <point x="119.853" y="361.214"/>
      <point x="119.853" y="380.878" type="curve" smooth="yes"/>
      <point x="119.853" y="412.247"/>
      <point x="103.417" y="433.718"/>
      <point x="40" y="434" type="curve"/>
      <point x="40" y="564" type="line"/>
      <point x="161.971" y="564"/>
      <point x="253.692" y="496.123"/>
      <point x="253.692" y="376.212" type="curve" smooth="yes"/>
      <point x="253.692" y="356.521"/>
      <point x="251.219" y="335.427"/>
      <point x="246" y="313" type="curve"/>
      <point x="171" y="0" type="line"/>
    </contour>
  </outline>
</glyph>
<glyph name="tml_HI" format="1">
  <advance width="1649"/>
  <outline>
    <contour>
      <point x="1420" y="801" type="curve"/>
      <point x="1420" y="679" type="line"/>
      <point x="1473" y="679"/>
      <point x="1468" y="642"/>
      <point x="1468" y="580" type="curve" smooth="yes"/>
      <point x="1468" y="0" type="line"/>
      <point x="1590" y="0" type="line"/>
      <point x="1590" y="583" type="line" smooth="yes"/>
      <point x="1590" y="686"/>
      <point x="1573" y="801"/>
    </contour>
    <contour>
      <point x="1317" y="531" type="line"/>
      <point x="1317" y="581" type="line"/>
      <point x="1317" y="642"/>
      <point x="1317" y="679"/>
      <point x="1366" y="679" type="curve" smooth="yes"/>
      <point x="1366" y="801" type="line"/>
      <point x="1230" y="801"/>
      <point x="1194" y="729"/>
      <point x="1194" y="581" type="curve"/>
    </contour>
    <component base="tml_Ha" xOffset="17"/>
  </outline>
</glyph>
<glyph name="tml_HIi" format="1">
  <advance width="1415"/>
  <outline>
    <contour>
      <point x="1186" y="523" type="line"/>
      <point x="1310" y="523" type="line"/>
      <point x="1310" y="557" type="line"/>
      <point x="1229" y="760"/>
      <point x="1305" y="834"/>
      <point x="1376" y="834" type="curve"/>
      <point x="1433" y="834"/>
      <point x="1444" y="800"/>
      <point x="1444" y="785" type="curve" smooth="yes"/>
      <point x="1444" y="764"/>
      <point x="1433" y="745"/>
      <point x="1410" y="745" type="curve" smooth="yes"/>
      <point x="1385" y="745"/>
      <point x="1376" y="762"/>
      <point x="1376" y="778" type="curve" smooth="yes"/>
      <point x="1305" y="695" type="line"/>
      <point x="1315" y="674"/>
      <point x="1362" y="636"/>
      <point x="1407" y="636" type="curve" smooth="yes"/>
      <point x="1606" y="636"/>
      <point x="1614" y="949"/>
      <point x="1386" y="949" type="curve" smooth="yes"/>
      <point x="1183" y="949"/>
      <point x="1107" y="767"/>
      <point x="1186" y="558" type="curve"/>
    </contour>
    <component base="tml_Ha" xOffset="9"/>
  </outline>
</glyph>
<glyph name="tml_KIi" format="1">
  <advance width="829"/>
  <outline>
    <contour>
      <point x="419" y="475" type="line"/>
      <point x="544" y="475" type="line"/>
      <point x="543" y="597" type="line" smooth="yes"/>
      <point x="468" y="755"/>
      <point x="538" y="830"/>
      <point x="609" y="830" type="curve"/>
      <point x="666" y="830"/>
      <point x="677" y="796"/>
      <point x="677" y="781" type="curve" smooth="yes"/>
      <point x="677" y="760"/>
      <point x="666" y="741"/>
      <point x="643" y="741" type="curve" smooth="yes"/>
      <point x="618" y="741"/>
      <point x="609" y="758"/>
      <point x="609" y="774" type="curve" smooth="yes"/>
      <point x="538" y="691" type="line"/>
      <point x="548" y="670"/>
      <point x="595" y="632"/>
      <point x="640" y="632" type="curve" smooth="yes"/>
      <point x="839" y="632"/>
      <point x="847" y="945"/>
      <point x="619" y="945" type="curve" smooth="yes"/>
      <point x="416" y="945"/>
      <point x="345" y="757"/>
      <point x="419" y="598" type="curve" smooth="yes"/>
    </contour>
    <component base="tml_Ka" xOffset="-8"/>
  </outline>
</glyph>
<glyph name="tml_KSsU" format="1">
  <advance width="2032"/>
  <outline>
    <contour>
      <point x="1461" y="486" type="line"/>
      <point x="1781" y="486" type="line" smooth="yes"/>
      <point x="1837" y="486"/>
      <point x="1870" y="479"/>
      <point x="1870" y="441" type="curve" smooth="yes"/>
      <point x="1870" y="423"/>
      <point x="1859" y="409"/>
      <point x="1836" y="409" type="curve" smooth="yes"/>
      <point x="1814" y="409"/>
      <point x="1802" y="422"/>
      <point x="1802" y="442" type="curve" smooth="yes"/>
      <point x="1680" y="442" type="line"/>
      <point x="1680" y="357"/>
      <point x="1751" y="287"/>
      <point x="1820" y="287" type="curve" smooth="yes"/>
      <point x="1849" y="287" type="line" smooth="yes"/>
      <point x="1904" y="287"/>
      <point x="1992" y="338"/>
      <point x="1992" y="442" type="curve" smooth="yes"/>
      <point x="1992" y="452" type="line" smooth="yes"/>
      <point x="1992" y="585"/>
      <point x="1896" y="608"/>
      <point x="1785" y="608" type="curve" smooth="yes"/>
      <point x="1461" y="608" type="line"/>
    </contour>
    <contour>
      <point x="909" y="412" type="line"/>
      <point x="986" y="412"/>
      <point x="1044" y="361"/>
      <point x="1045" y="291" type="curve"/>
      <point x="1045" y="146" type="line" smooth="yes"/>
      <point x="1045" y="127"/>
      <point x="1019" y="124"/>
      <point x="1012" y="123" type="curve"/>
      <point x="1012" y="0" type="line"/>
      <point x="1408" y="0" type="line"/>
      <point x="1408" y="123" type="line"/>
      <point x="1166" y="123" type="line"/>
      <point x="1166" y="292" type="line"/>
      <point x="1165" y="403"/>
      <point x="1078" y="534"/>
      <point x="909" y="534" type="curve"/>
    </contour>
    <contour>
      <point x="40" y="152" type="line" smooth="yes"/>
      <point x="40" y="63"/>
      <point x="113" y="-5"/>
      <point x="270" y="-6" type="curve"/>
      <point x="270" y="117" type="line"/>
      <point x="181" y="117"/>
      <point x="161" y="122"/>
      <point x="161" y="183" type="curve" smooth="yes"/>
      <point x="161" y="234"/>
      <point x="175" y="244"/>
      <point x="239" y="244" type="curve" smooth="yes"/>
      <point x="700" y="244" type="line"/>
      <point x="700" y="366" type="line"/>
      <point x="236" y="366" type="line" smooth="yes"/>
      <point x="150" y="366"/>
      <point x="40" y="321"/>
      <point x="40" y="213" type="curve" smooth="yes"/>
    </contour>
    <contour>
      <point x="1227" y="334" type="line" smooth="yes"/>
      <point x="1227" y="191"/>
      <point x="1304" y="158"/>
      <point x="1408" y="158" type="curve"/>
      <point x="1408" y="279" type="line"/>
      <point x="1364" y="279"/>
      <point x="1350" y="287"/>
      <point x="1350" y="340" type="curve" smooth="yes"/>
      <point x="1350" y="424" type="line" smooth="yes"/>
      <point x="1350" y="463"/>
      <point x="1363" y="485"/>
      <point x="1408" y="485" type="curve"/>
      <point x="1408" y="607" type="line"/>
      <point x="1304" y="607"/>
      <point x="1227" y="570"/>
      <point x="1227" y="433" type="curve" smooth="yes"/>
    </contour>
    <contour>
      <point x="598" y="151" type="line" smooth="yes"/>
      <point x="598" y="91"/>
      <point x="668" y="0"/>
      <point x="770" y="0" type="curve" smooth="yes"/>
      <point x="770" y="122" type="line"/>
      <point x="737" y="122"/>
      <point x="723" y="147"/>
      <point x="723" y="181" type="curve" smooth="yes"/>
      <point x="723" y="218"/>
      <point x="741" y="237"/>
      <point x="770" y="237" type="curve" smooth="yes"/>
      <point x="770" y="359" type="line"/>
      <point x="720" y="359"/>
      <point x="597" y="324"/>
      <point x="598" y="220" type="curve" smooth="yes"/>
    </contour>
    <contour>
      <point x="825" y="0" type="line"/>
      <point x="934" y="0"/>
      <point x="995" y="89"/>
      <point x="994" y="152" type="curve" smooth="yes"/>
      <point x="994" y="224" type="line" smooth="yes"/>
      <point x="994" y="276"/>
      <point x="921" y="359"/>
      <point x="825" y="359" type="curve" smooth="yes"/>
      <point x="825" y="237" type="line"/>
      <point x="856" y="237"/>
      <point x="872" y="218"/>
      <point x="872" y="180" type="curve" smooth="yes"/>
      <point x="872" y="142"/>
      <point x="857" y="123"/>
      <point x="825" y="122" type="curve"/>
    </contour>
    <contour>
      <point x="323" y="-6" type="line"/>
      <point x="490" y="-6"/>
      <point x="542" y="90"/>
      <point x="542" y="186" type="curve" smooth="yes"/>
      <point x="542" y="664" type="line"/>
      <point x="420" y="664" type="line"/>
      <point x="420" y="182" type="line" smooth="yes"/>
      <point x="420" y="136"/>
      <point x="389" y="117"/>
      <point x="323" y="117" type="curve"/>
    </contour>
    <contour>
      <point x="1461" y="485" type="line"/>
      <point x="1500" y="485"/>
      <point x="1520" y="486"/>
      <point x="1520" y="413" type="curve" smooth="yes"/>
      <point x="1520" y="158" type="line"/>
      <point x="1642" y="158" type="line"/>
      <point x="1642" y="413" type="line" smooth="yes"/>
      <point x="1642" y="561"/>
      <point x="1564" y="607"/>
      <point x="1461" y="607" type="curve"/>
    </contour>
    <contour>
      <point x="598" y="226" type="line"/>
      <point x="764" y="357" type="line" smooth="yes"/>
      <point x="765" y="378"/>
      <point x="795" y="412"/>
      <point x="859" y="412" type="curve"/>
      <point x="859" y="534" type="line"/>
      <point x="649" y="534"/>
      <point x="598" y="340"/>
      <point x="598" y="268" type="curve"/>
    </contour>
    <contour>
      <point x="165" y="343" type="line"/>
      <point x="287" y="343" type="line"/>
      <point x="288" y="662" type="line"/>
      <point x="165" y="662" type="line"/>
    </contour>
    <contour>
      <point x="165" y="546" type="line"/>
      <point x="328" y="546" type="line"/>
      <point x="328" y="671" type="line"/>
      <point x="165" y="671" type="line"/>
    </contour>
    <contour>
      <point x="382" y="546" type="line"/>
      <point x="689" y="546" type="line"/>
      <point x="689" y="671" type="line"/>
      <point x="382" y="671" type="line"/>
    </contour>
    <contour>
      <point x="1520" y="123" type="line"/>
      <point x="1520" y="-178" type="line"/>
      <point x="1642" y="-178" type="line"/>
      <point x="1642" y="123" type="line"/>
    </contour>
    <contour>
      <point x="1461" y="1" type="line"/>
      <point x="1778" y="0" type="line"/>
      <point x="1778" y="123" type="line"/>
      <point x="1461" y="123" type="line"/>
    </contour>
    <contour>
      <point x="1461" y="158" type="line"/>
      <point x="1778" y="158" type="line"/>
      <point x="1778" y="280" type="line" smooth="yes"/>
      <point x="1461" y="280" type="line"/>
    </contour>
    <contour>
      <point x="1678" y="0" type="line"/>
      <point x="1778" y="0" type="line"/>
      <point x="1778" y="280" type="line"/>
      <point x="1678" y="280" type="line"/>
    </contour>
  </outline>
</glyph>
<glyph name="tml_LIi" format="1">
  <advance width="1040"/>
  <outline>
    <contour>
      <point x="763" y="582" type="curve"/>
      <point x="642" y="619"/>
      <point x="672" y="803"/>
      <point x="810" y="795" type="curve"/>
      <point x="867" y="795"/>
      <point x="883" y="761"/>
      <point x="883" y="746" type="curve" smooth="yes"/>
      <point x="883" y="725"/>
      <point x="872" y="706"/>
      <point x="849" y="706" type="curve" smooth="yes"/>
      <point x="824" y="706"/>
      <point x="815" y="723"/>
      <point x="815" y="739" type="curve" smooth="yes"/>
      <point x="739" y="648" type="line"/>
      <point x="751" y="625"/>
      <point x="801" y="587"/>
      <point x="846" y="587" type="curve" smooth="yes"/>
      <point x="1056" y="587"/>
      <point x="1063" y="919"/>
      <point x="803" y="919" type="curve" smooth="yes"/>
      <point x="614" y="919"/>
      <point x="537" y="739"/>
      <point x="572" y="621" type="curve" smooth="yes"/>
      <point x="595" y="543"/>
      <point x="632" y="502"/>
      <point x="682" y="475" type="curve" smooth="yes"/>
      <point x="718" y="455"/>
      <point x="734" y="446"/>
      <point x="735" y="423" type="curve" smooth="yes"/>
      <point x="735" y="166" type="line"/>
      <point x="735" y="139"/>
      <point x="716" y="123"/>
      <point x="689" y="123" type="curve"/>
      <point x="689" y="0" type="line"/>
      <point x="799" y="0"/>
      <point x="855" y="81"/>
      <point x="855" y="166" type="curve" smooth="yes"/>
      <point x="855" y="424" type="line" smooth="yes"/>
      <point x="855" y="508"/>
      <point x="852" y="555"/>
    </contour>
    <contour>
      <point x="266" y="0" type="line"/>
      <point x="375" y="0"/>
      <point x="436" y="89"/>
      <point x="435" y="152" type="curve" smooth="yes"/>
      <point x="435" y="224" type="line" smooth="yes"/>
      <point x="435" y="276"/>
      <point x="362" y="359"/>
      <point x="266" y="359" type="curve" smooth="yes"/>
      <point x="266" y="237" type="line"/>
      <point x="308" y="237"/>
      <point x="311" y="208"/>
      <point x="312" y="181" type="curve" smooth="yes"/>
      <point x="313" y="150"/>
      <point x="307" y="122"/>
      <point x="266" y="122" type="curve" smooth="yes"/>
    </contour>
    <contour>
      <point x="40" y="151" type="curve" smooth="yes"/>
      <point x="40" y="91"/>
      <point x="109" y="0"/>
      <point x="211" y="0" type="curve" smooth="yes"/>
      <point x="211" y="122" type="line"/>
      <point x="178" y="122"/>
      <point x="164" y="149"/>
      <point x="164" y="181" type="curve" smooth="yes"/>
      <point x="164" y="210"/>
      <point x="182" y="237"/>
      <point x="211" y="237" type="curve" smooth="yes"/>
      <point x="211" y="359" type="line"/>
      <point x="161" y="359"/>
      <point x="39" y="324"/>
      <point x="40" y="220" type="curve" smooth="yes"/>
      <point x="41" y="140"/>
      <point x="40" y="193"/>
    </contour>
    <contour>
      <point x="40" y="226" type="line"/>
      <point x="46" y="256"/>
      <point x="171" y="270"/>
      <point x="171" y="327" type="curve" smooth="yes"/>
      <point x="171" y="427"/>
      <point x="233" y="485"/>
      <point x="298" y="485" type="curve"/>
      <point x="298" y="606" type="line"/>
      <point x="119" y="606"/>
      <point x="40" y="424"/>
      <point x="40" y="323" type="curve" smooth="yes"/>
    </contour>
    <contour>
      <point x="352" y="484" type="line"/>
      <point x="430" y="484"/>
      <point x="471" y="418"/>
      <point x="472" y="354" type="curve" smooth="yes"/>
      <point x="473" y="165" type="line" smooth="yes"/>
      <point x="473" y="84"/>
      <point x="521" y="0"/>
      <point x="636" y="0" type="curve"/>
      <point x="636" y="123" type="line"/>
      <point x="611" y="123"/>
      <point x="595" y="138"/>
      <point x="595" y="165" type="curve" smooth="yes"/>
      <point x="595" y="353" type="line" smooth="yes"/>
      <point x="594" y="456"/>
      <point x="520" y="606"/>
      <point x="352" y="606" type="curve"/>
    </contour>
  </outline>
</glyph>
<glyph name="tml_LU" format="1">
  <advance width="1100"/>
  <outline>
    <contour>
      <point x="471" y="-257" type="line"/>
      <point x="701" y="-257" type="line" smooth="yes"/>
      <point x="854" y="-257"/>
      <point x="875" y="-146"/>
      <point x="875" y="-80" type="curve" smooth="yes"/>
      <point x="875" y="231" type="line"/>
      <point x="753" y="231" type="line"/>
      <point x="753" y="-80" type="line" smooth="yes"/>
      <point x="753" y="-110"/>
      <point x="749" y="-163"/>
      <point x="700" y="-163" type="curve" smooth="yes"/>
      <point x="471" y="-163" type="line"/>
    </contour>
    <contour>
      <point x="49" y="-125" type="curve" smooth="yes"/>
      <point x="49" y="-158" type="line" smooth="yes"/>
      <point x="50" y="-253"/>
      <point x="166" y="-257"/>
      <point x="199" y="-257" type="curve" smooth="yes"/>
      <point x="417" y="-257" type="line"/>
      <point x="417" y="-163" type="line"/>
      <point x="199" y="-163" type="line" smooth="yes"/>
      <point x="161" y="-163"/>
      <point x="160" y="-120"/>
      <point x="200" y="-120" type="curve" smooth="yes"/>
      <point x="1051" y="-120" type="line"/>
      <point x="1051" y="583" type="line" smooth="yes"/>
      <point x="929" y="583" type="line" smooth="yes"/>
      <point x="929" y="-27" type="line"/>
      <point x="200" y="-27" type="line" smooth="yes"/>
      <point x="112" y="-27"/>
      <point x="49" y="-57"/>
    </contour>
    <component base="tml_La" xOffset="20"/>
  </outline>
</glyph>
<glyph name="tml_LUu" format="1">
  <advance width="1448"/>
  <outline>
    <contour>
      <point x="189" y="-257" type="curve" smooth="yes"/>
      <point x="407" y="-257" type="line"/>
      <point x="407" y="-163" type="line"/>
      <point x="189" y="-163" type="line" smooth="yes"/>
      <point x="151" y="-163"/>
      <point x="150" y="-120"/>
      <point x="190" y="-120" type="curve" smooth="yes"/>
      <point x="1041" y="-120" type="line"/>
      <point x="1041" y="583" type="line" smooth="yes"/>
      <point x="919" y="583" type="line" smooth="yes"/>
      <point x="919" y="-27" type="line"/>
      <point x="190" y="-27" type="line" smooth="yes"/>
      <point x="102" y="-27"/>
      <point x="39" y="-57"/>
      <point x="39" y="-125" type="curve" smooth="yes"/>
      <point x="39" y="-158" type="line" smooth="yes"/>
      <point x="40" y="-253"/>
      <point x="156" y="-257"/>
    </contour>
    <contour>
      <point x="461" y="-257" type="line"/>
      <point x="691" y="-257" type="line" smooth="yes"/>
      <point x="844" y="-257"/>
      <point x="865" y="-146"/>
      <point x="865" y="-80" type="curve" smooth="yes"/>
      <point x="865" y="231" type="line"/>
      <point x="743" y="231" type="line"/>
      <point x="743" y="-80" type="line" smooth="yes"/>
      <point x="743" y="-110"/>
      <point x="739" y="-163"/>
      <point x="690" y="-163" type="curve" smooth="yes"/>
      <point x="461" y="-163" type="line"/>
    </contour>
    <contour>
      <point x="919" y="474" type="line"/>
      <point x="1098" y="474" type="line"/>
      <point x="1098" y="596" type="line"/>
      <point x="919" y="596" type="line"/>
    </contour>
    <contour>
      <point x="1203" y="1" type="line"/>
      <point x="1325" y="1" type="line"/>
      <point x="1325" y="594" type="line"/>
      <point x="1203" y="594" type="line"/>
    </contour>
    <contour>
      <point x="1151" y="474" type="line"/>
      <point x="1409" y="474" type="line"/>
      <point x="1409" y="596" type="line"/>
      <point x="1151" y="596" type="line"/>
    </contour>
    <component base="tml_La" xOffset="10"/>
  </outline>
</glyph>
<glyph name="tml_LlUu" format="1">
  <advance width="1461"/>
  <outline>
    <contour>
      <point x="40" y="29" type="line" smooth="yes"/>
      <point x="40" y="-108"/>
      <point x="126" y="-176"/>
      <point x="235" y="-176" type="curve" smooth="yes"/>
      <point x="766" y="-176" type="line"/>
      <point x="766" y="-54" type="line"/>
      <point x="251" y="-54" type="line" smooth="yes"/>
      <point x="187" y="-54"/>
      <point x="165" y="-34"/>
      <point x="165" y="28" type="curve" smooth="yes"/>
      <point x="165" y="353" type="line" smooth="yes"/>
      <point x="165" y="419"/>
      <point x="170" y="442"/>
      <point x="208" y="442" type="curve" smooth="yes"/>
      <point x="226" y="442"/>
      <point x="240" y="431"/>
      <point x="240" y="408" type="curve" smooth="yes"/>
      <point x="240" y="386"/>
      <point x="227" y="374"/>
      <point x="207" y="374" type="curve" smooth="yes"/>
      <point x="207" y="252" type="line"/>
      <point x="292" y="252"/>
      <point x="362" y="324"/>
      <point x="362" y="393" type="curve" smooth="yes"/>
      <point x="362" y="421" type="line" smooth="yes"/>
      <point x="362" y="476"/>
      <point x="311" y="564"/>
      <point x="207" y="564" type="curve" smooth="yes"/>
      <point x="197" y="564" type="line" smooth="yes"/>
      <point x="64" y="564"/>
      <point x="39" y="447"/>
      <point x="40" y="356" type="curve" smooth="yes"/>
    </contour>
    <contour>
      <point x="819" y="-54" type="line"/>
      <point x="819" y="-176" type="line"/>
      <point x="1234" y="-176" type="line" smooth="yes"/>
      <point x="1360" y="-176"/>
      <point x="1421" y="-81"/>
      <point x="1421" y="-14" type="curve" smooth="yes"/>
      <point x="1421" y="221" type="line" smooth="yes"/>
      <point x="1421" y="329"/>
      <point x="1319" y="366"/>
      <point x="1257" y="372" type="curve"/>
      <point x="1257" y="245" type="line"/>
      <point x="1279" y="245"/>
      <point x="1299" y="237"/>
      <point x="1299" y="187" type="curve" smooth="yes"/>
      <point x="1299" y="39" type="line" smooth="yes"/>
      <point x="1299" y="-4"/>
      <point x="1302" y="-54"/>
      <point x="1233" y="-54" type="curve" smooth="yes"/>
    </contour>
    <component base="tml_Lla" xOffset="339.028"/>
  </outline>
</glyph>
